STARTFONT 2.1
FONT -FontForge-Roboto Black-Black-R-Normal--48-460-75-75-P-277-ISO10646-1
SIZE 46 75 75
FONTBOUNDINGBOX 93 62 -35 -12
COMMENT "Generated by fontforge, http://fontforge.sourceforge.net"
COMMENT "Copyright 2011 Google Inc. All Rights Reserved."
STARTPROPERTIES 41
FOUNDRY "FontForge"
FAMILY_NAME "Roboto Black"
WEIGHT_NAME "Black"
SLANT "R"
SETWIDTH_NAME "Normal"
ADD_STYLE_NAME ""
PIXEL_SIZE 48
POINT_SIZE 460
RESOLUTION_X 75
RESOLUTION_Y 75
SPACING "P"
AVERAGE_WIDTH 277
CHARSET_REGISTRY "ISO10646"
CHARSET_ENCODING "1"
FONTNAME_REGISTRY ""
CHARSET_COLLECTIONS "ISO8859-2 ISO8859-5 ISO8859-7 ISO8859-9 ISO8859-4 ISO10646-1"
FONT_NAME "Roboto-Black"
FACE_NAME "Roboto Black"
COPYRIGHT "Copyright 2011 Google Inc. All Rights Reserved."
FONT_VERSION "2.137; 2017"
FONT_ASCENT 36
FONT_DESCENT 12
UNDERLINE_POSITION -5
UNDERLINE_THICKNESS 3
X_HEIGHT 25
CAP_HEIGHT 33
DEFAULT_CHAR 1
RAW_ASCENT 750
RAW_DESCENT 250
NORM_SPACE 12
RELATIVE_WEIGHT 90
RELATIVE_SETWIDTH 50
SUPERSCRIPT_X 0
SUPERSCRIPT_Y 22
SUPERSCRIPT_SIZE 31
SUBSCRIPT_X 0
SUBSCRIPT_Y 6
SUBSCRIPT_SIZE 31
FIGURE_WIDTH 28
AVG_LOWERCASE_WIDTH 269
AVG_UPPERCASE_WIDTH 324
ENDPROPERTIES
CHARS 1296
STARTCHAR uni0000
ENCODING 0
SWIDTH 0 0
DWIDTH 0 0
BBX 1 1 0 0
BITMAP
00
ENDCHAR
STARTCHAR uni0002
ENCODING 2
SWIDTH 0 0
DWIDTH 0 0
BBX 1 1 0 0
BITMAP
00
ENDCHAR
STARTCHAR uni000D
ENCODING 13
SWIDTH 249 0
DWIDTH 12 0
BBX 1 1 0 0
BITMAP
00
ENDCHAR
STARTCHAR space
ENCODING 32
SWIDTH 249 0
DWIDTH 12 0
BBX 1 1 0 0
BITMAP
00
ENDCHAR
STARTCHAR exclam
ENCODING 33
SWIDTH 275 0
DWIDTH 13 0
BBX 9 34 2 0
BITMAP
7F80
7F80
7F80
7F80
7F80
7F80
7F80
7F80
7F80
7F80
7F80
7F00
7F00
7F00
7F00
7F00
7F00
7F00
7F00
7F00
7F00
3F00
3F00
0000
0000
0000
1E00
7F00
7F80
FF80
FF80
7F80
7F00
1E00
ENDCHAR
STARTCHAR quotedbl
ENCODING 34
SWIDTH 316 0
DWIDTH 15 0
BBX 14 13 0 23
BITMAP
FC7C
FC7C
FC7C
FC7C
FC7C
FC7C
FC7C
F87C
F87C
F878
F878
F878
F878
ENDCHAR
STARTCHAR numbersign
ENCODING 35
SWIDTH 581 0
DWIDTH 28 0
BBX 26 34 1 0
BITMAP
007C7C00
00787C00
00787C00
00F87C00
00F87800
00F87800
00F8F800
00F0F800
00F0F800
01F0F800
3FFFFFC0
3FFFFFC0
3FFFFFC0
3FFFFFC0
3FFFFFC0
01E1F000
03E1E000
03E1E000
03E3E000
03C3E000
FFFFFF00
FFFFFF00
FFFFFF00
FFFFFF00
FFFFFF00
07C7C000
0787C000
0787C000
0F878000
0F878000
0F8F8000
0F0F8000
0F0F8000
1F0F8000
ENDCHAR
STARTCHAR dollar
ENCODING 36
SWIDTH 579 0
DWIDTH 28 0
BBX 24 44 2 -5
BITMAP
001E00
001E00
001E00
001E00
001E00
00FF80
03FFE0
0FFFF8
1FFFFC
1FFFFC
3FFFFE
3FE3FE
7FC1FF
7F80FF
7F80FF
7F80FF
3FC000
3FE000
3FF000
1FFC00
0FFF80
07FFE0
03FFF0
00FFF8
003FFC
0007FE
0003FE
0001FF
FF00FF
FF00FF
FF00FF
FF81FF
7FC1FE
7FFFFE
3FFFFE
1FFFFC
0FFFF8
07FFE0
00FF80
001C00
001C00
001C00
001C00
001C00
ENDCHAR
STARTCHAR percent
ENCODING 37
SWIDTH 742 0
DWIDTH 36 0
BBX 32 34 2 0
BITMAP
07E00000
1FF80000
3FFC0000
7FFC0200
7FFE0780
FC7E07C0
F83E0F80
F83E1F00
F83E1F00
F83E3E00
FC7E7C00
FFFE7C00
7FFCF800
3FFCF000
1FF9F000
07E3E000
0003C000
0007C000
000F87E0
000F9FF8
001F3FFC
003E7FFE
003E7FFE
007CFC3E
0078FC3F
00F8F83F
01F0F83F
01E0FC3F
03E0FC3E
03C07FFE
00C07FFE
00003FFC
00001FF8
000007E0
ENDCHAR
STARTCHAR ampersand
ENCODING 38
SWIDTH 673 0
DWIDTH 32 0
BBX 31 34 1 0
BITMAP
007F0000
01FFC000
03FFF000
07FFF000
0FFFF800
0FFFFC00
0FE3FC00
1FC1FC00
1FC0FC00
1FC1FC00
1FE1F800
0FE3F800
0FFFF000
07FFE000
07FFC000
03FF8000
03FF0000
0FFF03F8
1FFF83F0
3FFFC3F0
3FFFE7F0
7F9FF7F0
7F0FF7F0
FF07FFF0
FF03FFE0
FF03FFE0
FF81FFC0
7FC1FFC0
7FFFFFC0
3FFFFFE0
3FFFFFE0
1FFFFFF0
07FFE7F8
00FF07FE
ENDCHAR
STARTCHAR quotesingle
ENCODING 39
SWIDTH 154 0
DWIDTH 7 0
BBX 5 13 1 23
BITMAP
F8
F8
F8
F8
F8
F8
F8
F8
F8
F8
F8
F8
F8
ENDCHAR
STARTCHAR parenleft
ENCODING 40
SWIDTH 353 0
DWIDTH 17 0
BBX 13 49 3 -11
BITMAP
0010
0070
00F0
01F8
03F0
07E0
0FE0
0FC0
1F80
1F80
3F00
3F00
3F00
7E00
7E00
7E00
7E00
FE00
FC00
FC00
FC00
FC00
FC00
FC00
FC00
FC00
FC00
FC00
FC00
FC00
FC00
FE00
7E00
7E00
7E00
7E00
3F00
3F00
3F00
1F80
1F80
0FC0
0FE0
07E0
03F0
01F8
00F8
0070
0030
ENDCHAR
STARTCHAR parenright
ENCODING 41
SWIDTH 352 0
DWIDTH 17 0
BBX 14 49 1 -11
BITMAP
6000
7000
7800
FC00
7E00
3F00
3F80
1F80
0FC0
0FC0
07E0
07E0
07F0
03F0
03F0
03F8
03F8
03F8
01F8
01F8
01FC
01FC
01FC
01FC
01FC
01FC
01FC
01FC
01FC
01F8
01F8
03F8
03F8
03F8
03F0
03F0
07F0
07E0
07E0
0FC0
0FC0
1F80
3F80
3F00
7E00
FC00
7800
7000
6000
ENDCHAR
STARTCHAR asterisk
ENCODING 42
SWIDTH 464 0
DWIDTH 22 0
BBX 21 20 1 14
BITMAP
00F800
00F800
00F800
00F800
00F800
40F810
78F8F0
FE7BF8
FFFFF8
FFFFF8
1FFF80
01F800
03FC00
07FE00
07DF00
0F9F80
1F0FC0
3F07C0
1E07A0
040300
ENDCHAR
STARTCHAR plus
ENCODING 43
SWIDTH 534 0
DWIDTH 26 0
BBX 23 24 1 4
BITMAP
00FE00
00FE00
00FE00
00FE00
00FE00
00FE00
00FE00
00FE00
00FE00
FFFFFE
FFFFFE
FFFFFE
FFFFFE
FFFFFE
FFFFFE
00FE00
00FE00
00FE00
00FE00
00FE00
00FE00
00FE00
00FE00
00FE00
ENDCHAR
STARTCHAR comma
ENCODING 44
SWIDTH 269 0
DWIDTH 13 0
BBX 9 15 1 -9
BITMAP
1F80
1F80
1F80
1F80
1F80
1F80
3F80
3F80
3F00
3F00
7E00
7E00
FC00
7C00
1800
ENDCHAR
STARTCHAR hyphen
ENCODING 45
SWIDTH 449 0
DWIDTH 22 0
BBX 14 6 4 12
BITMAP
FFFC
FFFC
FFFC
FFFC
FFFC
FFFC
ENDCHAR
STARTCHAR period
ENCODING 46
SWIDTH 302 0
DWIDTH 15 0
BBX 8 8 3 0
BITMAP
3C
7F
FF
FF
FF
FF
7F
3C
ENDCHAR
STARTCHAR slash
ENCODING 47
SWIDTH 351 0
DWIDTH 17 0
BBX 18 37 -1 -3
BITMAP
000FC0
001F80
001F80
001F80
001F00
003F00
003F00
003E00
007E00
007E00
007C00
00FC00
00FC00
00F800
01F800
01F800
01F000
03F000
03F000
03E000
07E000
07E000
07E000
07C000
0FC000
0FC000
0F8000
1F8000
1F8000
1F0000
3F0000
3F0000
3E0000
7E0000
7E0000
7C0000
FC0000
ENDCHAR
STARTCHAR zero
ENCODING 48
SWIDTH 579 0
DWIDTH 28 0
BBX 24 34 2 0
BITMAP
00FF00
03FFC0
0FFFF0
1FFFF8
1FFFF8
3FFFFC
7FC3FE
7F81FE
7F81FE
FF00FE
FF00FF
FF00FF
FF00FF
FF00FF
FF00FF
FF00FF
FF00FF
FF00FF
FF00FF
FF00FF
FF00FF
FF00FF
FF00FF
FF00FF
7F00FE
7F81FE
7F81FE
7FC3FE
3FFFFC
1FFFF8
1FFFF8
0FFFF0
03FFC0
00FF00
ENDCHAR
STARTCHAR one
ENCODING 49
SWIDTH 579 0
DWIDTH 28 0
BBX 16 34 4 0
BITMAP
0007
003F
01FF
0FFF
7FFF
FFFF
FFFF
FFFF
FFFF
F8FF
C0FF
00FF
00FF
00FF
00FF
00FF
00FF
00FF
00FF
00FF
00FF
00FF
00FF
00FF
00FF
00FF
00FF
00FF
00FF
00FF
00FF
00FF
00FF
00FF
ENDCHAR
STARTCHAR two
ENCODING 50
SWIDTH 579 0
DWIDTH 28 0
BBX 25 34 1 0
BITMAP
007F8000
03FFF000
07FFF800
0FFFFC00
1FFFFE00
3FFFFE00
3FE3FF00
7FC1FF00
7F80FF00
7F80FF00
FF00FF00
0000FF00
0000FF00
0001FE00
0001FE00
0003FC00
0007FC00
000FF800
001FF000
003FE000
007FC000
00FFC000
01FF0000
03FF0000
07FE0000
0FFC0000
0FF80000
1FF00000
3FFFFF80
7FFFFF80
7FFFFF80
7FFFFF80
7FFFFF80
7FFFFF80
ENDCHAR
STARTCHAR three
ENCODING 51
SWIDTH 579 0
DWIDTH 28 0
BBX 25 34 1 0
BITMAP
00FF8000
03FFF000
0FFFF800
1FFFFC00
3FFFFE00
7FFFFF00
7FC1FF00
7F80FF00
7F80FF00
00007F00
0000FF00
0000FF00
0001FE00
00FFFE00
00FFFC00
00FFF000
00FFF800
00FFFC00
00FFFE00
0001FF00
0000FF00
00007F80
00007F80
00007F80
FF007F80
FF007F80
FF80FF80
7FC1FF00
7FFFFF00
3FFFFE00
1FFFFC00
0FFFF800
03FFF000
00FF8000
ENDCHAR
STARTCHAR four
ENCODING 52
SWIDTH 579 0
DWIDTH 28 0
BBX 26 34 1 0
BITMAP
0003FC00
0007FC00
0007FC00
000FFC00
001FFC00
001FFC00
003FFC00
003FFC00
007FFC00
00FFFC00
00FFFC00
01FBFC00
03FBFC00
03F3FC00
07F3FC00
07E3FC00
0FE3FC00
1FC3FC00
1F83FC00
3F83FC00
3F03FC00
7FFFFFC0
FFFFFFC0
7FFFFFC0
7FFFFFC0
7FFFFFC0
7FFFFFC0
0003FC00
0003FC00
0003FC00
0003FC00
0003FC00
0003FC00
0003FC00
ENDCHAR
STARTCHAR five
ENCODING 53
SWIDTH 579 0
DWIDTH 28 0
BBX 24 34 2 0
BITMAP
1FFFFE
1FFFFE
3FFFFE
3FFFFE
3FFFFE
3FFFFE
3F8000
3F8000
3F8000
3F8000
7F8000
7F3F80
7FFFE0
7FFFF8
7FFFF8
7FFFFC
7F87FE
0601FE
0001FE
0000FF
0000FF
0000FF
0000FF
0000FF
FF00FF
FF01FE
FF81FE
7FC3FE
7FFFFC
3FFFFC
1FFFF8
0FFFF0
03FFC0
00FF00
ENDCHAR
STARTCHAR six
ENCODING 54
SWIDTH 579 0
DWIDTH 28 0
BBX 25 34 2 0
BITMAP
0003E000
003FE000
00FFE000
01FFE000
03FFE000
07FFE000
0FFE0000
1FF00000
3FE00000
3FC00000
7F800000
7F8FC000
7F7FF000
FFFFF800
FFFFFC00
FFFFFE00
FFFFFE00
FFC3FF00
FF81FF00
FF00FF00
FF00FF00
FF007F80
FF007F80
FF007F80
FF00FF00
7F80FF00
7F81FF00
3FC3FE00
3FFFFE00
1FFFFC00
0FFFF800
07FFF000
03FFE000
007F0000
ENDCHAR
STARTCHAR seven
ENCODING 55
SWIDTH 579 0
DWIDTH 28 0
BBX 25 34 1 0
BITMAP
FFFFFF80
FFFFFF80
FFFFFF80
FFFFFF80
FFFFFF80
FFFFFF00
0000FF00
0000FE00
0001FE00
0001FE00
0003FC00
0003FC00
0003F800
0007F800
0007F000
000FF000
000FF000
001FE000
001FE000
003FC000
003FC000
007F8000
007F8000
00FF8000
00FF0000
00FF0000
01FE0000
01FE0000
03FC0000
03FC0000
07FC0000
07F80000
0FF80000
0FF00000
ENDCHAR
STARTCHAR eight
ENCODING 56
SWIDTH 579 0
DWIDTH 28 0
BBX 24 34 2 0
BITMAP
00FF00
07FFE0
0FFFF0
1FFFF8
3FFFFC
7FFFFE
7FC3FE
7F81FE
7F81FE
7F81FE
7F81FE
7F81FE
3FC3FC
3FFFFC
1FFFF8
07FFE0
0FFFF0
1FFFF8
3FFFFC
7FC3FE
7F81FE
FF00FF
FF00FF
FF00FF
FF00FF
FF00FF
FF81FF
7FC3FE
7FFFFE
3FFFFC
3FFFFC
1FFFF8
07FFE0
00FF80
ENDCHAR
STARTCHAR nine
ENCODING 57
SWIDTH 579 0
DWIDTH 28 0
BBX 24 34 2 0
BITMAP
00FE00
03FFC0
0FFFE0
1FFFF0
3FFFF8
3FFFFC
7FC3FC
7F81FE
FF01FE
FF00FE
FF00FE
FF00FF
FF00FF
FF00FF
FF00FF
FF81FF
7FC3FF
7FFFFF
7FFFFF
3FFFFE
1FFFFE
0FFEFE
03F9FE
0001FC
0003FC
0007FC
000FF8
003FF0
07FFE0
07FFE0
07FF80
07FF00
07FC00
07C000
ENDCHAR
STARTCHAR colon
ENCODING 58
SWIDTH 300 0
DWIDTH 14 0
BBX 9 27 3 0
BITMAP
3C00
7F00
FF00
FF00
FF80
FF00
7F00
3C00
0000
0000
0000
0000
0000
0000
0000
0000
0000
0000
0000
3C00
7F00
FF00
FF00
FF80
FF00
7F00
3C00
ENDCHAR
STARTCHAR semicolon
ENCODING 59
SWIDTH 288 0
DWIDTH 14 0
BBX 9 36 2 -9
BITMAP
1E00
7F00
7F80
7F80
7F80
7F80
7F00
1E00
0000
0000
0000
0000
0000
0000
0000
0000
0000
0000
0000
0000
0000
3F00
3F00
3F00
3F00
3F00
3F00
3F00
3F00
3F00
7E00
7E00
FE00
FC00
F800
1000
ENDCHAR
STARTCHAR less
ENCODING 60
SWIDTH 509 0
DWIDTH 24 0
BBX 21 23 1 3
BITMAP
000008
000078
0001F8
000FF8
003FF8
01FFF8
07FFF8
3FFFF0
FFFF80
FFFC00
FFE000
FF0000
FFE000
FFFC00
FFFF80
3FFFF0
07FFF8
01FFF8
003FF8
000FF8
0001F8
000078
000008
ENDCHAR
STARTCHAR equal
ENCODING 61
SWIDTH 585 0
DWIDTH 28 0
BBX 22 16 3 7
BITMAP
FFFFFC
FFFFFC
FFFFFC
FFFFFC
FFFFFC
FFFFFC
000000
000000
000000
000000
FFFFFC
FFFFFC
FFFFFC
FFFFFC
FFFFFC
FFFFFC
ENDCHAR
STARTCHAR greater
ENCODING 62
SWIDTH 512 0
DWIDTH 25 0
BBX 20 23 3 3
BITMAP
800000
E00000
FC0000
FF0000
FFE000
FFF800
FFFF00
7FFFC0
0FFFF0
01FFF0
003FF0
000FF0
007FF0
03FFF0
0FFFF0
7FFFC0
FFFF00
FFF800
FFE000
FF0000
FC0000
E00000
800000
ENDCHAR
STARTCHAR question
ENCODING 63
SWIDTH 509 0
DWIDTH 24 0
BBX 22 34 1 0
BITMAP
03FE00
0FFF80
3FFFE0
3FFFF0
7FFFF8
FFFFF8
FF8FF8
FF07F8
FF03FC
FE03FC
0007F8
0007F8
000FF8
001FF0
003FE0
007FC0
00FF80
00FF00
01FE00
01FC00
01FC00
01FC00
01FC00
000000
000000
000000
00F000
01FC00
03FC00
03FE00
03FE00
03FC00
01FC00
00F800
ENDCHAR
STARTCHAR at
ENCODING 64
SWIDTH 895 0
DWIDTH 43 0
BBX 39 44 2 -11
BITMAP
0000FFC000
0007FFF800
001FFFFE00
007FFFFF00
00FFFFFFC0
01FF807FE0
03FC000FF0
07F00003F0
0FE00001F8
1FC00000F8
1F803F80FC
3F00FFE07C
3F01FFF87C
7E03FFF03E
7E07FFF03E
7C0FE1F03E
FC0FC1F03E
FC1F81F03E
F81F81F03E
F83F01F03E
F83F01F03E
F83F03F03E
F83F03F03E
F83F03F03E
F83F03E03C
F83F03E07C
F83F07E07C
F83F8FF0F8
F83FFFFFF8
F81FFFFFF0
FC0FFDFFE0
7C07F8FFC0
7E03F03F00
7E00000000
3F00000000
3F80000000
1FC0000000
1FF0002000
0FFE01E000
07FFFFE000
03FFFFE000
00FFFFF000
003FFFC000
0007FE0000
ENDCHAR
STARTCHAR A
ENCODING 65
SWIDTH 681 0
DWIDTH 33 0
BBX 33 34 0 0
BITMAP
000FF00000
000FF80000
000FF80000
001FF80000
001FFC0000
003FFC0000
003FFE0000
003FFE0000
007FFE0000
007FFF0000
007F7F0000
00FF7F0000
00FE7F8000
01FE3F8000
01FE3FC000
01FC3FC000
03FC1FC000
03FC1FE000
03F81FE000
07F80FE000
07F80FF000
07FFFFF000
0FFFFFF800
0FFFFFF800
1FFFFFF800
1FFFFFFC00
1FFFFFFC00
3FE003FC00
3FC003FE00
3FC001FE00
7FC001FF00
7F8001FF00
FF8000FF00
FF8000FF80
ENDCHAR
STARTCHAR B
ENCODING 66
SWIDTH 645 0
DWIDTH 31 0
BBX 26 34 3 0
BITMAP
FFFF8000
FFFFF000
FFFFFC00
FFFFFE00
FFFFFF00
FFFFFF80
FF01FF80
FF00FF80
FF007F80
FF007F80
FF007F80
FF007F80
FF00FF80
FF01FF00
FFFFFE00
FFFFFC00
FFFFF800
FFFFFE00
FFFFFF00
FF00FF80
FF007F80
FF007FC0
FF003FC0
FF003FC0
FF003FC0
FF003FC0
FF007FC0
FF00FF80
FFFFFF80
FFFFFF80
FFFFFF00
FFFFFE00
FFFFF800
FFFFC000
ENDCHAR
STARTCHAR C
ENCODING 67
SWIDTH 656 0
DWIDTH 32 0
BBX 29 34 2 0
BITMAP
003FE000
00FFFC00
03FFFE00
07FFFF80
0FFFFFC0
1FFFFFC0
3FF07FE0
3FC01FE0
7FC00FF0
7F800FF0
7F800FF0
FF800FF0
FF000008
FF000000
FF000000
FF000000
FF000000
FF000000
FF000000
FF000000
FF000000
FF000000
FF800FF0
FF800FF0
7F800FF0
7FC00FF0
3FC01FF0
3FF07FE0
1FFFFFC0
1FFFFFC0
0FFFFF80
03FFFE00
01FFFC00
003FE000
ENDCHAR
STARTCHAR D
ENCODING 68
SWIDTH 646 0
DWIDTH 31 0
BBX 26 34 3 0
BITMAP
FFFE0000
FFFFC000
FFFFE000
FFFFF800
FFFFFC00
FFFFFE00
FF07FF00
FF01FF00
FF00FF80
FF007F80
FF007F80
FF007FC0
FF003FC0
FF003FC0
FF003FC0
FF003FC0
FF003FC0
FF003FC0
FF003FC0
FF003FC0
FF003FC0
FF003FC0
FF007FC0
FF007FC0
FF007F80
FF00FF80
FF01FF00
FF07FF00
FFFFFE00
FFFFFC00
FFFFF800
FFFFF000
FFFFC000
FFFE0000
ENDCHAR
STARTCHAR E
ENCODING 69
SWIDTH 559 0
DWIDTH 27 0
BBX 23 34 3 0
BITMAP
FFFFFE
FFFFFE
FFFFFE
FFFFFE
FFFFFE
FFFFFE
FF0000
FF0000
FF0000
FF0000
FF0000
FF0000
FF0000
FFFFF8
FFFFF8
FFFFF8
FFFFF8
FFFFF8
FFFFF8
FF0000
FF0000
FF0000
FF0000
FF0000
FF0000
FF0000
FF0000
FF0000
FFFFFE
FFFFFE
FFFFFE
FFFFFE
FFFFFE
FFFFFE
ENDCHAR
STARTCHAR F
ENCODING 70
SWIDTH 546 0
DWIDTH 26 0
BBX 22 34 3 0
BITMAP
FFFFFC
FFFFFC
FFFFFC
FFFFFC
FFFFFC
FFFFFC
FF0000
FF0000
FF0000
FF0000
FF0000
FF0000
FF0000
FF0000
FFFFF8
FFFFF8
FFFFF8
FFFFF8
FFFFF8
FFFFF8
FF0000
FF0000
FF0000
FF0000
FF0000
FF0000
FF0000
FF0000
FF0000
FF0000
FF0000
FF0000
FF0000
FF0000
ENDCHAR
STARTCHAR G
ENCODING 71
SWIDTH 681 0
DWIDTH 33 0
BBX 29 34 2 0
BITMAP
001FE000
00FFFC00
03FFFF00
07FFFF80
0FFFFFC0
1FFFFFE0
3FF83FE0
3FE01FF0
7FC00FF0
7FC00FF0
7F8007F8
FF800000
FF800000
FF800000
FF000000
FF000000
FF01FFF8
FF01FFF8
FF01FFF8
FF01FFF8
FF81FFF8
FF800FF8
FF800FF8
7F800FF8
7FC00FF8
7FC00FF8
3FE00FF8
3FF81FF8
1FFFFFF8
0FFFFFF8
07FFFFF0
03FFFFC0
00FFFF00
001FF000
ENDCHAR
STARTCHAR H
ENCODING 72
SWIDTH 702 0
DWIDTH 34 0
BBX 28 34 3 0
BITMAP
FF000FF0
FF000FF0
FF000FF0
FF000FF0
FF000FF0
FF000FF0
FF000FF0
FF000FF0
FF000FF0
FF000FF0
FF000FF0
FF000FF0
FF000FF0
FFFFFFF0
FFFFFFF0
FFFFFFF0
FFFFFFF0
FFFFFFF0
FFFFFFF0
FF000FF0
FF000FF0
FF000FF0
FF000FF0
FF000FF0
FF000FF0
FF000FF0
FF000FF0
FF000FF0
FF000FF0
FF000FF0
FF000FF0
FF000FF0
FF000FF0
FF000FF0
ENDCHAR
STARTCHAR I
ENCODING 73
SWIDTH 301 0
DWIDTH 14 0
BBX 8 34 3 0
BITMAP
FF
FF
FF
FF
FF
FF
FF
FF
FF
FF
FF
FF
FF
FF
FF
FF
FF
FF
FF
FF
FF
FF
FF
FF
FF
FF
FF
FF
FF
FF
FF
FF
FF
FF
ENDCHAR
STARTCHAR J
ENCODING 74
SWIDTH 562 0
DWIDTH 27 0
BBX 23 34 1 0
BITMAP
0001FE
0001FE
0001FE
0001FE
0001FE
0001FE
0001FE
0001FE
0001FE
0001FE
0001FE
0001FE
0001FE
0001FE
0001FE
0001FE
0001FE
0001FE
0001FE
0001FE
0001FE
0001FE
0001FE
0001FE
FF01FE
FF01FE
FF83FE
FFC7FE
7FFFFC
7FFFF8
3FFFF8
1FFFE0
07FFC0
01FE00
ENDCHAR
STARTCHAR K
ENCODING 75
SWIDTH 639 0
DWIDTH 31 0
BBX 28 34 3 0
BITMAP
FF003FF0
FF007FE0
FF00FFC0
FF00FFC0
FF01FF80
FF03FF00
FF03FE00
FF07FE00
FF0FFC00
FF0FF800
FF1FF000
FF3FF000
FF3FE000
FF7FC000
FFFF8000
FFFF8000
FFFFC000
FFFFC000
FFFFE000
FFFFF000
FFFFF000
FFFFF800
FFCFF800
FF87FC00
FF07FE00
FF03FE00
FF03FF00
FF01FF00
FF01FF80
FF00FFC0
FF007FC0
FF007FE0
FF003FE0
FF003FF0
ENDCHAR
STARTCHAR L
ENCODING 76
SWIDTH 541 0
DWIDTH 26 0
BBX 22 34 3 0
BITMAP
FF0000
FF0000
FF0000
FF0000
FF0000
FF0000
FF0000
FF0000
FF0000
FF0000
FF0000
FF0000
FF0000
FF0000
FF0000
FF0000
FF0000
FF0000
FF0000
FF0000
FF0000
FF0000
FF0000
FF0000
FF0000
FF0000
FF0000
FF0000
FFFFFC
FFFFFC
FFFFFC
FFFFFC
FFFFFC
FFFFFC
ENDCHAR
STARTCHAR M
ENCODING 77
SWIDTH 876 0
DWIDTH 42 0
BBX 36 34 3 0
BITMAP
FFE0007FF0
FFE0007FF0
FFE0007FF0
FFF000FFF0
FFF000FFF0
FFF000FFF0
FFF001FFF0
FFF801FFF0
FFF801FFF0
FFF801FFF0
FFFC03FFF0
FEFC03F7F0
FEFC03F7F0
FEFE07F7F0
FE7E07E7F0
FE7E07E7F0
FE7F0FE7F0
FE3F0FC7F0
FE3F0FC7F0
FE3F9FCFF0
FF1F9F8FF0
FF1F9F8FF0
FF1FFF8FF0
FF0FFF0FF0
FF0FFF0FF0
FF0FFF0FF0
FF07FE0FF0
FF07FE0FF0
FF07FE0FF0
FF03FC0FF0
FF03FC0FF0
FF03FC0FF0
FF01F80FF0
FF01F80FF0
ENDCHAR
STARTCHAR N
ENCODING 78
SWIDTH 702 0
DWIDTH 34 0
BBX 28 34 3 0
BITMAP
FF000FF0
FF800FF0
FF800FF0
FFC00FF0
FFE00FF0
FFE00FF0
FFF00FF0
FFF00FF0
FFF80FF0
FFF80FF0
FFFC0FF0
FFFE0FF0
FFFE0FF0
FFFF0FF0
FF7F0FF0
FF3F8FF0
FF3F8FF0
FF1FCFF0
FF1FEFF0
FF0FEFF0
FF0FFFF0
FF07FFF0
FF03FFF0
FF03FFF0
FF01FFF0
FF01FFF0
FF00FFF0
FF00FFF0
FF007FF0
FF003FF0
FF003FF0
FF001FF0
FF001FF0
FF000FF0
ENDCHAR
STARTCHAR O
ENCODING 79
SWIDTH 690 0
DWIDTH 33 0
BBX 29 34 2 0
BITMAP
003FE000
00FFF800
03FFFE00
07FFFF00
0FFFFF80
1FFFFFC0
3FF07FE0
3FC03FE0
7FC01FF0
7F800FF0
FF800FF8
FF0007F8
FF0007F8
FF0007F8
FF0007F8
FF0007F8
FF0007F8
FF0007F8
FF0007F8
FF0007F8
FF0007F8
FF0007F8
FF0007F8
FF800FF8
7F800FF0
7FC01FF0
3FE03FE0
3FF07FE0
1FFFFFC0
0FFFFF80
07FFFF00
03FFFE00
00FFF800
003FE000
ENDCHAR
STARTCHAR P
ENCODING 80
SWIDTH 650 0
DWIDTH 31 0
BBX 27 34 2 0
BITMAP
FFFFC000
FFFFF800
FFFFFE00
FFFFFF00
FFFFFF80
FFFFFFC0
FF80FFC0
FF803FE0
FF803FE0
FF801FE0
FF801FE0
FF801FE0
FF801FE0
FF801FE0
FF803FE0
FF807FC0
FFFFFFC0
FFFFFF80
FFFFFF00
FFFFFE00
FFFFF800
FFFFE000
FF800000
FF800000
FF800000
FF800000
FF800000
FF800000
FF800000
FF800000
FF800000
FF800000
FF800000
FF800000
ENDCHAR
STARTCHAR Q
ENCODING 81
SWIDTH 690 0
DWIDTH 33 0
BBX 29 40 2 -6
BITMAP
003FE000
00FFF800
03FFFE00
07FFFF00
0FFFFF80
1FFFFFC0
3FF07FE0
3FC03FE0
7FC01FF0
7F800FF0
FF800FF8
FF0007F8
FF0007F8
FF0007F8
FF0007F8
FF0007F8
FF0007F8
FF0007F8
FF0007F8
FF0007F8
FF0007F8
FF0007F8
FF0007F8
FF800FF8
7F800FF0
7FC01FF0
3FE03FE0
3FF07FE0
1FFFFFC0
0FFFFF80
07FFFF00
03FFFF00
00FFFF80
003FFFE0
00007FF0
00001FF8
00000FF0
000007E0
00000380
00000100
ENDCHAR
STARTCHAR R
ENCODING 82
SWIDTH 652 0
DWIDTH 31 0
BBX 28 34 2 0
BITMAP
FFFFE000
FFFFF800
FFFFFE00
FFFFFF00
FFFFFF80
FFFFFFC0
FF80FFC0
FF807FC0
FF803FE0
FF803FE0
FF801FE0
FF801FE0
FF803FE0
FF803FC0
FF807FC0
FF80FFC0
FFFFFF80
FFFFFF00
FFFFFE00
FFFFFC00
FFFFF800
FFFFFC00
FF87FC00
FF83FE00
FF83FE00
FF81FF00
FF81FF00
FF80FF80
FF80FF80
FF807FC0
FF807FC0
FF803FE0
FF803FE0
FF801FF0
ENDCHAR
STARTCHAR S
ENCODING 83
SWIDTH 625 0
DWIDTH 30 0
BBX 27 34 1 0
BITMAP
003FE000
01FFFC00
07FFFE00
0FFFFF80
1FFFFF80
3FFFFFC0
3FF07FE0
3FC03FE0
3FC01FE0
7FC01FE0
3FC00000
3FE00000
3FF00000
1FFE0000
1FFFC000
0FFFF000
03FFFC00
01FFFF00
007FFF80
000FFFC0
0001FFC0
00007FE0
00003FE0
FF801FE0
7F801FE0
7F801FE0
7FC01FE0
3FF07FE0
3FFFFFE0
1FFFFFC0
0FFFFF80
07FFFF00
01FFFC00
003FE000
ENDCHAR
STARTCHAR T
ENCODING 84
SWIDTH 630 0
DWIDTH 30 0
BBX 28 34 1 0
BITMAP
FFFFFFF0
FFFFFFF0
FFFFFFF0
FFFFFFF0
FFFFFFF0
FFFFFFF0
003FC000
003FC000
003FC000
003FC000
003FC000
003FC000
003FC000
003FC000
003FC000
003FC000
003FC000
003FC000
003FC000
003FC000
003FC000
003FC000
003FC000
003FC000
003FC000
003FC000
003FC000
003FC000
003FC000
003FC000
003FC000
003FC000
003FC000
003FC000
ENDCHAR
STARTCHAR U
ENCODING 85
SWIDTH 664 0
DWIDTH 32 0
BBX 26 34 3 0
BITMAP
FF003FC0
FF003FC0
FF003FC0
FF003FC0
FF003FC0
FF003FC0
FF003FC0
FF003FC0
FF003FC0
FF003FC0
FF003FC0
FF003FC0
FF003FC0
FF003FC0
FF003FC0
FF003FC0
FF003FC0
FF003FC0
FF003FC0
FF003FC0
FF003FC0
FF003FC0
FF003FC0
FF003FC0
FF003FC0
FF003FC0
FF807FC0
7FC0FF80
7FFFFF80
3FFFFF00
1FFFFE00
0FFFFC00
03FFF000
00FF8000
ENDCHAR
STARTCHAR V
ENCODING 86
SWIDTH 660 0
DWIDTH 32 0
BBX 32 34 0 0
BITMAP
FF8001FF
7FC003FE
7FC003FE
7FC003FE
3FC003FC
3FE007FC
3FE007FC
1FE007F8
1FF00FF8
1FF00FF8
0FF00FF0
0FF00FF0
0FF81FF0
07F81FE0
07F81FE0
07F83FE0
03FC3FC0
03FC3FC0
03FC3FC0
01FE7F80
01FE7F80
01FE7F80
00FE7F00
00FFFF00
00FFFF00
007FFE00
007FFE00
007FFE00
003FFC00
003FFC00
003FFC00
001FF800
001FF800
001FF800
ENDCHAR
STARTCHAR W
ENCODING 87
SWIDTH 869 0
DWIDTH 42 0
BBX 40 34 1 0
BITMAP
FF00FF00FF
FF00FF00FF
FF00FF00FF
FF00FF01FE
7F81FF01FE
7F81FF81FE
7F81FF81FE
7F81FF81FE
7F81FF83FC
3FC3FFC3FC
3FC3FFC3FC
3FC3FFC3FC
3FC3FFC3FC
1FC7FFC3F8
1FC7FFE7F8
1FE7FFE7F8
1FE7EFE7F8
1FE7E7E7F0
0FEFE7F7F0
0FEFE7FFF0
0FFFE7FFF0
0FFFC7FFF0
0FFFC3FFE0
07FFC3FFE0
07FFC3FFE0
07FF83FFE0
07FF81FFE0
07FF81FFC0
03FF81FFC0
03FF01FFC0
03FF00FFC0
03FF00FFC0
01FF00FF80
01FF00FF80
ENDCHAR
STARTCHAR X
ENCODING 88
SWIDTH 638 0
DWIDTH 31 0
BBX 31 34 0 0
BITMAP
FFC007FC
7FC00FF8
3FE00FF8
3FE01FF0
1FF01FF0
1FF03FE0
0FF83FE0
07F87FC0
07FC7F80
03FCFF80
03FEFF00
01FFFF00
01FFFE00
00FFFE00
007FFC00
007FFC00
003FF800
007FF800
007FFC00
00FFFC00
00FFFE00
01FFFE00
01FFFF00
03FEFF80
07FCFF80
07FC7FC0
0FF87FC0
0FF83FE0
1FF03FE0
1FF01FF0
3FE01FF8
3FE00FF8
7FC00FFC
FFC007FE
ENDCHAR
STARTCHAR Y
ENCODING 89
SWIDTH 627 0
DWIDTH 30 0
BBX 30 34 0 0
BITMAP
FF8007FC
7F8007F8
7FC00FF8
3FC00FF0
3FE01FF0
1FE01FE0
1FF01FE0
0FF03FC0
0FF03FC0
07F87F80
07F87F80
03FCFF00
03FCFF00
01FEFE00
01FFFE00
00FFFC00
00FFFC00
007FF800
007FF800
003FF000
003FF000
001FE000
001FE000
001FE000
001FE000
001FE000
001FE000
001FE000
001FE000
001FE000
001FE000
001FE000
001FE000
001FE000
ENDCHAR
STARTCHAR Z
ENCODING 90
SWIDTH 609 0
DWIDTH 29 0
BBX 27 34 1 0
BITMAP
FFFFFFE0
FFFFFFE0
FFFFFFE0
FFFFFFE0
FFFFFFE0
FFFFFFC0
0000FF80
0000FF80
0001FF00
0003FE00
0003FE00
0007FC00
000FF800
000FF800
001FF000
003FE000
003FE000
007FC000
00FF8000
00FF8000
01FF0000
03FE0000
03FE0000
07FC0000
0FF80000
0FF80000
1FF00000
3FE00000
7FFFFFE0
7FFFFFE0
7FFFFFE0
7FFFFFE0
7FFFFFE0
7FFFFFE0
ENDCHAR
STARTCHAR bracketleft
ENCODING 91
SWIDTH 281 0
DWIDTH 14 0
BBX 10 48 3 -8
BITMAP
FFC0
FFC0
FFC0
FFC0
FFC0
FFC0
FE00
FE00
FE00
FE00
FE00
FE00
FE00
FE00
FE00
FE00
FE00
FE00
FE00
FE00
FE00
FE00
FE00
FE00
FE00
FE00
FE00
FE00
FE00
FE00
FE00
FE00
FE00
FE00
FE00
FE00
FE00
FE00
FE00
FE00
FE00
FE00
FFC0
FFC0
FFC0
FFC0
FFC0
FFC0
ENDCHAR
STARTCHAR backslash
ENCODING 92
SWIDTH 426 0
DWIDTH 20 0
BBX 22 37 0 -3
BITMAP
FF0000
FF0000
FF8000
7F8000
7FC000
3FC000
3FC000
3FE000
1FE000
1FE000
0FF000
0FF000
0FF800
07F800
07F800
07FC00
03FC00
03FE00
01FE00
01FE00
01FF00
00FF00
00FF00
007F80
007F80
007FC0
003FC0
003FC0
003FE0
001FE0
001FF0
000FF0
000FF0
000FF8
0007F8
0007F8
0003FC
ENDCHAR
STARTCHAR bracketright
ENCODING 93
SWIDTH 281 0
DWIDTH 14 0
BBX 11 48 0 -8
BITMAP
FFE0
FFE0
FFE0
FFE0
FFE0
FFE0
1FE0
1FE0
1FE0
1FE0
1FE0
1FE0
1FE0
1FE0
1FE0
1FE0
1FE0
1FE0
1FE0
1FE0
1FE0
1FE0
1FE0
1FE0
1FE0
1FE0
1FE0
1FE0
1FE0
1FE0
1FE0
1FE0
1FE0
1FE0
1FE0
1FE0
1FE0
1FE0
1FE0
1FE0
1FE0
1FE0
FFE0
FFE0
FFE0
FFE0
FFE0
FFE0
ENDCHAR
STARTCHAR asciicircum
ENCODING 94
SWIDTH 447 0
DWIDTH 21 0
BBX 19 17 1 17
BITMAP
03F800
03F800
03F800
07FC00
07FC00
0FFE00
0FFE00
0FBF00
1FBF00
1F1F00
3F1F80
3F1F80
7E0FC0
7E0FC0
7E07C0
FC07E0
FC07E0
ENDCHAR
STARTCHAR underscore
ENCODING 95
SWIDTH 441 0
DWIDTH 21 0
BBX 21 6 0 -6
BITMAP
FFFFF8
FFFFF8
FFFFF8
FFFFF8
FFFFF8
FFFFF8
ENDCHAR
STARTCHAR grave
ENCODING 96
SWIDTH 339 0
DWIDTH 16 0
BBX 13 7 1 29
BITMAP
FF80
3FC0
1FC0
0FE0
0FF0
07F8
03F8
ENDCHAR
STARTCHAR a
ENCODING 97
SWIDTH 530 0
DWIDTH 25 0
BBX 23 26 1 0
BITMAP
00FF00
07FFC0
1FFFF0
3FFFF8
3FFFF8
7FC7FC
7F83FC
7F83FC
0003FC
0003FC
01FFFC
0FFFFC
1FFFFC
3FFFFC
7FFFFC
FFC3FC
FF83FC
FF03FC
FF03FC
FF03FC
FF87FC
7FFFFC
7FFFFC
3FFFFE
1FFDFE
07F1FE
ENDCHAR
STARTCHAR b
ENCODING 98
SWIDTH 562 0
DWIDTH 27 0
BBX 24 36 2 0
BITMAP
FF0000
FF0000
FF0000
FF0000
FF0000
FF0000
FF0000
FF0000
FF0000
FF0000
FF1F80
FF7FE0
FFFFF0
FFFFF8
FFFFFC
FFFFFC
FFC3FE
FF01FE
FF01FE
FF00FF
FF00FF
FF00FF
FF00FF
FF00FF
FF00FF
FF00FF
FF00FF
FF01FE
FF01FE
FFC3FE
FFFFFC
FFFFFC
FFFFF8
FFFFF0
FF7FE0
FE1F80
ENDCHAR
STARTCHAR c
ENCODING 99
SWIDTH 519 0
DWIDTH 25 0
BBX 23 26 1 0
BITMAP
00FF00
03FFC0
0FFFF0
1FFFF8
1FFFF8
3FFFFC
7FC3FC
7F81FE
7F81FE
7F01FE
FF0000
FF0000
FF0000
FF0000
FF0000
FF0000
7F0000
7F81FE
7F81FE
7FC3FC
3FFFFC
1FFFFC
1FFFF8
0FFFF0
03FFC0
00FF00
ENDCHAR
STARTCHAR d
ENCODING 100
SWIDTH 562 0
DWIDTH 27 0
BBX 24 36 1 0
BITMAP
0000FF
0000FF
0000FF
0000FF
0000FF
0000FF
0000FF
0000FF
0000FF
0000FF
01F8FF
07FEFF
0FFFFF
1FFFFF
3FFFFF
3FFFFF
7FC3FF
7F81FF
7F80FF
FF00FF
FF00FF
FF00FF
FF00FF
FF00FF
FF00FF
FF00FF
FF00FF
7F80FF
7F81FF
7FC3FF
3FFFFF
3FFFFF
1FFFFF
0FFFFF
07FEFF
01F87F
ENDCHAR
STARTCHAR e
ENCODING 101
SWIDTH 544 0
DWIDTH 26 0
BBX 24 26 1 0
BITMAP
007F00
03FFE0
07FFF0
0FFFF8
1FFFFC
3FFFFE
3FE1FE
7FC0FE
7F80FF
7F80FF
7F80FF
FFFFFF
FFFFFF
FFFFFF
FFFFFF
7FFFFF
7F8000
7F8000
7FC018
3FE078
3FFFFC
1FFFFE
0FFFFF
07FFFC
01FFF0
007FC0
ENDCHAR
STARTCHAR f
ENCODING 102
SWIDTH 362 0
DWIDTH 17 0
BBX 17 37 0 0
BITMAP
003F80
01FF80
03FF80
07FF80
07FF80
0FFF80
0FF800
0FF000
0FF000
0FF000
0FF000
FFFF80
FFFF80
FFFF80
FFFF80
FFFF80
0FF000
0FF000
0FF000
0FF000
0FF000
0FF000
0FF000
0FF000
0FF000
0FF000
0FF000
0FF000
0FF000
0FF000
0FF000
0FF000
0FF000
0FF000
0FF000
0FF000
0FF000
ENDCHAR
STARTCHAR g
ENCODING 103
SWIDTH 575 0
DWIDTH 28 0
BBX 25 36 1 -10
BITMAP
00FC7F80
03FF7F80
0FFFFF80
1FFFFF80
1FFFFF80
3FFFFF80
3FE1FF80
7FC0FF80
7F807F80
7F807F80
7F807F80
FF007F80
FF007F80
FF007F80
7F007F80
7F807F80
7F807F80
7F807F80
7FC0FF80
3FE1FF80
3FFFFF80
1FFFFF80
1FFFFF80
0FFFFF80
07FE7F80
00FCFF80
0000FF00
0400FF00
0601FF00
0F83FF00
1FFFFE00
1FFFFC00
3FFFFC00
0FFFF000
07FFE000
00FF0000
ENDCHAR
STARTCHAR h
ENCODING 104
SWIDTH 564 0
DWIDTH 27 0
BBX 23 36 2 0
BITMAP
FF0000
FF0000
FF0000
FF0000
FF0000
FF0000
FF0000
FF0000
FF0000
FF0000
FF0FC0
FF3FF0
FFFFF8
FFFFF8
FFFFFC
FFFFFC
FF83FE
FF03FE
FF01FE
FF01FE
FF01FE
FF01FE
FF01FE
FF01FE
FF01FE
FF01FE
FF01FE
FF01FE
FF01FE
FF01FE
FF01FE
FF01FE
FF01FE
FF01FE
FF01FE
FF01FE
ENDCHAR
STARTCHAR i
ENCODING 105
SWIDTH 274 0
DWIDTH 13 0
BBX 9 37 2 0
BITMAP
3E00
7F00
FF80
FF80
FF80
FF80
7F00
3E00
0000
0000
0000
FF00
FF00
FF00
FF00
FF00
FF00
FF00
FF00
FF00
FF00
FF00
FF00
FF00
FF00
FF00
FF00
FF00
FF00
FF00
FF00
FF00
FF00
FF00
FF00
FF00
FF00
ENDCHAR
STARTCHAR j
ENCODING 106
SWIDTH 270 0
DWIDTH 13 0
BBX 14 47 -3 -10
BITMAP
01F0
03F8
07FC
07FC
07FC
07FC
03F8
01F0
0000
0000
0000
03FC
03FC
03FC
03FC
03FC
03FC
03FC
03FC
03FC
03FC
03FC
03FC
03FC
03FC
03FC
03FC
03FC
03FC
03FC
03FC
03FC
03FC
03FC
03FC
03FC
03FC
03FC
03FC
07FC
07F8
FFF8
FFF8
FFF0
FFE0
FFC0
FF00
ENDCHAR
STARTCHAR k
ENCODING 107
SWIDTH 546 0
DWIDTH 26 0
BBX 25 36 2 0
BITMAP
FF000000
FF000000
FF000000
FF000000
FF000000
FF000000
FF000000
FF000000
FF000000
FF000000
FF01FF00
FF03FE00
FF07FC00
FF0FF800
FF1FF800
FF1FF000
FF3FE000
FF7FC000
FFFF8000
FFFF8000
FFFF0000
FFFF0000
FFFF8000
FFFF8000
FFFFC000
FFFFE000
FFDFE000
FF9FF000
FF0FF000
FF0FF800
FF07FC00
FF07FC00
FF03FE00
FF01FE00
FF01FF00
FF00FF80
ENDCHAR
STARTCHAR l
ENCODING 108
SWIDTH 274 0
DWIDTH 13 0
BBX 8 36 3 0
BITMAP
FF
FF
FF
FF
FF
FF
FF
FF
FF
FF
FF
FF
FF
FF
FF
FF
FF
FF
FF
FF
FF
FF
FF
FF
FF
FF
FF
FF
FF
FF
FF
FF
FF
FF
FF
FF
ENDCHAR
STARTCHAR m
ENCODING 109
SWIDTH 861 0
DWIDTH 41 0
BBX 37 26 2 0
BITMAP
FF0FC03F00
FF3FF0FFC0
FF7FF9FFE0
FFFFFBFFF0
FFFFFFFFF0
FFFFFFFFF0
FFC7FF0FF8
FF03FE07F8
FF03FC07F8
FF03FC07F8
FF03FC07F8
FF03FC07F8
FF03FC07F8
FF03FC07F8
FF03FC07F8
FF03FC07F8
FF03FC07F8
FF03FC07F8
FF03FC07F8
FF03FC07F8
FF03FC07F8
FF03FC07F8
FF03FC07F8
FF03FC07F8
FF03FC07F8
FF03FC07F8
ENDCHAR
STARTCHAR n
ENCODING 110
SWIDTH 563 0
DWIDTH 27 0
BBX 23 26 2 0
BITMAP
FE0FC0
FF7FF0
FFFFF8
FFFFFC
FFFFFC
FFFFFC
FF83FE
FF01FE
FF01FE
FF01FE
FF01FE
FF01FE
FF01FE
FF01FE
FF01FE
FF01FE
FF01FE
FF01FE
FF01FE
FF01FE
FF01FE
FF01FE
FF01FE
FF01FE
FF01FE
FF01FE
ENDCHAR
STARTCHAR o
ENCODING 111
SWIDTH 561 0
DWIDTH 27 0
BBX 25 26 1 0
BITMAP
007F0000
03FFE000
07FFF000
1FFFF800
1FFFFC00
3FFFFE00
7FC3FE00
7F80FF00
7F80FF00
7F00FF00
FF007F80
FF007F80
FF007F80
FF007F80
FF007F80
FF007F80
7F00FF00
7F80FF00
7F80FF00
7FC1FE00
3FFFFE00
1FFFFC00
1FFFF800
07FFF000
03FFE000
00FF8000
ENDCHAR
STARTCHAR p
ENCODING 112
SWIDTH 562 0
DWIDTH 27 0
BBX 24 36 2 -10
BITMAP
FF1F80
FF7FE0
FFFFF0
FFFFF8
FFFFFC
FFFFFC
FFC3FE
FF01FE
FF01FE
FF00FF
FF00FF
FF00FF
FF00FF
FF00FF
FF00FF
FF00FF
FF00FE
FF01FE
FF81FE
FFC3FE
FFFFFC
FFFFFC
FFFFF8
FFFFF0
FF7FE0
FF1F80
FF0000
FF0000
FF0000
FF0000
FF0000
FF0000
FF0000
FF0000
FF0000
FF0000
ENDCHAR
STARTCHAR q
ENCODING 113
SWIDTH 562 0
DWIDTH 27 0
BBX 24 36 1 -10
BITMAP
01F87F
07FE7F
0FFFFF
1FFFFF
3FFFFF
3FFFFF
7FC3FF
7F80FF
7F80FF
FF00FF
FF00FF
FF00FF
FF00FF
FF00FF
FF00FF
FF00FF
FF00FF
7F80FF
7F81FF
7FC3FF
3FFFFF
3FFFFF
1FFFFF
0FFFFF
07FEFF
01F8FF
0000FF
0000FF
0000FF
0000FF
0000FF
0000FF
0000FF
0000FF
0000FF
0000FF
ENDCHAR
STARTCHAR r
ENCODING 114
SWIDTH 378 0
DWIDTH 18 0
BBX 16 26 2 0
BITMAP
FF1F
FF7F
FFFF
FFFF
FFFF
FFFF
FFFE
FFC0
FF80
FF00
FF00
FF00
FF00
FF00
FF00
FF00
FF00
FF00
FF00
FF00
FF00
FF00
FF00
FF00
FF00
FF00
ENDCHAR
STARTCHAR s
ENCODING 115
SWIDTH 512 0
DWIDTH 25 0
BBX 22 26 1 0
BITMAP
01FF00
07FFC0
1FFFF0
3FFFF8
3FFFF8
7F87FC
7F83FC
7F03FC
7F8000
7FC000
7FFC00
3FFF80
1FFFE0
0FFFF0
03FFF8
007FFC
0007FC
0003FC
FF01FC
FF01FC
7F83FC
7FFFF8
3FFFF8
1FFFF0
07FFC0
01FE00
ENDCHAR
STARTCHAR t
ENCODING 116
SWIDTH 343 0
DWIDTH 16 0
BBX 16 32 0 0
BITMAP
1FE0
1FE0
1FE0
1FE0
1FE0
1FE0
FFFE
FFFE
FFFE
FFFE
FFFE
1FE0
1FE0
1FE0
1FE0
1FE0
1FE0
1FE0
1FE0
1FE0
1FE0
1FE0
1FE0
1FE0
1FE0
1FF0
0FFF
0FFF
0FFF
07FF
03FF
00FE
ENDCHAR
STARTCHAR u
ENCODING 117
SWIDTH 563 0
DWIDTH 27 0
BBX 23 26 2 0
BITMAP
FF01FE
FF01FE
FF01FE
FF01FE
FF01FE
FF01FE
FF01FE
FF01FE
FF01FE
FF01FE
FF01FE
FF01FE
FF01FE
FF01FE
FF01FE
FF01FE
FF01FE
FF01FE
FF01FE
FF87FE
7FFFFE
7FFFFE
7FFFFE
3FFFFE
1FF9FE
07F1FE
ENDCHAR
STARTCHAR v
ENCODING 118
SWIDTH 516 0
DWIDTH 25 0
BBX 25 26 0 0
BITMAP
FF80FF80
7F80FF00
7F80FF00
7F80FF00
3FC1FE00
3FC1FE00
3FC1FE00
1FC1FC00
1FE3FC00
1FE3FC00
1FE3F800
0FE3F800
0FE7F800
0FF7F000
07F7F000
07F7F000
07FFF000
03FFE000
03FFE000
03FFE000
01FFC000
01FFC000
01FFC000
00FF8000
00FF8000
00FF8000
ENDCHAR
STARTCHAR w
ENCODING 119
SWIDTH 726 0
DWIDTH 35 0
BBX 33 26 1 0
BITMAP
FE03E03F80
FE07F07F80
FF07F07F80
FF07F07F80
7F07F07F00
7F0FF87F00
7F0FF87F00
7F0FF8FF00
3F8FF8FE00
3F9FFCFE00
3F9FFCFE00
3F9F7CFE00
3FBF7CFC00
1FBF7FFC00
1FBE3FFC00
1FFE3FFC00
1FFE3FFC00
0FFE3FF800
0FFC1FF800
0FFC1FF800
0FFC1FF800
07F81FF000
07F80FF000
07F80FF000
07F80FF000
07F007E000
ENDCHAR
STARTCHAR x
ENCODING 120
SWIDTH 514 0
DWIDTH 25 0
BBX 25 26 0 0
BITMAP
7F80FF00
7FC1FF00
3FC1FE00
3FE3FE00
1FE3FC00
0FF7F800
0FF7F800
07FFF000
07FFF000
03FFE000
03FFE000
01FFC000
01FFC000
01FFC000
03FFE000
03FFE000
07FFF000
07FFF000
0FF7F800
0FF7F800
1FE3FC00
1FE3FC00
3FC1FE00
3FC1FE00
7F80FF00
FF80FF80
ENDCHAR
STARTCHAR y
ENCODING 121
SWIDTH 518 0
DWIDTH 25 0
BBX 25 36 0 -10
BITMAP
FF80FF80
FF80FF80
7F80FF00
7F80FF00
7FC1FF00
3FC1FE00
3FC1FE00
3FC3FE00
1FE3FC00
1FE3FC00
0FE3F800
0FF7F800
0FF7F800
07F7F000
07FFF000
07FFF000
03FFE000
03FFE000
03FFE000
01FFC000
01FFC000
01FFC000
00FF8000
00FF8000
00FF8000
007F0000
007F0000
00FF0000
00FE0000
01FE0000
1FFE0000
1FFC0000
1FF80000
1FF80000
1FF00000
1FC00000
ENDCHAR
STARTCHAR z
ENCODING 122
SWIDTH 514 0
DWIDTH 25 0
BBX 21 26 2 0
BITMAP
FFFFF8
FFFFF8
FFFFF8
FFFFF8
FFFFF8
FFFFF0
003FE0
003FC0
007FC0
00FF80
00FF00
01FF00
03FE00
07FC00
07F800
0FF800
1FF000
1FE000
3FE000
7FC000
FFFFF8
FFFFF8
FFFFF8
FFFFF8
FFFFF8
FFFFF8
ENDCHAR
STARTCHAR braceleft
ENCODING 123
SWIDTH 324 0
DWIDTH 16 0
BBX 14 45 1 -8
BITMAP
0018
0078
01F8
03FC
03F8
07F0
07E0
0FE0
0FE0
0FE0
0FE0
0FE0
0FE0
0FE0
0FE0
0FE0
0FE0
0FE0
1FC0
3FC0
FF80
FF00
FC00
FF00
FF80
3FC0
1FC0
0FE0
0FE0
0FE0
0FE0
0FE0
0FE0
0FE0
0FE0
0FE0
0FE0
0FE0
07E0
07F0
03F8
03FC
01F8
0078
0018
ENDCHAR
STARTCHAR bar
ENCODING 124
SWIDTH 255 0
DWIDTH 12 0
BBX 4 40 4 -6
BITMAP
F0
F0
F0
F0
F0
F0
F0
F0
F0
F0
F0
F0
F0
F0
F0
F0
F0
F0
F0
F0
F0
F0
F0
F0
F0
F0
F0
F0
F0
F0
F0
F0
F0
F0
F0
F0
F0
F0
F0
F0
ENDCHAR
STARTCHAR braceright
ENCODING 125
SWIDTH 324 0
DWIDTH 16 0
BBX 14 45 1 -8
BITMAP
6000
7800
7E00
FF00
7F00
3F80
1F80
1FC0
1FC0
1FC0
1FC0
1FC0
1FC0
1FC0
1FC0
1FC0
1FC0
1FC0
0FE0
0FF0
07FC
03FC
00FC
03FC
07FC
0FF0
0FE0
1FC0
1FC0
1FC0
1FC0
1FC0
1FC0
1FC0
1FC0
1FC0
1FC0
1FC0
1F80
3F80
7F00
FF00
7E00
7800
6000
ENDCHAR
STARTCHAR asciitilde
ENCODING 126
SWIDTH 632 0
DWIDTH 30 0
BBX 26 11 2 9
BITMAP
07E00000
1FF00FC0
3FFC0FC0
3FFE0FC0
7FFF1F80
7FFFFF80
FE3FFF80
FC1FFF00
FC0FFF00
FC03FC00
0001F800
ENDCHAR
STARTCHAR uni00A0
ENCODING 160
SWIDTH 249 0
DWIDTH 12 0
BBX 1 1 0 0
BITMAP
00
ENDCHAR
STARTCHAR exclamdown
ENCODING 161
SWIDTH 300 0
DWIDTH 14 0
BBX 8 34 3 -8
BITMAP
3C
7E
FF
FF
FF
FF
7E
3C
00
00
00
7E
7E
7E
7E
7E
7F
7F
7F
FF
FF
FF
FF
FF
FF
FF
FF
FF
FF
FF
FF
FF
FF
FF
ENDCHAR
STARTCHAR cent
ENCODING 162
SWIDTH 590 0
DWIDTH 28 0
BBX 23 36 2 -5
BITMAP
003C00
003C00
003C00
003C00
003C00
00FF00
07FFC0
0FFFF0
1FFFF8
3FFFF8
3FFFFC
7FC3FC
7F81FC
7F01FE
FF01FE
FF0000
FF0000
FF0000
FF0000
FF0000
FF0000
FF0000
7F01FE
7F81FE
7FC3FC
3FFFFC
3FFFF8
1FFFF8
0FFFF0
07FFC0
01FF00
003C00
003C00
003C00
003C00
003C00
ENDCHAR
STARTCHAR sterling
ENCODING 163
SWIDTH 600 0
DWIDTH 29 0
BBX 26 34 2 0
BITMAP
001FE000
00FFF800
01FFFE00
03FFFF00
07FFFF00
07FFFF80
0FF87F80
0FF87F80
0FF03FC0
0FF03FC0
0FF00000
0FF00000
0FF00000
0FF00000
0FF00000
FFFFF000
FFFFF000
FFFFF000
FFFFF000
FFFFF000
FFFFF000
0FF80000
0FF80000
0FF80000
0FF80000
0FF00000
0FF00000
0FF00000
FFFFFFC0
FFFFFFC0
FFFFFFC0
FFFFFFC0
FFFFFFC0
FFFFFFC0
ENDCHAR
STARTCHAR currency
ENCODING 164
SWIDTH 682 0
DWIDTH 33 0
BBX 29 30 2 0
BITMAP
20000040
301FC060
78FFF8F0
FDFFFDF8
7FFFFFF8
3FFFFFF0
1FE03FE0
1F800FC0
3F0007E0
3E0003E0
7C0001F0
7C0001F0
780000F0
780000F0
780000F0
780000F0
780000F0
780000F0
780000F0
7C0001F0
7C0001F0
3E0003E0
3F0007E0
1F800FC0
3FE03FE0
7FFFFFF0
FFFFFFF8
FDFFFDF8
78FFF8F0
301FC060
ENDCHAR
STARTCHAR yen
ENCODING 165
SWIDTH 541 0
DWIDTH 26 0
BBX 26 34 0 0
BITMAP
FF807FC0
7F807F80
7FC0FF80
3FC0FF00
3FC0FF00
1FE1FE00
1FE1FE00
0FE1FC00
0FF3FC00
07F3FC00
07F3F800
07FFF800
03FFF000
03FFF000
01FFE000
01FFE000
3FFFFE00
3FFFFE00
3FFFFE00
3FFFFE00
3FFFFE00
007F8000
007F8000
3FFFFE00
3FFFFE00
3FFFFE00
3FFFFE00
3FFFFE00
007F8000
007F8000
007F8000
007F8000
007F8000
007F8000
ENDCHAR
STARTCHAR brokenbar
ENCODING 166
SWIDTH 255 0
DWIDTH 12 0
BBX 7 40 3 -6
BITMAP
FE
FE
FE
FE
FE
FE
FE
FE
FE
FE
FE
FE
FE
FE
FE
FE
FE
FE
00
00
00
00
FE
FE
FE
FE
FE
FE
FE
FE
FE
FE
FE
FE
FE
FE
FE
FE
FE
FE
ENDCHAR
STARTCHAR section
ENCODING 167
SWIDTH 635 0
DWIDTH 31 0
BBX 26 44 2 -10
BITMAP
007FC000
03FFF800
0FFFFC00
1FFFFE00
3FFFFF00
3FFFFF80
7FE0FF80
7F807FC0
7F803FC0
7F803FC0
7F800000
7FC00000
3FF80000
3FFF8000
1FFFF000
0FFFFC00
1FFFFE00
3FFFFF80
7F9FFF80
7F83FFC0
7F00FFC0
FF003FC0
FF803FC0
7FC03FC0
7FF03FC0
7FFE3FC0
3FFFFF80
1FFFFF00
07FFFE00
01FFFF00
007FFF80
0007FF80
0000FF80
00007FC0
FF003FC0
7F803FC0
7F803FC0
7FC0FFC0
7FFFFF80
3FFFFF80
1FFFFF00
0FFFFE00
07FFF800
007FC000
ENDCHAR
STARTCHAR dieresis
ENCODING 168
SWIDTH 494 0
DWIDTH 24 0
BBX 19 6 2 29
BITMAP
3C03C0
7E07E0
FE0FE0
FE0FE0
7E07E0
3C03C0
ENDCHAR
STARTCHAR copyright
ENCODING 169
SWIDTH 785 0
DWIDTH 38 0
BBX 33 34 2 0
BITMAP
0007F80000
003FFF0000
00FFFFC000
01F80FE000
07E001F000
0F80007800
0F00003C00
1E07F01E00
3C0FFC0E00
383FFE0F00
783C1F0700
70780F0780
70780F0380
E0F0070380
E0F0000380
E0F0000380
E0F0000180
E0F0000380
E0F0000380
E0F0000380
E0F0070380
70780F0380
70780F0780
783C1F0700
383FFE0F00
3C1FFC0E00
1E07F01E00
0F00003C00
0F80007800
07C001F000
01F807E000
00FFFFC000
003FFF0000
0007F80000
ENDCHAR
STARTCHAR ordfeminine
ENCODING 170
SWIDTH 441 0
DWIDTH 21 0
BBX 15 18 3 16
BITMAP
0FE0
3FF0
7FF8
7FFC
F83C
003C
003E
0FFE
3FFE
7FFE
F83E
F03E
F03E
F87E
FFFE
7FFE
3FDE
1F9E
ENDCHAR
STARTCHAR guillemotleft
ENCODING 171
SWIDTH 514 0
DWIDTH 25 0
BBX 20 18 2 3
BITMAP
03E1F0
07C3F0
0F83E0
1F87C0
1F0FC0
3E0F80
7E1F80
FC3F00
FC7E00
FC7E00
FC3F00
7E1F00
3E0F80
1F0FC0
1F87C0
0F83E0
07C3F0
03E1F0
ENDCHAR
STARTCHAR logicalnot
ENCODING 172
SWIDTH 548 0
DWIDTH 26 0
BBX 19 10 3 9
BITMAP
FFFFE0
FFFFE0
FFFFE0
FFFFE0
0001E0
0001E0
0001E0
0001E0
0001E0
0001E0
ENDCHAR
STARTCHAR uni00AD
ENCODING 173
SWIDTH 449 0
DWIDTH 22 0
BBX 14 6 4 12
BITMAP
FFFC
FFFC
FFFC
FFFC
FFFC
FFFC
ENDCHAR
STARTCHAR registered
ENCODING 174
SWIDTH 785 0
DWIDTH 38 0
BBX 33 34 2 0
BITMAP
0007F80000
003FFF0000
00FFFFC000
01F80FE000
07E001F000
0F80007800
0F00003C00
1E3FF01E00
3C3FFC0E00
383FFE0F00
78381F0700
70380F0780
7038070380
E0380F0380
E0381F0380
E03FFE0380
E03FFC0180
E03FFE0180
E0381F0380
E0380F0380
E0380F0380
70380F0380
70380F0780
78380F0700
3838070F00
3C38070E00
1E00001E00
0F00003C00
0F80007800
07C001F000
01F807E000
00FFFFC000
003FFF0000
0007F80000
ENDCHAR
STARTCHAR macron
ENCODING 175
SWIDTH 520 0
DWIDTH 25 0
BBX 17 4 4 30
BITMAP
FFFF80
FFFF80
FFFF80
FFFF80
ENDCHAR
STARTCHAR degree
ENCODING 176
SWIDTH 396 0
DWIDTH 19 0
BBX 13 13 3 21
BITMAP
0F80
3FE0
7FF0
7FF0
F8F8
F078
F078
F078
F8F8
7FF0
7FF0
3FE0
0F80
ENDCHAR
STARTCHAR plusminus
ENCODING 177
SWIDTH 538 0
DWIDTH 26 0
BBX 21 30 2 0
BITMAP
01FC00
01FC00
01FC00
01FC00
01FC00
01FC00
01FC00
FFFFF8
FFFFF8
FFFFF8
FFFFF8
FFFFF8
FFFFF8
01FC00
01FC00
01FC00
01FC00
01FC00
01FC00
01FC00
01FC00
01FC00
000000
000000
FFFFF8
FFFFF8
FFFFF8
FFFFF8
FFFFF8
FFFFF8
ENDCHAR
STARTCHAR uni00B2
ENCODING 178
SWIDTH 375 0
DWIDTH 18 0
BBX 15 19 1 15
BITMAP
0FE0
1FF8
3FFC
7FFC
7C7E
FC3E
F87E
007E
00FC
01FC
03F8
07F0
0FE0
1F80
3F00
7FFE
7FFE
7FFE
7FFE
ENDCHAR
STARTCHAR uni00B3
ENCODING 179
SWIDTH 375 0
DWIDTH 18 0
BBX 16 19 1 15
BITMAP
0FE0
3FF8
7FFC
7FFE
FC7E
003E
007E
07FC
07F0
07FC
007E
003E
F83F
FC3F
FC7E
7FFE
7FFC
3FF8
0FE0
ENDCHAR
STARTCHAR acute
ENCODING 180
SWIDTH 337 0
DWIDTH 16 0
BBX 13 7 2 29
BITMAP
0FF8
0FF0
1FE0
3FC0
3F80
7F00
FE00
ENDCHAR
STARTCHAR mu
ENCODING 181
SWIDTH 641 0
DWIDTH 31 0
BBX 24 36 3 -10
BITMAP
FF00FF
FF00FF
FF00FF
FF00FF
FF00FF
FF00FF
FF00FF
FF00FF
FF00FF
FF00FF
FF00FF
FF00FF
FF00FF
FF00FF
FF00FF
FF00FF
FF00FF
FF00FF
FF80FF
FFC3FF
FFFFFF
FFFFFF
FFFFFF
FFFFFF
FFFF7F
FF7C7F
FF0000
FF0000
FF0000
FF0000
FF0000
FF0000
FF0000
FF0000
FF0000
FF0000
ENDCHAR
STARTCHAR paragraph
ENCODING 182
SWIDTH 488 0
DWIDTH 23 0
BBX 18 34 2 0
BITMAP
01FFC0
07FFC0
1FFFC0
3FFFC0
7FFFC0
7FFFC0
FFFFC0
FFFFC0
FFFFC0
FFFFC0
FFFFC0
FFFFC0
FFFFC0
FFFFC0
FFFFC0
FFFFC0
7FFFC0
3FFFC0
3FFFC0
1FFFC0
07FFC0
00FFC0
0007C0
0007C0
0007C0
0007C0
0007C0
0007C0
0007C0
0007C0
0007C0
0007C0
0007C0
0007C0
ENDCHAR
STARTCHAR periodcentered
ENCODING 183
SWIDTH 320 0
DWIDTH 15 0
BBX 9 8 3 12
BITMAP
3E00
7F00
FF80
FF80
FF80
FF80
7F00
3E00
ENDCHAR
STARTCHAR cedilla
ENCODING 184
SWIDTH 277 0
DWIDTH 13 0
BBX 10 11 2 -11
BITMAP
FE00
FE00
FF80
FF80
1FC0
1FC0
3FC0
7F80
7F80
7F00
7800
ENDCHAR
STARTCHAR uni00B9
ENCODING 185
SWIDTH 375 0
DWIDTH 18 0
BBX 10 19 3 15
BITMAP
00C0
07C0
3FC0
FFC0
FFC0
FFC0
EFC0
0FC0
0FC0
0FC0
0FC0
0FC0
0FC0
0FC0
0FC0
0FC0
0FC0
0FC0
0FC0
ENDCHAR
STARTCHAR ordmasculine
ENCODING 186
SWIDTH 458 0
DWIDTH 22 0
BBX 16 18 3 16
BITMAP
07E0
1FF8
3FFC
7FFE
FC3E
F81F
F00F
F00F
F00F
F00F
F00F
F00F
F81F
FC3E
7FFE
3FFC
1FF8
07E0
ENDCHAR
STARTCHAR guillemotright
ENCODING 187
SWIDTH 514 0
DWIDTH 25 0
BBX 21 18 2 3
BITMAP
F87E00
7C3E00
7C1F00
3E0F80
1F0FC0
1F87C0
0F87E0
0FC3F0
07E1F8
07E1F8
0FC3F0
0F87E0
1F87C0
1F0FC0
3E0F80
7E1F00
7C3E00
F87E00
ENDCHAR
STARTCHAR onequarter
ENCODING 188
SWIDTH 708 0
DWIDTH 34 0
BBX 29 34 3 0
BITMAP
01800000
0F800000
7F800000
FF800C00
FF800F00
FF801F80
CF801E00
0F803E00
0F807C00
0F807C00
0F80F800
0F81F000
0F81F000
0F83E000
0F87C000
0F87C3E0
0F8F87E0
0F8F0FE0
0F9F1FE0
003E1FE0
003E3FE0
007C7FE0
00F87BE0
00F8F3E0
01F1F3E0
03E1E3E0
03E3FFF8
07C3FFF8
0783FFF8
0F83FFF8
010003E0
000003E0
000003E0
000003E0
ENDCHAR
STARTCHAR onehalf
ENCODING 189
SWIDTH 750 0
DWIDTH 36 0
BBX 32 34 2 0
BITMAP
00800000
07800000
3F800000
FF800400
FF800F00
FF801F80
EF801F00
0F803E00
0F807C00
0F807C00
0F80F800
0F81F000
0F81F000
0F83E000
0F83C000
0F87C3F0
0F8F8FFC
0F8F9FFE
0F9F3FFF
003E3E3F
003E7E1F
007C7E1F
00F8003F
00F8007E
01F0007E
01E001FC
03E003F8
07C007F0
07800FC0
0F801F80
01003FFF
00003FFF
00003FFF
00003FFF
ENDCHAR
STARTCHAR threequarters
ENCODING 190
SWIDTH 824 0
DWIDTH 40 0
BBX 35 34 2 0
BITMAP
0FE0000000
3FF8000000
7FFC000000
7FFE002000
FC7E007800
003E00FC00
003E00F800
007E01F000
03FC01E000
03F003E000
03FC07C000
003E07C000
003E0F8000
F83F1F0000
FC3E1F0000
FFFE3E1F80
7FFE7C3F80
3FF87C3F80
0FE0F87F80
0000F0FF80
0001F0FF80
0003E1EF80
0003E3EF80
0007C3CF80
000F878F80
000F8F8F80
001F0FFFE0
003E1FFFE0
003E0FFFE0
007C0FFFE0
0008000F80
0000000F80
0000000F80
0000000F80
ENDCHAR
STARTCHAR questiondown
ENCODING 191
SWIDTH 509 0
DWIDTH 24 0
BBX 22 34 2 -8
BITMAP
007C00
00FE00
01FE00
01FF00
01FF00
01FE00
00FE00
007C00
000000
000000
000000
00FC00
00FC00
01FC00
01FC00
03FC00
07FC00
0FF800
1FF000
3FE000
7FC000
7F8000
FF0000
FF0000
FF03FC
FF03FC
FF07FC
FF8FF8
FFFFF8
7FFFF0
7FFFF0
3FFFE0
0FFF80
03FE00
ENDCHAR
STARTCHAR Agrave
ENCODING 192
SWIDTH 681 0
DWIDTH 33 0
BBX 33 43 0 0
BITMAP
01FF000000
007F800000
007F800000
003FC00000
001FE00000
000FE00000
0007F00000
0000000000
0000000000
000FF00000
000FF80000
000FF80000
001FF80000
001FFC0000
003FFC0000
003FFE0000
003FFE0000
007FFE0000
007FFF0000
007F7F0000
00FF7F0000
00FE7F8000
01FE3F8000
01FE3FC000
01FC3FC000
03FC1FC000
03FC1FE000
03F81FE000
07F80FE000
07F80FF000
07FFFFF000
0FFFFFF800
0FFFFFF800
1FFFFFF800
1FFFFFFC00
1FFFFFFC00
3FE003FC00
3FC003FE00
3FC001FE00
7FC001FF00
7F8001FF00
FF8000FF00
FF8000FF80
ENDCHAR
STARTCHAR Aacute
ENCODING 193
SWIDTH 681 0
DWIDTH 33 0
BBX 33 43 0 0
BITMAP
00007FC000
0000FF0000
0000FE0000
0001FE0000
0003FC0000
0007F80000
0007F00000
0000000000
0000000000
000FF00000
000FF80000
000FF80000
001FF80000
001FFC0000
003FFC0000
003FFE0000
003FFE0000
007FFE0000
007FFF0000
007F7F0000
00FF7F0000
00FE7F8000
01FE3F8000
01FE3FC000
01FC3FC000
03FC1FC000
03FC1FE000
03F81FE000
07F80FE000
07F80FF000
07FFFFF000
0FFFFFF800
0FFFFFF800
1FFFFFF800
1FFFFFFC00
1FFFFFFC00
3FE003FC00
3FC003FE00
3FC001FE00
7FC001FF00
7F8001FF00
FF8000FF00
FF8000FF80
ENDCHAR
STARTCHAR Acircumflex
ENCODING 194
SWIDTH 681 0
DWIDTH 33 0
BBX 33 43 0 0
BITMAP
0003E00000
000FF80000
001FFC0000
003FFE0000
007F7F0000
01FC3F8000
01F80FC000
0000000000
0000000000
000FF00000
000FF80000
000FF80000
001FF80000
001FFC0000
003FFC0000
003FFE0000
003FFE0000
007FFE0000
007FFF0000
007F7F0000
00FF7F0000
00FE7F8000
01FE3F8000
01FE3FC000
01FC3FC000
03FC1FC000
03FC1FE000
03F81FE000
07F80FE000
07F80FF000
07FFFFF000
0FFFFFF800
0FFFFFF800
1FFFFFF800
1FFFFFFC00
1FFFFFFC00
3FE003FC00
3FC003FE00
3FC001FE00
7FC001FF00
7F8001FF00
FF8000FF00
FF8000FF80
ENDCHAR
STARTCHAR Atilde
ENCODING 195
SWIDTH 681 0
DWIDTH 33 0
BBX 33 44 0 0
BITMAP
001E078000
007F8F8000
00FFFF8000
00FFFF8000
00FFFF0000
01F1FE0000
01F03C0000
0000000000
0000000000
0000000000
000FF00000
000FF80000
000FF80000
001FF80000
001FFC0000
003FFC0000
003FFE0000
003FFE0000
007FFE0000
007FFF0000
007F7F0000
00FF7F0000
00FE7F8000
01FE3F8000
01FE3FC000
01FC3FC000
03FC1FC000
03FC1FE000
03F81FE000
07F80FE000
07F80FF000
07FFFFF000
0FFFFFF800
0FFFFFF800
1FFFFFF800
1FFFFFFC00
1FFFFFFC00
3FE003FC00
3FC003FE00
3FC001FE00
7FC001FF00
7F8001FF00
FF8000FF00
FF8000FF80
ENDCHAR
STARTCHAR Adieresis
ENCODING 196
SWIDTH 681 0
DWIDTH 33 0
BBX 33 42 0 0
BITMAP
00F00F0000
01F81FC000
01FC1FC000
01FC1FC000
01F81FC000
00F00F0000
0000000000
0000000000
000FF00000
000FF80000
000FF80000
001FF80000
001FFC0000
003FFC0000
003FFE0000
003FFE0000
007FFE0000
007FFF0000
007F7F0000
00FF7F0000
00FE7F8000
01FE3F8000
01FE3FC000
01FC3FC000
03FC1FC000
03FC1FE000
03F81FE000
07F80FE000
07F80FF000
07FFFFF000
0FFFFFF800
0FFFFFF800
1FFFFFF800
1FFFFFFC00
1FFFFFFC00
3FE003FC00
3FC003FE00
3FC001FE00
7FC001FF00
7F8001FF00
FF8000FF00
FF8000FF80
ENDCHAR
STARTCHAR Aring
ENCODING 197
SWIDTH 681 0
DWIDTH 33 0
BBX 33 45 0 0
BITMAP
0003E00000
0007F00000
000E380000
001C1C0000
001C1C0000
001C1C0000
000E380000
0007F80000
0003E00000
0000000000
0000000000
000FF00000
000FF80000
000FF80000
001FF80000
001FFC0000
003FFC0000
003FFE0000
003FFE0000
007FFE0000
007FFF0000
007F7F0000
00FF7F0000
00FE7F8000
01FE3F8000
01FE3FC000
01FC3FC000
03FC1FC000
03FC1FE000
03F81FE000
07F80FE000
07F80FF000
07FFFFF000
0FFFFFF800
0FFFFFF800
1FFFFFF800
1FFFFFFC00
1FFFFFFC00
3FE003FC00
3FC003FE00
3FC001FE00
7FC001FF00
7F8001FF00
FF8000FF00
FF8000FF80
ENDCHAR
STARTCHAR AE
ENCODING 198
SWIDTH 940 0
DWIDTH 45 0
BBX 43 34 0 0
BITMAP
00007FFFFFC0
00007FFFFFC0
0000FFFFFFC0
0000FFFFFFC0
0001FFFFFFC0
0001FFFFFFC0
0003FFF80000
0003FFF80000
0007FFF80000
0007FFF80000
000FF7F80000
000FF7F80000
001FF7F80000
001FE3F80000
003FE3FFFF00
003FC3FFFF00
007FC3FFFF00
007F83FFFF00
00FF83FFFF00
00FF03FFFF00
01FFFFFC0000
01FFFFFC0000
03FFFFFC0000
03FFFFFC0000
07FFFFFC0000
07FFFFFC0000
0FF803FC0000
0FF003FC0000
1FF003FFFFE0
1FF003FFFFE0
3FE003FFFFE0
3FE003FFFFE0
7FC003FFFFE0
FFC003FFFFE0
ENDCHAR
STARTCHAR Ccedilla
ENCODING 199
SWIDTH 656 0
DWIDTH 32 0
BBX 29 45 2 -11
BITMAP
003FE000
00FFFC00
03FFFE00
07FFFF80
0FFFFFC0
1FFFFFC0
3FF07FE0
3FC01FE0
7FC00FF0
7F800FF0
7F800FF0
FF800FF0
FF000008
FF000000
FF000000
FF000000
FF000000
FF000000
FF000000
FF000000
FF000000
FF000000
FF800FF0
FF800FF0
7F800FF0
7FC00FF0
3FC01FF0
3FF07FE0
1FFFFFC0
1FFFFFC0
0FFFFF80
03FFFE00
01FFFC00
003FE000
001F8000
001F8000
003FE000
003FF000
0007F000
0007F000
0007F000
001FF000
001FE000
001FC000
001F0000
ENDCHAR
STARTCHAR Egrave
ENCODING 200
SWIDTH 559 0
DWIDTH 27 0
BBX 23 43 3 0
BITMAP
1FF000
0FF000
07F800
03FC00
01FC00
00FE00
007F00
000000
000000
FFFFFE
FFFFFE
FFFFFE
FFFFFE
FFFFFE
FFFFFE
FF0000
FF0000
FF0000
FF0000
FF0000
FF0000
FF0000
FFFFF8
FFFFF8
FFFFF8
FFFFF8
FFFFF8
FFFFF8
FF0000
FF0000
FF0000
FF0000
FF0000
FF0000
FF0000
FF0000
FF0000
FFFFFE
FFFFFE
FFFFFE
FFFFFE
FFFFFE
FFFFFE
ENDCHAR
STARTCHAR Eacute
ENCODING 201
SWIDTH 559 0
DWIDTH 27 0
BBX 23 43 3 0
BITMAP
0007F8
000FF0
001FE0
001FC0
003F80
007F00
00FE00
000000
000000
FFFFFE
FFFFFE
FFFFFE
FFFFFE
FFFFFE
FFFFFE
FF0000
FF0000
FF0000
FF0000
FF0000
FF0000
FF0000
FFFFF8
FFFFF8
FFFFF8
FFFFF8
FFFFF8
FFFFF8
FF0000
FF0000
FF0000
FF0000
FF0000
FF0000
FF0000
FF0000
FF0000
FFFFFE
FFFFFE
FFFFFE
FFFFFE
FFFFFE
FFFFFE
ENDCHAR
STARTCHAR Ecircumflex
ENCODING 202
SWIDTH 559 0
DWIDTH 27 0
BBX 23 43 3 0
BITMAP
007E00
00FF00
01FF80
07FFE0
0FE7F0
1FC3F8
3F81FC
000000
000000
FFFFFE
FFFFFE
FFFFFE
FFFFFE
FFFFFE
FFFFFE
FF0000
FF0000
FF0000
FF0000
FF0000
FF0000
FF0000
FFFFF8
FFFFF8
FFFFF8
FFFFF8
FFFFF8
FFFFF8
FF0000
FF0000
FF0000
FF0000
FF0000
FF0000
FF0000
FF0000
FF0000
FFFFFE
FFFFFE
FFFFFE
FFFFFE
FFFFFE
FFFFFE
ENDCHAR
STARTCHAR Edieresis
ENCODING 203
SWIDTH 559 0
DWIDTH 27 0
BBX 23 42 3 0
BITMAP
0F00F0
1F81F8
3F81FC
3FC1FC
1F81F8
0F00F0
000000
000000
FFFFFE
FFFFFE
FFFFFE
FFFFFE
FFFFFE
FFFFFE
FF0000
FF0000
FF0000
FF0000
FF0000
FF0000
FF0000
FFFFF8
FFFFF8
FFFFF8
FFFFF8
FFFFF8
FFFFF8
FF0000
FF0000
FF0000
FF0000
FF0000
FF0000
FF0000
FF0000
FF0000
FFFFFE
FFFFFE
FFFFFE
FFFFFE
FFFFFE
FFFFFE
ENDCHAR
STARTCHAR Igrave
ENCODING 204
SWIDTH 301 0
DWIDTH 14 0
BBX 13 43 -2 0
BITMAP
FF80
7F80
3FC0
1FE0
0FF0
07F0
03F8
0000
0000
07F8
07F8
07F8
07F8
07F8
07F8
07F8
07F8
07F8
07F8
07F8
07F8
07F8
07F8
07F8
07F8
07F8
07F8
07F8
07F8
07F8
07F8
07F8
07F8
07F8
07F8
07F8
07F8
07F8
07F8
07F8
07F8
07F8
07F8
ENDCHAR
STARTCHAR Iacute
ENCODING 205
SWIDTH 301 0
DWIDTH 14 0
BBX 14 43 3 0
BITMAP
07FC
0FF0
1FE0
1FC0
3F80
7F00
7F00
0000
0000
FF00
FF00
FF00
FF00
FF00
FF00
FF00
FF00
FF00
FF00
FF00
FF00
FF00
FF00
FF00
FF00
FF00
FF00
FF00
FF00
FF00
FF00
FF00
FF00
FF00
FF00
FF00
FF00
FF00
FF00
FF00
FF00
FF00
FF00
ENDCHAR
STARTCHAR Icircumflex
ENCODING 206
SWIDTH 301 0
DWIDTH 14 0
BBX 20 43 -3 0
BITMAP
01F800
03FC00
07FF00
0FFF80
3F9FC0
7F0FE0
FE07F0
000000
000000
03FC00
03FC00
03FC00
03FC00
03FC00
03FC00
03FC00
03FC00
03FC00
03FC00
03FC00
03FC00
03FC00
03FC00
03FC00
03FC00
03FC00
03FC00
03FC00
03FC00
03FC00
03FC00
03FC00
03FC00
03FC00
03FC00
03FC00
03FC00
03FC00
03FC00
03FC00
03FC00
03FC00
03FC00
ENDCHAR
STARTCHAR Idieresis
ENCODING 207
SWIDTH 301 0
DWIDTH 14 0
BBX 19 42 -2 0
BITMAP
780780
FC0FC0
FE0FE0
FE0FE0
FC0FC0
780780
000000
000000
07F800
07F800
07F800
07F800
07F800
07F800
07F800
07F800
07F800
07F800
07F800
07F800
07F800
07F800
07F800
07F800
07F800
07F800
07F800
07F800
07F800
07F800
07F800
07F800
07F800
07F800
07F800
07F800
07F800
07F800
07F800
07F800
07F800
07F800
ENDCHAR
STARTCHAR Eth
ENCODING 208
SWIDTH 661 0
DWIDTH 32 0
BBX 31 34 -1 0
BITMAP
0FFFF000
0FFFFC00
0FFFFF00
0FFFFFC0
0FFFFFE0
0FFFFFE0
0FF83FF0
0FF80FF8
0FF807F8
0FF807FC
0FF803FC
0FF803FC
0FF803FE
0FF801FE
FFFF81FE
FFFF81FE
FFFF81FE
FFFF81FE
FFFF81FE
0FF801FE
0FF801FE
0FF803FE
0FF803FE
0FF803FC
0FF807FC
0FF807F8
0FF80FF8
0FF83FF0
0FFFFFF0
0FFFFFE0
0FFFFFC0
0FFFFF00
0FFFFC00
0FFFE000
ENDCHAR
STARTCHAR Ntilde
ENCODING 209
SWIDTH 702 0
DWIDTH 34 0
BBX 28 44 3 0
BITMAP
00F81E00
01FE3E00
03FFFE00
03FFFC00
07FFFC00
07C7F800
0781F000
00000000
00000000
00000000
FF000FF0
FF800FF0
FF800FF0
FFC00FF0
FFE00FF0
FFE00FF0
FFF00FF0
FFF00FF0
FFF80FF0
FFF80FF0
FFFC0FF0
FFFE0FF0
FFFE0FF0
FFFF0FF0
FF7F0FF0
FF3F8FF0
FF3F8FF0
FF1FCFF0
FF1FEFF0
FF0FEFF0
FF0FFFF0
FF07FFF0
FF03FFF0
FF03FFF0
FF01FFF0
FF01FFF0
FF00FFF0
FF00FFF0
FF007FF0
FF003FF0
FF003FF0
FF001FF0
FF001FF0
FF000FF0
ENDCHAR
STARTCHAR Ograve
ENCODING 210
SWIDTH 690 0
DWIDTH 33 0
BBX 29 43 2 0
BITMAP
07FC0000
01FE0000
00FE0000
007F0000
003F8000
003FC000
001FC000
00000000
00000000
003FE000
00FFF800
03FFFE00
07FFFF00
0FFFFF80
1FFFFFC0
3FF07FE0
3FC03FE0
7FC01FF0
7F800FF0
FF800FF8
FF0007F8
FF0007F8
FF0007F8
FF0007F8
FF0007F8
FF0007F8
FF0007F8
FF0007F8
FF0007F8
FF0007F8
FF0007F8
FF0007F8
FF800FF8
7F800FF0
7FC01FF0
3FE03FE0
3FF07FE0
1FFFFFC0
0FFFFF80
07FFFF00
03FFFE00
00FFF800
003FE000
ENDCHAR
STARTCHAR Oacute
ENCODING 211
SWIDTH 690 0
DWIDTH 33 0
BBX 29 43 2 0
BITMAP
0001FF00
0003FC00
0003FC00
0007F800
000FF000
000FE000
001FC000
00000000
00000000
003FE000
00FFF800
03FFFE00
07FFFF00
0FFFFF80
1FFFFFC0
3FF07FE0
3FC03FE0
7FC01FF0
7F800FF0
FF800FF8
FF0007F8
FF0007F8
FF0007F8
FF0007F8
FF0007F8
FF0007F8
FF0007F8
FF0007F8
FF0007F8
FF0007F8
FF0007F8
FF0007F8
FF800FF8
7F800FF0
7FC01FF0
3FE03FE0
3FF07FE0
1FFFFFC0
0FFFFF80
07FFFF00
03FFFE00
00FFF800
003FE000
ENDCHAR
STARTCHAR Ocircumflex
ENCODING 212
SWIDTH 690 0
DWIDTH 33 0
BBX 29 43 2 0
BITMAP
000F8000
003FE000
007FF000
00FFF800
01FDFC00
07F8FF00
07E03F00
00000000
00000000
003FE000
00FFF800
03FFFE00
07FFFF00
0FFFFF80
1FFFFFC0
3FF07FE0
3FC03FE0
7FC01FF0
7F800FF0
FF800FF8
FF0007F8
FF0007F8
FF0007F8
FF0007F8
FF0007F8
FF0007F8
FF0007F8
FF0007F8
FF0007F8
FF0007F8
FF0007F8
FF0007F8
FF800FF8
7F800FF0
7FC01FF0
3FE03FE0
3FF07FE0
1FFFFFC0
0FFFFF80
07FFFF00
03FFFE00
00FFF800
003FE000
ENDCHAR
STARTCHAR Otilde
ENCODING 213
SWIDTH 690 0
DWIDTH 33 0
BBX 29 44 2 0
BITMAP
00781F00
01FE1E00
01FFFE00
03FFFE00
03FFFC00
03C3FC00
07C0F000
00000000
00000000
00000000
003FE000
00FFF800
03FFFE00
07FFFF00
0FFFFF80
1FFFFFC0
3FF07FE0
3FC03FE0
7FC01FF0
7F800FF0
FF800FF8
FF0007F8
FF0007F8
FF0007F8
FF0007F8
FF0007F8
FF0007F8
FF0007F8
FF0007F8
FF0007F8
FF0007F8
FF0007F8
FF0007F8
FF800FF8
7F800FF0
7FC01FF0
3FE03FE0
3FF07FE0
1FFFFFC0
0FFFFF80
07FFFF00
03FFFE00
00FFF800
003FE000
ENDCHAR
STARTCHAR Odieresis
ENCODING 214
SWIDTH 690 0
DWIDTH 33 0
BBX 29 42 2 0
BITMAP
03C01E00
07E07F00
07F07F00
07F07F00
07E07F00
03C01E00
00000000
00000000
003FE000
00FFF800
03FFFE00
07FFFF00
0FFFFF80
1FFFFFC0
3FF07FE0
3FC03FE0
7FC01FF0
7F800FF0
FF800FF8
FF0007F8
FF0007F8
FF0007F8
FF0007F8
FF0007F8
FF0007F8
FF0007F8
FF0007F8
FF0007F8
FF0007F8
FF0007F8
FF0007F8
FF800FF8
7F800FF0
7FC01FF0
3FE03FE0
3FF07FE0
1FFFFFC0
0FFFFF80
07FFFF00
03FFFE00
00FFF800
003FE000
ENDCHAR
STARTCHAR multiply
ENCODING 215
SWIDTH 528 0
DWIDTH 25 0
BBX 23 23 1 5
BITMAP
080020
1C0070
3E00F8
7F01FC
FF83FE
7FC7FC
3FEFF8
1FFFF0
0FFFE0
07FFC0
03FF80
01FF00
03FF80
07FFC0
0FFFE0
1FFFF0
3FEFF8
7FC7FC
FF83FE
7F01FC
3E00F8
1C0070
080020
ENDCHAR
STARTCHAR Oslash
ENCODING 216
SWIDTH 687 0
DWIDTH 33 0
BBX 30 37 2 -2
BITMAP
000001F0
001FE3E0
00FFFFC0
03FFFFC0
07FFFF80
0FFFFFC0
1FFFFFC0
3FF07FE0
3FE03FF0
7FC07FF0
7F807FF8
7F80FFF8
FF81F7F8
FF81F7F8
FF03E7FC
FF03E7FC
FF07C7FC
FF0787FC
FF0F87FC
FF1F07FC
FF1F07FC
FF3E07FC
FFBE07F8
FFFC07F8
7FF807F8
7FF80FF8
7FF00FF0
3FF01FF0
3FF07FE0
1FFFFFC0
0FFFFFC0
0FFFFF80
0FFFFE00
1FFFFC00
1E1FE000
3E000000
7C000000
ENDCHAR
STARTCHAR Ugrave
ENCODING 217
SWIDTH 664 0
DWIDTH 32 0
BBX 26 43 3 0
BITMAP
0FF00000
07F80000
03FC0000
01FC0000
00FE0000
007F0000
003F8000
00000000
00000000
FF003FC0
FF003FC0
FF003FC0
FF003FC0
FF003FC0
FF003FC0
FF003FC0
FF003FC0
FF003FC0
FF003FC0
FF003FC0
FF003FC0
FF003FC0
FF003FC0
FF003FC0
FF003FC0
FF003FC0
FF003FC0
FF003FC0
FF003FC0
FF003FC0
FF003FC0
FF003FC0
FF003FC0
FF003FC0
FF003FC0
FF807FC0
7FC0FF80
7FFFFF80
3FFFFF00
1FFFFE00
0FFFFC00
03FFF000
00FF8000
ENDCHAR
STARTCHAR Uacute
ENCODING 218
SWIDTH 664 0
DWIDTH 32 0
BBX 26 43 3 0
BITMAP
0007FC00
0007F800
000FF000
001FE000
001FC000
003F8000
007F0000
00000000
00000000
FF003FC0
FF003FC0
FF003FC0
FF003FC0
FF003FC0
FF003FC0
FF003FC0
FF003FC0
FF003FC0
FF003FC0
FF003FC0
FF003FC0
FF003FC0
FF003FC0
FF003FC0
FF003FC0
FF003FC0
FF003FC0
FF003FC0
FF003FC0
FF003FC0
FF003FC0
FF003FC0
FF003FC0
FF003FC0
FF003FC0
FF807FC0
7FC0FF80
7FFFFF80
3FFFFF00
1FFFFE00
0FFFFC00
03FFF000
00FF8000
ENDCHAR
STARTCHAR Ucircumflex
ENCODING 219
SWIDTH 664 0
DWIDTH 32 0
BBX 26 43 3 0
BITMAP
003F0000
007F8000
01FFC000
03FFE000
07F3F800
0FE1FC00
1FC0FE00
00000000
00000000
FF003FC0
FF003FC0
FF003FC0
FF003FC0
FF003FC0
FF003FC0
FF003FC0
FF003FC0
FF003FC0
FF003FC0
FF003FC0
FF003FC0
FF003FC0
FF003FC0
FF003FC0
FF003FC0
FF003FC0
FF003FC0
FF003FC0
FF003FC0
FF003FC0
FF003FC0
FF003FC0
FF003FC0
FF003FC0
FF003FC0
FF807FC0
7FC0FF80
7FFFFF80
3FFFFF00
1FFFFE00
0FFFFC00
03FFF000
00FF8000
ENDCHAR
STARTCHAR Udieresis
ENCODING 220
SWIDTH 664 0
DWIDTH 32 0
BBX 26 42 3 0
BITMAP
07807800
0FC0FC00
1FC1FC00
1FC1FC00
0FC0FC00
07807800
00000000
00000000
FF003FC0
FF003FC0
FF003FC0
FF003FC0
FF003FC0
FF003FC0
FF003FC0
FF003FC0
FF003FC0
FF003FC0
FF003FC0
FF003FC0
FF003FC0
FF003FC0
FF003FC0
FF003FC0
FF003FC0
FF003FC0
FF003FC0
FF003FC0
FF003FC0
FF003FC0
FF003FC0
FF003FC0
FF003FC0
FF003FC0
FF807FC0
7FC0FF80
7FFFFF80
3FFFFF00
1FFFFE00
0FFFFC00
03FFF000
00FF8000
ENDCHAR
STARTCHAR Yacute
ENCODING 221
SWIDTH 627 0
DWIDTH 30 0
BBX 30 43 0 0
BITMAP
0000FF00
0001FE00
0003FC00
0003F800
0007F000
000FE000
001FC000
00000000
00000000
FF8007FC
7F8007F8
7FC00FF8
3FC00FF0
3FE01FF0
1FE01FE0
1FF01FE0
0FF03FC0
0FF03FC0
07F87F80
07F87F80
03FCFF00
03FCFF00
01FEFE00
01FFFE00
00FFFC00
00FFFC00
007FF800
007FF800
003FF000
003FF000
001FE000
001FE000
001FE000
001FE000
001FE000
001FE000
001FE000
001FE000
001FE000
001FE000
001FE000
001FE000
001FE000
ENDCHAR
STARTCHAR Thorn
ENCODING 222
SWIDTH 618 0
DWIDTH 30 0
BBX 26 34 3 0
BITMAP
FF000000
FF000000
FF000000
FF000000
FF000000
FF000000
FFFF8000
FFFFF000
FFFFFC00
FFFFFE00
FFFFFF00
FFFFFF00
FF01FF80
FF007F80
FF007F80
FF003FC0
FF003FC0
FF003FC0
FF007F80
FF007F80
FF01FF80
FFFFFF00
FFFFFF00
FFFFFE00
FFFFFC00
FFFFF000
FFFF8000
FF000000
FF000000
FF000000
FF000000
FF000000
FF000000
FF000000
ENDCHAR
STARTCHAR germandbls
ENCODING 223
SWIDTH 649 0
DWIDTH 31 0
BBX 27 37 3 0
BITMAP
00FF0000
07FFC000
0FFFF000
1FFFF800
3FFFF800
7FFFFC00
7F87FC00
FF83FC00
FF03FC00
FF03FC00
FF03FC00
FF03FC00
FF03FC00
FF07F800
FF07F800
FF0FF000
FF0FF000
FF0FF000
FF0FF800
FF07FC00
FF07FE00
FF03FF00
FF03FF80
FF01FF80
FF007FC0
FF003FC0
FF003FE0
FF001FE0
FF001FE0
FF003FE0
FF307FC0
FF3FFFC0
FF3FFFC0
FF3FFF80
FF3FFF00
FF7FFC00
FF1FF000
ENDCHAR
STARTCHAR agrave
ENCODING 224
SWIDTH 530 0
DWIDTH 25 0
BBX 23 36 1 0
BITMAP
3FE000
0FF000
07F000
03F800
03FC00
01FE00
00FE00
000000
000000
000000
00FF00
07FFC0
1FFFF0
3FFFF8
3FFFF8
7FC7FC
7F83FC
7F83FC
0003FC
0003FC
01FFFC
0FFFFC
1FFFFC
3FFFFC
7FFFFC
FFC3FC
FF83FC
FF03FC
FF03FC
FF03FC
FF87FC
7FFFFC
7FFFFC
3FFFFE
1FFDFE
07F1FE
ENDCHAR
STARTCHAR aacute
ENCODING 225
SWIDTH 530 0
DWIDTH 25 0
BBX 23 36 1 0
BITMAP
000FF8
001FE0
001FE0
003FC0
007F80
007F00
00FE00
000000
000000
000000
00FF00
07FFC0
1FFFF0
3FFFF8
3FFFF8
7FC7FC
7F83FC
7F83FC
0003FC
0003FC
01FFFC
0FFFFC
1FFFFC
3FFFFC
7FFFFC
FFC3FC
FF83FC
FF03FC
FF03FC
FF03FC
FF87FC
7FFFFC
7FFFFC
3FFFFE
1FFDFE
07F1FE
ENDCHAR
STARTCHAR acircumflex
ENCODING 226
SWIDTH 530 0
DWIDTH 25 0
BBX 23 36 1 0
BITMAP
007C00
01FF00
03FF80
07FFC0
0FEFE0
3FC3F8
3F01F8
000000
000000
000000
00FF00
07FFC0
1FFFF0
3FFFF8
3FFFF8
7FC7FC
7F83FC
7F83FC
0003FC
0003FC
01FFFC
0FFFFC
1FFFFC
3FFFFC
7FFFFC
FFC3FC
FF83FC
FF03FC
FF03FC
FF03FC
FF87FC
7FFFFC
7FFFFC
3FFFFE
1FFDFE
07F1FE
ENDCHAR
STARTCHAR atilde
ENCODING 227
SWIDTH 530 0
DWIDTH 25 0
BBX 23 37 1 0
BITMAP
03C0F8
0FF0F0
0FFFF0
1FFFF0
1FFFE0
1E1FE0
3E0780
000000
000000
000000
000000
00FF00
07FFC0
1FFFF0
3FFFF8
3FFFF8
7FC7FC
7F83FC
7F83FC
0003FC
0003FC
01FFFC
0FFFFC
1FFFFC
3FFFFC
7FFFFC
FFC3FC
FF83FC
FF03FC
FF03FC
FF03FC
FF87FC
7FFFFC
7FFFFC
3FFFFE
1FFDFE
07F1FE
ENDCHAR
STARTCHAR adieresis
ENCODING 228
SWIDTH 530 0
DWIDTH 25 0
BBX 23 35 1 0
BITMAP
1E00F0
3F03F8
3F83F8
3F83F8
3F03F8
1E00F0
000000
000000
000000
00FF00
07FFC0
1FFFF0
3FFFF8
3FFFF8
7FC7FC
7F83FC
7F83FC
0003FC
0003FC
01FFFC
0FFFFC
1FFFFC
3FFFFC
7FFFFC
FFC3FC
FF83FC
FF03FC
FF03FC
FF03FC
FF87FC
7FFFFC
7FFFFC
3FFFFE
1FFDFE
07F1FE
ENDCHAR
STARTCHAR aring
ENCODING 229
SWIDTH 530 0
DWIDTH 25 0
BBX 23 38 1 0
BITMAP
007C00
00FF00
01E700
01C380
038380
018380
01E700
00FF00
007C00
000000
000000
000000
00FF00
07FFC0
1FFFF0
3FFFF8
3FFFF8
7FC7FC
7F83FC
7F83FC
0003FC
0003FC
01FFFC
0FFFFC
1FFFFC
3FFFFC
7FFFFC
FFC3FC
FF83FC
FF03FC
FF03FC
FF03FC
FF87FC
7FFFFC
7FFFFC
3FFFFE
1FFDFE
07F1FE
ENDCHAR
STARTCHAR ae
ENCODING 230
SWIDTH 844 0
DWIDTH 41 0
BBX 39 26 1 0
BITMAP
00FF80FE00
03FFE7FFC0
0FFFFFFFE0
1FFFFFFFF0
3FFFFFFFF8
3FFFFFFFF8
7FC1FFC7FC
7F81FF83FC
0000FF01FC
0000FF01FC
01FFFF01FC
0FFFFFFFFC
1FFFFFFFFE
3FFFFFFFFE
7FFFFFFFFE
7FC0FFFFFE
7F80FF0000
FF00FF0000
FF00FF8000
7F80FFC070
7FC3FFFFF8
7FFFFFFFF8
3FFFFFFFF8
1FFFCFFFFC
0FFF87FFE0
03FC00FF00
ENDCHAR
STARTCHAR ccedilla
ENCODING 231
SWIDTH 519 0
DWIDTH 25 0
BBX 23 37 1 -11
BITMAP
00FF00
03FFC0
0FFFF0
1FFFF8
1FFFF8
3FFFFC
7FC3FC
7F81FE
7F81FE
7F01FE
FF0000
FF0000
FF0000
FF0000
FF0000
FF0000
7F0000
7F81FE
7F81FE
7FC3FC
3FFFFC
1FFFFC
1FFFF8
0FFFF0
03FFC0
00FF00
007E00
007E00
007F80
00FFC0
001FC0
000FC0
001FC0
003FC0
003F80
003F00
003C00
ENDCHAR
STARTCHAR egrave
ENCODING 232
SWIDTH 544 0
DWIDTH 26 0
BBX 24 36 1 0
BITMAP
3FE000
0FF000
07F000
03F800
03FC00
01FE00
00FE00
000000
000000
000000
007F00
03FFE0
07FFF0
0FFFF8
1FFFFC
3FFFFE
3FE1FE
7FC0FE
7F80FF
7F80FF
7F80FF
FFFFFF
FFFFFF
FFFFFF
FFFFFF
7FFFFF
7F8000
7F8000
7FC018
3FE078
3FFFFC
1FFFFE
0FFFFF
07FFFC
01FFF0
007FC0
ENDCHAR
STARTCHAR eacute
ENCODING 233
SWIDTH 544 0
DWIDTH 26 0
BBX 24 36 1 0
BITMAP
000FF8
001FE0
001FE0
003FC0
007F80
007F00
00FE00
000000
000000
000000
007F00
03FFE0
07FFF0
0FFFF8
1FFFFC
3FFFFE
3FE1FE
7FC0FE
7F80FF
7F80FF
7F80FF
FFFFFF
FFFFFF
FFFFFF
FFFFFF
7FFFFF
7F8000
7F8000
7FC018
3FE078
3FFFFC
1FFFFE
0FFFFF
07FFFC
01FFF0
007FC0
ENDCHAR
STARTCHAR ecircumflex
ENCODING 234
SWIDTH 544 0
DWIDTH 26 0
BBX 24 36 1 0
BITMAP
007C00
01FF00
03FF80
07FFC0
0FEFE0
3FC7F8
3F01F8
000000
000000
000000
007F00
03FFE0
07FFF0
0FFFF8
1FFFFC
3FFFFE
3FE1FE
7FC0FE
7F80FF
7F80FF
7F80FF
FFFFFF
FFFFFF
FFFFFF
FFFFFF
7FFFFF
7F8000
7F8000
7FC018
3FE078
3FFFFC
1FFFFE
0FFFFF
07FFFC
01FFF0
007FC0
ENDCHAR
STARTCHAR edieresis
ENCODING 235
SWIDTH 544 0
DWIDTH 26 0
BBX 24 35 1 0
BITMAP
1E00F0
3F03F8
3F83F8
3F83F8
3F03F8
1E00F0
000000
000000
000000
007F00
03FFE0
07FFF0
0FFFF8
1FFFFC
3FFFFE
3FE1FE
7FC0FE
7F80FF
7F80FF
7F80FF
FFFFFF
FFFFFF
FFFFFF
FFFFFF
7FFFFF
7F8000
7F8000
7FC018
3FE078
3FFFFC
1FFFFE
0FFFFF
07FFFC
01FFF0
007FC0
ENDCHAR
STARTCHAR igrave
ENCODING 236
SWIDTH 285 0
DWIDTH 14 0
BBX 13 36 -2 0
BITMAP
FF00
7F80
3FC0
1FE0
0FE0
07F0
03F8
0000
0000
0000
07F8
07F8
07F8
07F8
07F8
07F8
07F8
07F8
07F8
07F8
07F8
07F8
07F8
07F8
07F8
07F8
07F8
07F8
07F8
07F8
07F8
07F8
07F8
07F8
07F8
07F8
ENDCHAR
STARTCHAR iacute
ENCODING 237
SWIDTH 285 0
DWIDTH 14 0
BBX 13 36 3 0
BITMAP
07F8
0FF0
1FE0
3FC0
3F80
7F00
FE00
0000
0000
0000
FF00
FF00
FF00
FF00
FF00
FF00
FF00
FF00
FF00
FF00
FF00
FF00
FF00
FF00
FF00
FF00
FF00
FF00
FF00
FF00
FF00
FF00
FF00
FF00
FF00
FF00
ENDCHAR
STARTCHAR icircumflex
ENCODING 238
SWIDTH 285 0
DWIDTH 14 0
BBX 20 36 -3 0
BITMAP
01F800
03FC00
07FE00
1FFF80
3F9FC0
7F0FE0
FE07F0
000000
000000
000000
03FC00
03FC00
03FC00
03FC00
03FC00
03FC00
03FC00
03FC00
03FC00
03FC00
03FC00
03FC00
03FC00
03FC00
03FC00
03FC00
03FC00
03FC00
03FC00
03FC00
03FC00
03FC00
03FC00
03FC00
03FC00
03FC00
ENDCHAR
STARTCHAR idieresis
ENCODING 239
SWIDTH 285 0
DWIDTH 14 0
BBX 19 35 -3 0
BITMAP
3C03C0
7E07E0
FE0FE0
FE0FE0
7E07E0
3C03C0
000000
000000
000000
03FC00
03FC00
03FC00
03FC00
03FC00
03FC00
03FC00
03FC00
03FC00
03FC00
03FC00
03FC00
03FC00
03FC00
03FC00
03FC00
03FC00
03FC00
03FC00
03FC00
03FC00
03FC00
03FC00
03FC00
03FC00
03FC00
ENDCHAR
STARTCHAR eth
ENCODING 240
SWIDTH 568 0
DWIDTH 27 0
BBX 25 37 1 0
BITMAP
03800000
03F00000
03FC1800
07FF7800
07FFFC00
0FFFF000
01FFE000
007FF000
007FF800
01FFFC00
01F7FC00
00C3FE00
0001FE00
0001FF00
01FCFF00
07FFFF00
0FFFFF80
1FFFFF80
3FFFFF80
3FE1FF80
7F807F80
7F807F80
7F807F80
FF007F80
FF007F80
FF007F80
FF007F80
FF807F80
7F80FF00
7FC0FF00
7FE3FE00
3FFFFE00
1FFFFC00
1FFFF800
07FFF000
03FFC000
007F0000
ENDCHAR
STARTCHAR ntilde
ENCODING 241
SWIDTH 563 0
DWIDTH 27 0
BBX 23 37 2 0
BITMAP
03C0F8
0FF0F0
0FFFF0
1FFFF0
1FFFE0
1E1FE0
3E0780
000000
000000
000000
000000
FE0FC0
FF7FF0
FFFFF8
FFFFFC
FFFFFC
FFFFFC
FF83FE
FF01FE
FF01FE
FF01FE
FF01FE
FF01FE
FF01FE
FF01FE
FF01FE
FF01FE
FF01FE
FF01FE
FF01FE
FF01FE
FF01FE
FF01FE
FF01FE
FF01FE
FF01FE
FF01FE
ENDCHAR
STARTCHAR ograve
ENCODING 242
SWIDTH 561 0
DWIDTH 27 0
BBX 25 36 1 0
BITMAP
1FF00000
07F80000
03F80000
01FC0000
00FE0000
00FF0000
007F0000
00000000
00000000
00000000
007F0000
03FFE000
07FFF000
1FFFF800
1FFFFC00
3FFFFE00
7FC3FE00
7F80FF00
7F80FF00
7F00FF00
FF007F80
FF007F80
FF007F80
FF007F80
FF007F80
FF007F80
7F00FF00
7F80FF00
7F80FF00
7FC1FE00
3FFFFE00
1FFFFC00
1FFFF800
07FFF000
03FFE000
00FF8000
ENDCHAR
STARTCHAR oacute
ENCODING 243
SWIDTH 561 0
DWIDTH 27 0
BBX 25 36 1 0
BITMAP
0007FC00
000FF000
000FF000
001FE000
003FC000
003F8000
007F0000
00000000
00000000
00000000
007F0000
03FFE000
07FFF000
1FFFF800
1FFFFC00
3FFFFE00
7FC3FE00
7F80FF00
7F80FF00
7F00FF00
FF007F80
FF007F80
FF007F80
FF007F80
FF007F80
FF007F80
7F00FF00
7F80FF00
7F80FF00
7FC1FE00
3FFFFE00
1FFFFC00
1FFFF800
07FFF000
03FFE000
00FF8000
ENDCHAR
STARTCHAR ocircumflex
ENCODING 244
SWIDTH 561 0
DWIDTH 27 0
BBX 25 36 1 0
BITMAP
003E0000
00FF8000
01FFC000
03FFE000
07F7F000
1FE3FC00
1F80FC00
00000000
00000000
00000000
007F0000
03FFE000
07FFF000
1FFFF800
1FFFFC00
3FFFFE00
7FC3FE00
7F80FF00
7F80FF00
7F00FF00
FF007F80
FF007F80
FF007F80
FF007F80
FF007F80
FF007F80
7F00FF00
7F80FF00
7F80FF00
7FC1FE00
3FFFFE00
1FFFFC00
1FFFF800
07FFF000
03FFE000
00FF8000
ENDCHAR
STARTCHAR otilde
ENCODING 245
SWIDTH 561 0
DWIDTH 27 0
BBX 25 37 1 0
BITMAP
01E07C00
07F87800
07FFF800
0FFFF800
0FFFF000
0F0FF000
1F03C000
00000000
00000000
00000000
00000000
007F0000
03FFE000
07FFF000
1FFFF800
1FFFFC00
3FFFFE00
7FC3FE00
7F80FF00
7F80FF00
7F00FF00
FF007F80
FF007F80
FF007F80
FF007F80
FF007F80
FF007F80
7F00FF00
7F80FF00
7F80FF00
7FC1FE00
3FFFFE00
1FFFFC00
1FFFF800
07FFF000
03FFE000
00FF8000
ENDCHAR
STARTCHAR odieresis
ENCODING 246
SWIDTH 561 0
DWIDTH 27 0
BBX 25 35 1 0
BITMAP
0F007800
1F81FC00
1FC1FC00
1FC1FC00
1F81FC00
0F007800
00000000
00000000
00000000
007F0000
03FFE000
07FFF000
1FFFF800
1FFFFC00
3FFFFE00
7FC3FE00
7F80FF00
7F80FF00
7F00FF00
FF007F80
FF007F80
FF007F80
FF007F80
FF007F80
FF007F80
7F00FF00
7F80FF00
7F80FF00
7FC1FE00
3FFFFE00
1FFFFC00
1FFFF800
07FFF000
03FFE000
00FF8000
ENDCHAR
STARTCHAR divide
ENCODING 247
SWIDTH 569 0
DWIDTH 27 0
BBX 25 27 1 3
BITMAP
003E0000
007F0000
00FF8000
00FF8000
00FF8000
00FF8000
007F0000
003E0000
00000000
00000000
00000000
FFFFFF80
FFFFFF80
FFFFFF80
FFFFFF80
FFFFFF80
00000000
00000000
00000000
003E0000
007F0000
00FF8000
00FF8000
00FF8000
00FF8000
007F0000
003E0000
ENDCHAR
STARTCHAR oslash
ENCODING 248
SWIDTH 562 0
DWIDTH 27 0
BBX 25 32 1 -3
BITMAP
00003C00
00003C00
00007800
007F7800
03FFF000
07FFF000
1FFFF800
1FFFFC00
3FFFFE00
7FC3FE00
7F87FF00
7F87FF00
7F0FFF00
FF0F7F80
FF1E7F80
FF1E7F80
FF3C7F80
FF3C7F80
FF787F80
7F78FF00
7FF0FF00
7FF0FF00
7FE1FE00
3FFFFE00
1FFFFC00
1FFFF800
07FFF000
07FFE000
0FFF8000
0F000000
1F000000
1E000000
ENDCHAR
STARTCHAR ugrave
ENCODING 249
SWIDTH 563 0
DWIDTH 27 0
BBX 23 36 2 0
BITMAP
3FE000
0FF000
07F000
03F800
01FC00
01FE00
00FE00
000000
000000
000000
FF01FE
FF01FE
FF01FE
FF01FE
FF01FE
FF01FE
FF01FE
FF01FE
FF01FE
FF01FE
FF01FE
FF01FE
FF01FE
FF01FE
FF01FE
FF01FE
FF01FE
FF01FE
FF01FE
FF87FE
7FFFFE
7FFFFE
7FFFFE
3FFFFE
1FF9FE
07F1FE
ENDCHAR
STARTCHAR uacute
ENCODING 250
SWIDTH 563 0
DWIDTH 27 0
BBX 23 36 2 0
BITMAP
000FF8
001FE0
001FE0
003FC0
007F80
007F00
00FE00
000000
000000
000000
FF01FE
FF01FE
FF01FE
FF01FE
FF01FE
FF01FE
FF01FE
FF01FE
FF01FE
FF01FE
FF01FE
FF01FE
FF01FE
FF01FE
FF01FE
FF01FE
FF01FE
FF01FE
FF01FE
FF87FE
7FFFFE
7FFFFE
7FFFFE
3FFFFE
1FF9FE
07F1FE
ENDCHAR
STARTCHAR ucircumflex
ENCODING 251
SWIDTH 563 0
DWIDTH 27 0
BBX 23 36 2 0
BITMAP
007C00
01FF00
03FF80
07FFC0
0FEFE0
3FC7F8
3F01F8
000000
000000
000000
FF01FE
FF01FE
FF01FE
FF01FE
FF01FE
FF01FE
FF01FE
FF01FE
FF01FE
FF01FE
FF01FE
FF01FE
FF01FE
FF01FE
FF01FE
FF01FE
FF01FE
FF01FE
FF01FE
FF87FE
7FFFFE
7FFFFE
7FFFFE
3FFFFE
1FF9FE
07F1FE
ENDCHAR
STARTCHAR udieresis
ENCODING 252
SWIDTH 563 0
DWIDTH 27 0
BBX 23 35 2 0
BITMAP
1E00F0
3F03F8
3F83F8
3F83F8
3F03F8
1E00F0
000000
000000
000000
FF01FE
FF01FE
FF01FE
FF01FE
FF01FE
FF01FE
FF01FE
FF01FE
FF01FE
FF01FE
FF01FE
FF01FE
FF01FE
FF01FE
FF01FE
FF01FE
FF01FE
FF01FE
FF01FE
FF87FE
7FFFFE
7FFFFE
7FFFFE
3FFFFE
1FF9FE
07F1FE
ENDCHAR
STARTCHAR yacute
ENCODING 253
SWIDTH 518 0
DWIDTH 25 0
BBX 25 46 0 -10
BITMAP
0007FC00
000FF000
000FE000
001FC000
003FC000
007F8000
007F0000
00000000
00000000
00000000
FF80FF80
FF80FF80
7F80FF00
7F80FF00
7FC1FF00
3FC1FE00
3FC1FE00
3FC3FE00
1FE3FC00
1FE3FC00
0FE3F800
0FF7F800
0FF7F800
07F7F000
07FFF000
07FFF000
03FFE000
03FFE000
03FFE000
01FFC000
01FFC000
01FFC000
00FF8000
00FF8000
00FF8000
007F0000
007F0000
00FF0000
00FE0000
01FE0000
1FFE0000
1FFC0000
1FF80000
1FF80000
1FF00000
1FC00000
ENDCHAR
STARTCHAR thorn
ENCODING 254
SWIDTH 560 0
DWIDTH 27 0
BBX 24 46 2 -10
BITMAP
FF0000
FF0000
FF0000
FF0000
FF0000
FF0000
FF0000
FF0000
FF0000
FF0000
FF1F80
FF7FE0
FFFFF0
FFFFF8
FFFFFC
FFFFFC
FFC3FE
FF01FE
FF01FE
FF00FF
FF00FF
FF00FF
FF00FF
FF00FF
FF00FF
FF00FF
FF00FE
FF01FE
FF81FE
FFC3FE
FFFFFC
FFFFFC
FFFFF8
FFFFF0
FF7FE0
FF1F80
FF0000
FF0000
FF0000
FF0000
FF0000
FF0000
FF0000
FF0000
FF0000
FF0000
ENDCHAR
STARTCHAR ydieresis
ENCODING 255
SWIDTH 518 0
DWIDTH 25 0
BBX 25 45 0 -10
BITMAP
0F00F000
1F81FC00
1FC1FC00
1FC1FC00
1F81FC00
0F00F000
00000000
00000000
00000000
FF80FF80
FF80FF80
7F80FF00
7F80FF00
7FC1FF00
3FC1FE00
3FC1FE00
3FC3FE00
1FE3FC00
1FE3FC00
0FE3F800
0FF7F800
0FF7F800
07F7F000
07FFF000
07FFF000
03FFE000
03FFE000
03FFE000
01FFC000
01FFC000
01FFC000
00FF8000
00FF8000
00FF8000
007F0000
007F0000
00FF0000
00FE0000
01FE0000
1FFE0000
1FFC0000
1FF80000
1FF80000
1FF00000
1FC00000
ENDCHAR
STARTCHAR Amacron
ENCODING 256
SWIDTH 681 0
DWIDTH 33 0
BBX 33 41 0 0
BITMAP
00FFFF8000
00FFFF8000
00FFFF8000
00FFFF8000
0000000000
0000000000
0000000000
000FF00000
000FF80000
000FF80000
001FF80000
001FFC0000
003FFC0000
003FFE0000
003FFE0000
007FFE0000
007FFF0000
007F7F0000
00FF7F0000
00FE7F8000
01FE3F8000
01FE3FC000
01FC3FC000
03FC1FC000
03FC1FE000
03F81FE000
07F80FE000
07F80FF000
07FFFFF000
0FFFFFF800
0FFFFFF800
1FFFFFF800
1FFFFFFC00
1FFFFFFC00
3FE003FC00
3FC003FE00
3FC001FE00
7FC001FF00
7F8001FF00
FF8000FF00
FF8000FF80
ENDCHAR
STARTCHAR amacron
ENCODING 257
SWIDTH 530 0
DWIDTH 25 0
BBX 23 34 1 0
BITMAP
1FFFF0
1FFFF0
1FFFF0
1FFFF0
000000
000000
000000
000000
00FF00
07FFC0
1FFFF0
3FFFF8
3FFFF8
7FC7FC
7F83FC
7F83FC
0003FC
0003FC
01FFFC
0FFFFC
1FFFFC
3FFFFC
7FFFFC
FFC3FC
FF83FC
FF03FC
FF03FC
FF03FC
FF87FC
7FFFFC
7FFFFC
3FFFFE
1FFDFE
07F1FE
ENDCHAR
STARTCHAR Abreve
ENCODING 258
SWIDTH 681 0
DWIDTH 33 0
BBX 33 43 0 0
BITMAP
00F80F8000
00FC1F8000
00FFFF8000
007FFF0000
007FFE0000
001FFC0000
0007F00000
0000000000
0000000000
000FF00000
000FF80000
000FF80000
001FF80000
001FFC0000
003FFC0000
003FFE0000
003FFE0000
007FFE0000
007FFF0000
007F7F0000
00FF7F0000
00FE7F8000
01FE3F8000
01FE3FC000
01FC3FC000
03FC1FC000
03FC1FE000
03F81FE000
07F80FE000
07F80FF000
07FFFFF000
0FFFFFF800
0FFFFFF800
1FFFFFF800
1FFFFFFC00
1FFFFFFC00
3FE003FC00
3FC003FE00
3FC001FE00
7FC001FF00
7F8001FF00
FF8000FF00
FF8000FF80
ENDCHAR
STARTCHAR abreve
ENCODING 259
SWIDTH 530 0
DWIDTH 25 0
BBX 23 36 1 0
BITMAP
1F01F0
1F83F0
1FFFF0
0FFFE0
07FFC0
03FF80
00FE00
000000
000000
000000
00FF00
07FFC0
1FFFF0
3FFFF8
3FFFF8
7FC7FC
7F83FC
7F83FC
0003FC
0003FC
01FFFC
0FFFFC
1FFFFC
3FFFFC
7FFFFC
FFC3FC
FF83FC
FF03FC
FF03FC
FF03FC
FF87FC
7FFFFC
7FFFFC
3FFFFE
1FFDFE
07F1FE
ENDCHAR
STARTCHAR Aogonek
ENCODING 260
SWIDTH 681 0
DWIDTH 33 0
BBX 33 44 0 -10
BITMAP
000FF80000
000FF80000
000FF80000
001FFC0000
001FFC0000
001FFC0000
003FFE0000
003FFE0000
007FFF0000
007FFF0000
007F7F0000
00FF7F8000
00FF7F8000
00FE3F8000
01FE3FC000
01FE3FC000
01FC1FC000
03FC1FE000
03FC1FE000
07F80FF000
07F80FF000
07FFFFF000
0FFFFFF800
0FFFFFF800
0FFFFFF800
1FFFFFFC00
1FFFFFFC00
3FE003FE00
3FC001FE00
3FC001FE00
7FC001FF00
7FC001FF00
7F8000FF00
FF8000FF80
000001F800
000003F000
000003E000
000003E000
000007E000
000007FC00
000003FC00
000003FE00
000001FE00
000000FC00
ENDCHAR
STARTCHAR aogonek
ENCODING 261
SWIDTH 530 0
DWIDTH 25 0
BBX 23 36 1 -10
BITMAP
00FF00
07FFC0
1FFFF0
3FFFF8
3FFFF8
7FC7FC
7F83FC
7F83FC
0003FC
0003FC
01FFFC
0FFFFC
1FFFFC
3FFFFC
7FFFFC
FFC3FC
FF83FC
FF03FC
FF03FC
FF03FC
FF87FC
7FFFFC
7FFFFC
3FFFFE
1FFDFE
07F1FE
0001F8
0003F0
0007E0
0007E0
0007E0
0007FC
0007FC
0003FC
0003FE
0000F8
ENDCHAR
STARTCHAR Cacute
ENCODING 262
SWIDTH 656 0
DWIDTH 32 0
BBX 29 43 2 0
BITMAP
0001FF00
0003FC00
0007F800
0007F000
000FE000
001FC000
001FC000
00000000
00000000
003FE000
00FFFC00
03FFFE00
07FFFF80
0FFFFFC0
1FFFFFC0
3FF07FE0
3FC01FE0
7FC00FF0
7F800FF0
7F800FF0
FF800FF0
FF000008
FF000000
FF000000
FF000000
FF000000
FF000000
FF000000
FF000000
FF000000
FF000000
FF800FF0
FF800FF0
7F800FF0
7FC00FF0
3FC01FF0
3FF07FE0
1FFFFFC0
1FFFFFC0
0FFFFF80
03FFFE00
01FFFC00
003FE000
ENDCHAR
STARTCHAR cacute
ENCODING 263
SWIDTH 519 0
DWIDTH 25 0
BBX 23 36 1 0
BITMAP
000FF8
001FF0
001FE0
003FC0
007F80
007F00
00FE00
000000
000000
000000
00FF00
03FFC0
0FFFF0
1FFFF8
1FFFF8
3FFFFC
7FC3FC
7F81FE
7F81FE
7F01FE
FF0000
FF0000
FF0000
FF0000
FF0000
FF0000
7F0000
7F81FE
7F81FE
7FC3FC
3FFFFC
1FFFFC
1FFFF8
0FFFF0
03FFC0
00FF00
ENDCHAR
STARTCHAR Ccircumflex
ENCODING 264
SWIDTH 656 0
DWIDTH 32 0
BBX 29 43 2 0
BITMAP
001F8000
003FC000
007FF000
00FFF800
03F9FC00
07F0FE00
0FE07F00
00000000
00000000
003FE000
00FFFC00
03FFFE00
07FFFF80
0FFFFFC0
1FFFFFC0
3FF07FE0
3FC01FE0
7FC00FF0
7F800FF0
7F800FF0
FF800FF0
FF000008
FF000000
FF000000
FF000000
FF000000
FF000000
FF000000
FF000000
FF000000
FF000000
FF800FF0
FF800FF0
7F800FF0
7FC00FF0
3FC01FF0
3FF07FE0
1FFFFFC0
1FFFFFC0
0FFFFF80
03FFFE00
01FFFC00
003FE000
ENDCHAR
STARTCHAR ccircumflex
ENCODING 265
SWIDTH 519 0
DWIDTH 25 0
BBX 23 36 1 0
BITMAP
007C00
01FF00
03FF80
07FFC0
0FEFE0
1FC3F8
3F01FC
000000
000000
000000
00FF00
03FFC0
0FFFF0
1FFFF8
1FFFF8
3FFFFC
7FC3FC
7F81FE
7F81FE
7F01FE
FF0000
FF0000
FF0000
FF0000
FF0000
FF0000
7F0000
7F81FE
7F81FE
7FC3FC
3FFFFC
1FFFFC
1FFFF8
0FFFF0
03FFC0
00FF00
ENDCHAR
STARTCHAR Cdotaccent
ENCODING 266
SWIDTH 656 0
DWIDTH 32 0
BBX 29 44 2 0
BITMAP
000F0000
001F8000
003FC000
003FC000
003FC000
001F8000
000F0000
00000000
00000000
00000000
003FE000
00FFFC00
03FFFE00
07FFFF80
0FFFFFC0
1FFFFFC0
3FF07FE0
3FC01FE0
7FC00FF0
7F800FF0
7F800FF0
FF800FF0
FF000008
FF000000
FF000000
FF000000
FF000000
FF000000
FF000000
FF000000
FF000000
FF000000
FF800FF0
FF800FF0
7F800FF0
7FC00FF0
3FC01FF0
3FF07FE0
1FFFFFC0
1FFFFFC0
0FFFFF80
03FFFE00
01FFFC00
003FE000
ENDCHAR
STARTCHAR cdotaccent
ENCODING 267
SWIDTH 519 0
DWIDTH 25 0
BBX 23 37 1 0
BITMAP
007C00
00FE00
00FE00
00FE00
00FE00
00FE00
007C00
000000
000000
000000
000000
00FF00
03FFC0
0FFFF0
1FFFF8
1FFFF8
3FFFFC
7FC3FC
7F81FE
7F81FE
7F01FE
FF0000
FF0000
FF0000
FF0000
FF0000
FF0000
7F0000
7F81FE
7F81FE
7FC3FC
3FFFFC
1FFFFC
1FFFF8
0FFFF0
03FFC0
00FF00
ENDCHAR
STARTCHAR Ccaron
ENCODING 268
SWIDTH 656 0
DWIDTH 32 0
BBX 29 43 2 0
BITMAP
0FE07F00
07F0FE00
01F9FC00
00FFF800
007FF000
003FC000
001F8000
00000000
00000000
003FE000
00FFFC00
03FFFE00
07FFFF80
0FFFFFC0
1FFFFFC0
3FF07FE0
3FC01FE0
7FC00FF0
7F800FF0
7F800FF0
FF800FF0
FF000008
FF000000
FF000000
FF000000
FF000000
FF000000
FF000000
FF000000
FF000000
FF000000
FF800FF0
FF800FF0
7F800FF0
7FC00FF0
3FC01FF0
3FF07FE0
1FFFFFC0
1FFFFFC0
0FFFFF80
03FFFE00
01FFFC00
003FE000
ENDCHAR
STARTCHAR ccaron
ENCODING 269
SWIDTH 519 0
DWIDTH 25 0
BBX 23 36 1 0
BITMAP
7F83FC
1FC7F0
0FEFE0
07FFC0
03FF80
01FF00
00FE00
000000
000000
000000
00FF00
03FFC0
0FFFF0
1FFFF8
1FFFF8
3FFFFC
7FC3FC
7F81FE
7F81FE
7F01FE
FF0000
FF0000
FF0000
FF0000
FF0000
FF0000
7F0000
7F81FE
7F81FE
7FC3FC
3FFFFC
1FFFFC
1FFFF8
0FFFF0
03FFC0
00FF00
ENDCHAR
STARTCHAR Dcaron
ENCODING 270
SWIDTH 646 0
DWIDTH 31 0
BBX 28 43 1 0
BITMAP
FE07F000
7F0FE000
1FDFC000
0FFF8000
07FF0000
03FE0000
01F80000
00000000
00000000
3FFF8000
3FFFF000
3FFFF800
3FFFFE00
3FFFFF00
3FFFFF80
3FC1FFC0
3FC07FC0
3FC03FE0
3FC01FE0
3FC01FE0
3FC01FF0
3FC00FF0
3FC00FF0
3FC00FF0
3FC00FF0
3FC00FF0
3FC00FF0
3FC00FF0
3FC00FF0
3FC00FF0
3FC00FF0
3FC01FF0
3FC01FF0
3FC01FE0
3FC03FE0
3FC07FC0
3FC1FFC0
3FFFFF80
3FFFFF00
3FFFFE00
3FFFFC00
3FFFF000
3FFF8000
ENDCHAR
STARTCHAR dcaron
ENCODING 271
SWIDTH 635 0
DWIDTH 31 0
BBX 33 36 1 0
BITMAP
0000FF0F80
0000FF0F80
0000FF0F80
0000FF1F80
0000FF1F00
0000FF1F00
0000FF1F00
0000FF3E00
0000FF3E00
0000FF0C00
01F8FF0000
07FEFF0000
0FFFFF0000
1FFFFF0000
3FFFFF0000
3FFFFF0000
7FC3FF0000
7F81FF0000
7F80FF0000
FF00FF0000
FF00FF0000
FF00FF0000
FF00FF0000
FF00FF0000
FF00FF0000
FF00FF0000
FF00FF0000
7F80FF0000
7F81FF0000
7FC3FF0000
3FFFFF0000
3FFFFF0000
1FFFFF0000
0FFFFF0000
07FEFF0000
01F87F0000
ENDCHAR
STARTCHAR Dcroat
ENCODING 272
SWIDTH 661 0
DWIDTH 32 0
BBX 31 34 -1 0
BITMAP
0FFFF000
0FFFFC00
0FFFFF00
0FFFFFC0
0FFFFFE0
0FFFFFE0
0FF83FF0
0FF80FF8
0FF807F8
0FF807FC
0FF803FC
0FF803FC
0FF803FE
0FF801FE
FFFF81FE
FFFF81FE
FFFF81FE
FFFF81FE
FFFF81FE
0FF801FE
0FF801FE
0FF803FE
0FF803FE
0FF803FC
0FF807FC
0FF807F8
0FF80FF8
0FF83FF0
0FFFFFF0
0FFFFFE0
0FFFFFC0
0FFFFF00
0FFFFC00
0FFFE000
ENDCHAR
STARTCHAR dcroat
ENCODING 273
SWIDTH 645 0
DWIDTH 31 0
BBX 27 36 1 0
BITMAP
0000FF00
0000FF00
0000FF00
003FFFE0
003FFFE0
003FFFE0
003FFFE0
003FFFE0
0000FF00
0000FF00
01F8FF00
07FEFF00
0FFFFF00
1FFFFF00
3FFFFF00
3FFFFF00
7FC3FF00
7F81FF00
7F80FF00
FF00FF00
FF00FF00
FF00FF00
FF00FF00
FF00FF00
FF00FF00
FF00FF00
FF00FF00
7F80FF00
7F81FF00
7FC3FF00
3FFFFF00
3FFFFF00
1FFFFF00
0FFFFF00
07FEFF00
01F87F00
ENDCHAR
STARTCHAR Emacron
ENCODING 274
SWIDTH 559 0
DWIDTH 27 0
BBX 23 41 3 0
BITMAP
0FFFF0
0FFFF0
0FFFF0
0FFFF0
000000
000000
000000
FFFFFE
FFFFFE
FFFFFE
FFFFFE
FFFFFE
FFFFFE
FF0000
FF0000
FF0000
FF0000
FF0000
FF0000
FF0000
FFFFF8
FFFFF8
FFFFF8
FFFFF8
FFFFF8
FFFFF8
FF0000
FF0000
FF0000
FF0000
FF0000
FF0000
FF0000
FF0000
FF0000
FFFFFE
FFFFFE
FFFFFE
FFFFFE
FFFFFE
FFFFFE
ENDCHAR
STARTCHAR emacron
ENCODING 275
SWIDTH 544 0
DWIDTH 26 0
BBX 24 34 1 0
BITMAP
1FFFF0
1FFFF0
1FFFF0
1FFFF0
000000
000000
000000
000000
007F00
03FFE0
07FFF0
0FFFF8
1FFFFC
3FFFFE
3FE1FE
7FC0FE
7F80FF
7F80FF
7F80FF
FFFFFF
FFFFFF
FFFFFF
FFFFFF
7FFFFF
7F8000
7F8000
7FC018
3FE078
3FFFFC
1FFFFE
0FFFFF
07FFFC
01FFF0
007FC0
ENDCHAR
STARTCHAR Ebreve
ENCODING 276
SWIDTH 559 0
DWIDTH 27 0
BBX 23 43 3 0
BITMAP
1F81F8
0FC3F8
0FFFF0
0FFFF0
07FFE0
03FFC0
007F00
000000
000000
FFFFFE
FFFFFE
FFFFFE
FFFFFE
FFFFFE
FFFFFE
FF0000
FF0000
FF0000
FF0000
FF0000
FF0000
FF0000
FFFFF8
FFFFF8
FFFFF8
FFFFF8
FFFFF8
FFFFF8
FF0000
FF0000
FF0000
FF0000
FF0000
FF0000
FF0000
FF0000
FF0000
FFFFFE
FFFFFE
FFFFFE
FFFFFE
FFFFFE
FFFFFE
ENDCHAR
STARTCHAR ebreve
ENCODING 277
SWIDTH 544 0
DWIDTH 26 0
BBX 24 36 1 0
BITMAP
1F01F0
1F83F0
1FFFF0
0FFFE0
07FFC0
03FF80
00FE00
000000
000000
000000
007F00
03FFE0
07FFF0
0FFFF8
1FFFFC
3FFFFE
3FE1FE
7FC0FE
7F80FF
7F80FF
7F80FF
FFFFFF
FFFFFF
FFFFFF
FFFFFF
7FFFFF
7F8000
7F8000
7FC018
3FE078
3FFFFC
1FFFFE
0FFFFF
07FFFC
01FFF0
007FC0
ENDCHAR
STARTCHAR Edotaccent
ENCODING 278
SWIDTH 559 0
DWIDTH 27 0
BBX 23 44 3 0
BITMAP
003C00
007E00
00FF00
00FF00
00FF00
007E00
003C00
000000
000000
000000
FFFFFE
FFFFFE
FFFFFE
FFFFFE
FFFFFE
FFFFFE
FF0000
FF0000
FF0000
FF0000
FF0000
FF0000
FF0000
FFFFF8
FFFFF8
FFFFF8
FFFFF8
FFFFF8
FFFFF8
FF0000
FF0000
FF0000
FF0000
FF0000
FF0000
FF0000
FF0000
FF0000
FFFFFE
FFFFFE
FFFFFE
FFFFFE
FFFFFE
FFFFFE
ENDCHAR
STARTCHAR edotaccent
ENCODING 279
SWIDTH 544 0
DWIDTH 26 0
BBX 24 37 1 0
BITMAP
007C00
00FE00
00FE00
00FE00
00FE00
00FE00
007C00
000000
000000
000000
000000
007F00
03FFE0
07FFF0
0FFFF8
1FFFFC
3FFFFE
3FE1FE
7FC0FE
7F80FF
7F80FF
7F80FF
FFFFFF
FFFFFF
FFFFFF
FFFFFF
7FFFFF
7F8000
7F8000
7FC018
3FE078
3FFFFC
1FFFFE
0FFFFF
07FFFC
01FFF0
007FC0
ENDCHAR
STARTCHAR Eogonek
ENCODING 280
SWIDTH 559 0
DWIDTH 27 0
BBX 23 44 3 -10
BITMAP
FFFFFE
FFFFFE
FFFFFE
FFFFFE
FFFFFE
FFFFFE
FF0000
FF0000
FF0000
FF0000
FF0000
FF0000
FF0000
FFFFF8
FFFFF8
FFFFF8
FFFFF8
FFFFF8
FFFFF8
FF0000
FF0000
FF0000
FF0000
FF0000
FF0000
FF0000
FF0000
FF0000
FFFFFE
FFFFFE
FFFFFE
FFFFFE
FFFFFE
FFFFFE
001FC0
003F00
003E00
003E00
003E00
003FC0
003FE0
003FE0
001FE0
0007C0
ENDCHAR
STARTCHAR eogonek
ENCODING 281
SWIDTH 544 0
DWIDTH 26 0
BBX 24 34 1 -8
BITMAP
007F00
03FFE0
07FFF0
0FFFF8
1FFFFC
3FFFFC
3FE1FE
7FC0FE
7F80FF
7F80FF
7F00FF
FFFFFF
FFFFFF
FFFFFF
FFFFFF
FFFFFF
7F8000
7F8000
7FC018
3FE078
3FFFFC
1FFFFE
0FFFFE
07FFFC
03FFF0
007FC0
001F80
001F00
001F00
003FE0
001FF0
001FF0
000FF0
0007E0
ENDCHAR
STARTCHAR Ecaron
ENCODING 282
SWIDTH 559 0
DWIDTH 27 0
BBX 23 43 3 0
BITMAP
3F81FC
1FC3F8
0FE7F0
03FFE0
01FF80
00FF00
007E00
000000
000000
FFFFFE
FFFFFE
FFFFFE
FFFFFE
FFFFFE
FFFFFE
FF0000
FF0000
FF0000
FF0000
FF0000
FF0000
FF0000
FFFFF8
FFFFF8
FFFFF8
FFFFF8
FFFFF8
FFFFF8
FF0000
FF0000
FF0000
FF0000
FF0000
FF0000
FF0000
FF0000
FF0000
FFFFFE
FFFFFE
FFFFFE
FFFFFE
FFFFFE
FFFFFE
ENDCHAR
STARTCHAR ecaron
ENCODING 283
SWIDTH 544 0
DWIDTH 26 0
BBX 24 36 1 0
BITMAP
7F83FC
1FC7F0
0FEFE0
07FFC0
03FF80
01FF00
00FE00
000000
000000
000000
007F00
03FFE0
07FFF0
0FFFF8
1FFFFC
3FFFFE
3FE1FE
7FC0FE
7F80FF
7F80FF
7F80FF
FFFFFF
FFFFFF
FFFFFF
FFFFFF
7FFFFF
7F8000
7F8000
7FC018
3FE078
3FFFFC
1FFFFE
0FFFFF
07FFFC
01FFF0
007FC0
ENDCHAR
STARTCHAR Gcircumflex
ENCODING 284
SWIDTH 681 0
DWIDTH 33 0
BBX 29 43 2 0
BITMAP
000FC000
001FE000
007FF000
00FFF800
01FDFC00
03F87F00
07E03F80
00000000
00000000
001FE000
00FFFC00
03FFFF00
07FFFF80
0FFFFFC0
1FFFFFE0
3FF83FE0
3FE01FF0
7FC00FF0
7FC00FF0
7F8007F8
FF800000
FF800000
FF800000
FF000000
FF000000
FF01FFF8
FF01FFF8
FF01FFF8
FF01FFF8
FF81FFF8
FF800FF8
FF800FF8
7F800FF8
7FC00FF8
7FC00FF8
3FE00FF8
3FF81FF8
1FFFFFF8
0FFFFFF8
07FFFFF0
03FFFFC0
00FFFF00
001FF000
ENDCHAR
STARTCHAR gcircumflex
ENCODING 285
SWIDTH 575 0
DWIDTH 28 0
BBX 25 46 1 -10
BITMAP
007E0000
00FF0000
01FF8000
07FFE000
0FE7F000
1FC3F800
3F81FC00
00000000
00000000
00000000
00FC7F80
03FF7F80
0FFFFF80
1FFFFF80
1FFFFF80
3FFFFF80
3FE1FF80
7FC0FF80
7F807F80
7F807F80
7F807F80
FF007F80
FF007F80
FF007F80
7F007F80
7F807F80
7F807F80
7F807F80
7FC0FF80
3FE1FF80
3FFFFF80
1FFFFF80
1FFFFF80
0FFFFF80
07FE7F80
00FCFF80
0000FF00
0400FF00
0601FF00
0F83FF00
1FFFFE00
1FFFFC00
3FFFFC00
0FFFF000
07FFE000
00FF0000
ENDCHAR
STARTCHAR Gbreve
ENCODING 286
SWIDTH 681 0
DWIDTH 33 0
BBX 29 43 2 0
BITMAP
03E03E00
03F07E00
03FFFE00
01FFFC00
00FFFC00
007FF000
001FC000
00000000
00000000
001FE000
00FFFC00
03FFFF00
07FFFF80
0FFFFFC0
1FFFFFE0
3FF83FE0
3FE01FF0
7FC00FF0
7FC00FF0
7F8007F8
FF800000
FF800000
FF800000
FF000000
FF000000
FF01FFF8
FF01FFF8
FF01FFF8
FF01FFF8
FF81FFF8
FF800FF8
FF800FF8
7F800FF8
7FC00FF8
7FC00FF8
3FE00FF8
3FF81FF8
1FFFFFF8
0FFFFFF8
07FFFFF0
03FFFFC0
00FFFF00
001FF000
ENDCHAR
STARTCHAR gbreve
ENCODING 287
SWIDTH 575 0
DWIDTH 28 0
BBX 25 46 1 -10
BITMAP
1F81F800
1FC3F800
0FFFF000
0FFFF000
07FFE000
03FFC000
00FF0000
00000000
00000000
00000000
00FC7F80
03FF7F80
0FFFFF80
1FFFFF80
1FFFFF80
3FFFFF80
3FE1FF80
7FC0FF80
7F807F80
7F807F80
7F807F80
FF007F80
FF007F80
FF007F80
7F007F80
7F807F80
7F807F80
7F807F80
7FC0FF80
3FE1FF80
3FFFFF80
1FFFFF80
1FFFFF80
0FFFFF80
07FE7F80
00FCFF80
0000FF00
0400FF00
0601FF00
0F83FF00
1FFFFE00
1FFFFC00
3FFFFC00
0FFFF000
07FFE000
00FF0000
ENDCHAR
STARTCHAR Gdotaccent
ENCODING 288
SWIDTH 681 0
DWIDTH 33 0
BBX 29 44 2 0
BITMAP
00078000
001FC000
001FC000
001FC000
001FC000
001FC000
000F8000
00000000
00000000
00000000
001FE000
00FFFC00
03FFFF00
07FFFF80
0FFFFFC0
1FFFFFE0
3FF83FE0
3FE01FF0
7FC00FF0
7FC00FF0
7F8007F8
FF800000
FF800000
FF800000
FF000000
FF000000
FF01FFF8
FF01FFF8
FF01FFF8
FF01FFF8
FF81FFF8
FF800FF8
FF800FF8
7F800FF8
7FC00FF8
7FC00FF8
3FE00FF8
3FF81FF8
1FFFFFF8
0FFFFFF8
07FFFFF0
03FFFFC0
00FFFF00
001FF000
ENDCHAR
STARTCHAR gdotaccent
ENCODING 289
SWIDTH 575 0
DWIDTH 28 0
BBX 25 47 1 -10
BITMAP
003C0000
007E0000
00FF0000
00FF0000
00FF0000
007E0000
003C0000
00000000
00000000
00000000
00000000
00FC7F80
03FF7F80
0FFFFF80
1FFFFF80
1FFFFF80
3FFFFF80
3FE1FF80
7FC0FF80
7F807F80
7F807F80
7F807F80
FF007F80
FF007F80
FF007F80
7F007F80
7F807F80
7F807F80
7F807F80
7FC0FF80
3FE1FF80
3FFFFF80
1FFFFF80
1FFFFF80
0FFFFF80
07FE7F80
00FCFF80
0000FF00
0400FF00
0601FF00
0F83FF00
1FFFFE00
1FFFFC00
3FFFFC00
0FFFF000
07FFE000
00FF0000
ENDCHAR
STARTCHAR uni0122
ENCODING 290
SWIDTH 681 0
DWIDTH 33 0
BBX 29 46 2 -12
BITMAP
001FE000
00FFFC00
03FFFF00
07FFFF80
0FFFFFC0
1FFFFFE0
3FF83FE0
3FE01FF0
7FC00FF0
7FC00FF0
7F8007F8
FF800000
FF800000
FF800000
FF000000
FF000000
FF01FFF8
FF01FFF8
FF01FFF8
FF01FFF8
FF81FFF8
FF800FF8
FF800FF8
7F800FF8
7FC00FF8
7FC00FF8
3FE00FF8
3FF81FF8
1FFFFFF8
0FFFFFF8
07FFFFF0
03FFFFC0
00FFFF00
001FF000
00000000
00000000
000FC000
000FC000
000FC000
000FC000
000F8000
000F8000
000F8000
001F0000
001F0000
00060000
ENDCHAR
STARTCHAR uni0123
ENCODING 291
SWIDTH 575 0
DWIDTH 28 0
BBX 25 50 1 -10
BITMAP
000C0000
001F0000
003F0000
003F0000
007E0000
007E0000
007E0000
007E0000
007E0000
007E0000
007E0000
00000000
00000000
00000000
00FC7F80
03FF7F80
0FFFFF80
1FFFFF80
1FFFFF80
3FFFFF80
3FE1FF80
7FC0FF80
7F807F80
7F807F80
7F807F80
FF007F80
FF007F80
FF007F80
7F007F80
7F807F80
7F807F80
7F807F80
7FC0FF80
3FE1FF80
3FFFFF80
1FFFFF80
1FFFFF80
0FFFFF80
07FE7F80
00FCFF80
0000FF00
0400FF00
0601FF00
0F83FF00
1FFFFE00
1FFFFC00
3FFFFC00
0FFFF000
07FFE000
00FF0000
ENDCHAR
STARTCHAR Hcircumflex
ENCODING 292
SWIDTH 702 0
DWIDTH 34 0
BBX 28 43 3 0
BITMAP
001F8000
003FC000
007FE000
01FFF800
03F9FC00
07F0FE00
0FE07F00
00000000
00000000
FF000FF0
FF000FF0
FF000FF0
FF000FF0
FF000FF0
FF000FF0
FF000FF0
FF000FF0
FF000FF0
FF000FF0
FF000FF0
FF000FF0
FF000FF0
FFFFFFF0
FFFFFFF0
FFFFFFF0
FFFFFFF0
FFFFFFF0
FFFFFFF0
FF000FF0
FF000FF0
FF000FF0
FF000FF0
FF000FF0
FF000FF0
FF000FF0
FF000FF0
FF000FF0
FF000FF0
FF000FF0
FF000FF0
FF000FF0
FF000FF0
FF000FF0
ENDCHAR
STARTCHAR hcircumflex
ENCODING 293
SWIDTH 564 0
DWIDTH 27 0
BBX 23 45 2 0
BITMAP
00F800
03FE00
07FF00
0FFF80
1FDFC0
7F87F0
7E03F8
000000
000000
FF0000
FF0000
FF0000
FF0000
FF0000
FF0000
FF0000
FF0000
FF0000
FF0000
FF0FC0
FF3FF0
FFFFF8
FFFFF8
FFFFFC
FFFFFC
FF83FE
FF03FE
FF01FE
FF01FE
FF01FE
FF01FE
FF01FE
FF01FE
FF01FE
FF01FE
FF01FE
FF01FE
FF01FE
FF01FE
FF01FE
FF01FE
FF01FE
FF01FE
FF01FE
FF01FE
ENDCHAR
STARTCHAR Hbar
ENCODING 294
SWIDTH 728 0
DWIDTH 35 0
BBX 33 34 1 0
BITMAP
3FC001FE00
3FC001FE00
3FC001FE00
3FC001FE00
3FC001FE00
FFFFFFFF80
FFFFFFFF80
FFFFFFFF80
FFFFFFFF80
FFFFFFFF80
3FC001FE00
3FC001FE00
3FC001FE00
3FFFFFFE00
3FFFFFFE00
3FFFFFFE00
3FFFFFFE00
3FFFFFFE00
3FFFFFFE00
3FC001FE00
3FC001FE00
3FC001FE00
3FC001FE00
3FC001FE00
3FC001FE00
3FC001FE00
3FC001FE00
3FC001FE00
3FC001FE00
3FC001FE00
3FC001FE00
3FC001FE00
3FC001FE00
3FC001FE00
ENDCHAR
STARTCHAR hbar
ENCODING 295
SWIDTH 579 0
DWIDTH 28 0
BBX 27 36 -1 0
BITMAP
0FF00000
0FF00000
0FF00000
FFFF8000
FFFF8000
FFFF8000
FFFF8000
FFFF8000
0FF00000
0FF00000
0FF1FC00
0FF7FE00
0FFFFF80
0FFFFF80
0FFFFFC0
0FFFFFC0
0FF87FC0
0FF03FE0
0FF01FE0
0FF01FE0
0FF01FE0
0FF01FE0
0FF01FE0
0FF01FE0
0FF01FE0
0FF01FE0
0FF01FE0
0FF01FE0
0FF01FE0
0FF01FE0
0FF01FE0
0FF01FE0
0FF01FE0
0FF01FE0
0FF01FE0
0FF01FE0
ENDCHAR
STARTCHAR Itilde
ENCODING 296
SWIDTH 301 0
DWIDTH 14 0
BBX 18 44 -2 0
BITMAP
1F03C0
3FC7C0
7FFFC0
7FFFC0
FFFF80
F8FF00
F83E00
000000
000000
000000
07F800
07F800
07F800
07F800
07F800
07F800
07F800
07F800
07F800
07F800
07F800
07F800
07F800
07F800
07F800
07F800
07F800
07F800
07F800
07F800
07F800
07F800
07F800
07F800
07F800
07F800
07F800
07F800
07F800
07F800
07F800
07F800
07F800
07F800
ENDCHAR
STARTCHAR itilde
ENCODING 297
SWIDTH 285 0
DWIDTH 14 0
BBX 18 36 -2 0
BITMAP
1E07C0
3FC7C0
7FFFC0
FFFF80
FFFF80
F8FF00
F03E00
000000
000000
000000
07F800
07F800
07F800
07F800
07F800
07F800
07F800
07F800
07F800
07F800
07F800
07F800
07F800
07F800
07F800
07F800
07F800
07F800
07F800
07F800
07F800
07F800
07F800
07F800
07F800
07F800
ENDCHAR
STARTCHAR Imacron
ENCODING 298
SWIDTH 301 0
DWIDTH 14 0
BBX 16 41 -1 0
BITMAP
FFFF
FFFF
FFFF
FFFF
0000
0000
0000
0FF0
0FF0
0FF0
0FF0
0FF0
0FF0
0FF0
0FF0
0FF0
0FF0
0FF0
0FF0
0FF0
0FF0
0FF0
0FF0
0FF0
0FF0
0FF0
0FF0
0FF0
0FF0
0FF0
0FF0
0FF0
0FF0
0FF0
0FF0
0FF0
0FF0
0FF0
0FF0
0FF0
0FF0
ENDCHAR
STARTCHAR imacron
ENCODING 299
SWIDTH 285 0
DWIDTH 14 0
BBX 16 33 -1 0
BITMAP
FFFF
FFFF
FFFF
FFFF
0000
0000
0000
0FF0
0FF0
0FF0
0FF0
0FF0
0FF0
0FF0
0FF0
0FF0
0FF0
0FF0
0FF0
0FF0
0FF0
0FF0
0FF0
0FF0
0FF0
0FF0
0FF0
0FF0
0FF0
0FF0
0FF0
0FF0
0FF0
ENDCHAR
STARTCHAR Ibreve
ENCODING 300
SWIDTH 301 0
DWIDTH 14 0
BBX 17 43 -1 0
BITMAP
F81F80
FC1F80
FFFF00
7FFF00
7FFE00
1FFC00
07F000
000000
000000
0FF000
0FF000
0FF000
0FF000
0FF000
0FF000
0FF000
0FF000
0FF000
0FF000
0FF000
0FF000
0FF000
0FF000
0FF000
0FF000
0FF000
0FF000
0FF000
0FF000
0FF000
0FF000
0FF000
0FF000
0FF000
0FF000
0FF000
0FF000
0FF000
0FF000
0FF000
0FF000
0FF000
0FF000
ENDCHAR
STARTCHAR ibreve
ENCODING 301
SWIDTH 285 0
DWIDTH 14 0
BBX 18 36 -2 0
BITMAP
FC0FC0
FE1F80
7FFF80
7FFF80
3FFF00
1FFE00
07F800
000000
000000
000000
07F800
07F800
07F800
07F800
07F800
07F800
07F800
07F800
07F800
07F800
07F800
07F800
07F800
07F800
07F800
07F800
07F800
07F800
07F800
07F800
07F800
07F800
07F800
07F800
07F800
07F800
ENDCHAR
STARTCHAR Iogonek
ENCODING 302
SWIDTH 301 0
DWIDTH 14 0
BBX 10 44 1 -10
BITMAP
3FC0
3FC0
3FC0
3FC0
3FC0
3FC0
3FC0
3FC0
3FC0
3FC0
3FC0
3FC0
3FC0
3FC0
3FC0
3FC0
3FC0
3FC0
3FC0
3FC0
3FC0
3FC0
3FC0
3FC0
3FC0
3FC0
3FC0
3FC0
3FC0
3FC0
3FC0
3FC0
3FC0
3FC0
3F00
7C00
FC00
F800
FC00
FF00
FF80
FF80
7F80
1F00
ENDCHAR
STARTCHAR iogonek
ENCODING 303
SWIDTH 274 0
DWIDTH 13 0
BBX 11 47 0 -10
BITMAP
0F80
1FC0
3FE0
3FE0
3FE0
3FE0
1FC0
0F80
0000
0000
0000
3FC0
3FC0
3FC0
3FC0
3FC0
3FC0
3FC0
3FC0
3FC0
3FC0
3FC0
3FC0
3FC0
3FC0
3FC0
3FC0
3FC0
3FC0
3FC0
3FC0
3FC0
3FC0
3FC0
3FC0
3FC0
3FC0
3F80
7E00
7C00
FC00
FC00
FF80
FF80
7F80
3FC0
1F00
ENDCHAR
STARTCHAR Idotaccent
ENCODING 304
SWIDTH 301 0
DWIDTH 14 0
BBX 8 44 3 0
BITMAP
3C
7E
FF
FF
FF
7E
3C
00
00
00
FF
FF
FF
FF
FF
FF
FF
FF
FF
FF
FF
FF
FF
FF
FF
FF
FF
FF
FF
FF
FF
FF
FF
FF
FF
FF
FF
FF
FF
FF
FF
FF
FF
FF
ENDCHAR
STARTCHAR dotlessi
ENCODING 305
SWIDTH 285 0
DWIDTH 14 0
BBX 8 26 3 0
BITMAP
FF
FF
FF
FF
FF
FF
FF
FF
FF
FF
FF
FF
FF
FF
FF
FF
FF
FF
FF
FF
FF
FF
FF
FF
FF
FF
ENDCHAR
STARTCHAR IJ
ENCODING 306
SWIDTH 863 0
DWIDTH 41 0
BBX 36 34 3 0
BITMAP
FF00000FF0
FF00000FF0
FF00000FF0
FF00000FF0
FF00000FF0
FF00000FF0
FF00000FF0
FF00000FF0
FF00000FF0
FF00000FF0
FF00000FF0
FF00000FF0
FF00000FF0
FF00000FF0
FF00000FF0
FF00000FF0
FF00000FF0
FF00000FF0
FF00000FF0
FF00000FF0
FF00000FF0
FF00000FF0
FF00000FF0
FF00000FF0
FF0FF80FF0
FF0FF81FF0
FF07F81FE0
FF07FC3FE0
FF07FFFFE0
FF03FFFFC0
FF01FFFF80
FF00FFFF00
FF007FFC00
FF000FF000
ENDCHAR
STARTCHAR ij
ENCODING 307
SWIDTH 544 0
DWIDTH 26 0
BBX 22 47 2 -10
BITMAP
3E00F0
7F03F8
FF83FC
FF87FC
FF87FC
FF83FC
7F03F8
3E00F0
000000
000000
000000
FF03FC
FF03FC
FF03FC
FF03FC
FF03FC
FF03FC
FF03FC
FF03FC
FF03FC
FF03FC
FF03FC
FF03FC
FF03FC
FF03FC
FF03FC
FF03FC
FF03FC
FF03FC
FF03FC
FF03FC
FF03FC
FF03FC
FF03FC
FF03FC
FF03FC
FF03FC
0003FC
0003FC
0003FC
0007FC
00FFF8
00FFF8
00FFF0
00FFE0
00FFC0
00FF00
ENDCHAR
STARTCHAR Jcircumflex
ENCODING 308
SWIDTH 562 0
DWIDTH 27 0
BBX 29 43 1 0
BITMAP
0000FC00
0001FE00
0003FF80
0007FFC0
001FCFE0
003F87F0
007F03F8
00000000
00000000
0001FE00
0001FE00
0001FE00
0001FE00
0001FE00
0001FE00
0001FE00
0001FE00
0001FE00
0001FE00
0001FE00
0001FE00
0001FE00
0001FE00
0001FE00
0001FE00
0001FE00
0001FE00
0001FE00
0001FE00
0001FE00
0001FE00
0001FE00
0001FE00
FF01FE00
FF01FE00
FF83FE00
FFC7FE00
7FFFFC00
7FFFF800
3FFFF800
1FFFE000
07FFC000
01FE0000
ENDCHAR
STARTCHAR jcircumflex
ENCODING 309
SWIDTH 294 0
DWIDTH 14 0
BBX 19 46 -3 -10
BITMAP
01F000
07FC00
0FFE00
1FFF00
3FBF80
FE1FE0
FC07E0
000000
000000
000000
03FC00
03FC00
03FC00
03FC00
03FC00
03FC00
03FC00
03FC00
03FC00
03FC00
03FC00
03FC00
03FC00
03FC00
03FC00
03FC00
03FC00
03FC00
03FC00
03FC00
03FC00
03FC00
03FC00
03FC00
03FC00
03FC00
03FC00
03FC00
03FC00
07FC00
7FF800
7FF800
7FF000
7FF000
7FC000
7F0000
ENDCHAR
STARTCHAR uni0136
ENCODING 310
SWIDTH 639 0
DWIDTH 31 0
BBX 28 44 3 -10
BITMAP
FF003FF0
FF007FE0
FF00FFC0
FF00FFC0
FF01FF80
FF03FF00
FF03FE00
FF07FE00
FF0FFC00
FF0FF800
FF1FF000
FF3FF000
FF3FE000
FF7FC000
FFFF8000
FFFF8000
FFFFC000
FFFFC000
FFFFE000
FFFFF000
FFFFF000
FFFFF800
FFCFF800
FF87FC00
FF07FE00
FF03FE00
FF03FF00
FF01FF00
FF01FF80
FF00FFC0
FF007FC0
FF007FE0
FF003FE0
FF003FF0
003E0000
003E0000
003E0000
007E0000
007C0000
007C0000
007C0000
00F80000
00F80000
00300000
ENDCHAR
STARTCHAR uni0137
ENCODING 311
SWIDTH 546 0
DWIDTH 26 0
BBX 25 47 2 -11
BITMAP
FF000000
FF000000
FF000000
FF000000
FF000000
FF000000
FF000000
FF000000
FF000000
FF000000
FF01FF00
FF03FE00
FF07FC00
FF0FF800
FF1FF800
FF1FF000
FF3FE000
FF7FC000
FFFF8000
FFFF8000
FFFF0000
FFFF0000
FFFF8000
FFFF8000
FFFFC000
FFFFE000
FFDFE000
FF9FF000
FF0FF000
FF0FF800
FF07FC00
FF07FC00
FF03FE00
FF01FE00
FF01FF00
FF00FF80
00000000
007C0000
007C0000
007C0000
007C0000
007C0000
007C0000
00F80000
00F80000
01F00000
00200000
ENDCHAR
STARTCHAR kgreenlandic
ENCODING 312
SWIDTH 606 0
DWIDTH 29 0
BBX 25 26 3 0
BITMAP
FF01FF80
FF03FF00
FF03FE00
FF07FE00
FF0FFC00
FF0FF800
FF1FF800
FF1FF000
FF3FE000
FFFFE000
FFFFC000
FFFF8000
FFFFC000
FFFFC000
FFFFE000
FFFFE000
FF1FF000
FF1FF800
FF0FF800
FF0FFC00
FF07FC00
FF07FE00
FF03FE00
FF03FF00
FF03FF80
FF01FF80
ENDCHAR
STARTCHAR Lacute
ENCODING 313
SWIDTH 541 0
DWIDTH 26 0
BBX 22 43 3 0
BITMAP
07F800
0FF000
1FE000
3FC000
3F8000
7F0000
FE0000
000000
000000
FF0000
FF0000
FF0000
FF0000
FF0000
FF0000
FF0000
FF0000
FF0000
FF0000
FF0000
FF0000
FF0000
FF0000
FF0000
FF0000
FF0000
FF0000
FF0000
FF0000
FF0000
FF0000
FF0000
FF0000
FF0000
FF0000
FF0000
FF0000
FFFFFC
FFFFFC
FFFFFC
FFFFFC
FFFFFC
FFFFFC
ENDCHAR
STARTCHAR lacute
ENCODING 314
SWIDTH 274 0
DWIDTH 13 0
BBX 13 45 3 1
BITMAP
0FF8
0FF0
1FE0
3FC0
7F80
7F00
FE00
0000
0000
FF00
FF00
FF00
FF00
FF00
FF00
FF00
FF00
FF00
FF00
FF00
FF00
FF00
FF00
FF00
FF00
FF00
FF00
FF00
FF00
FF00
FF00
FF00
FF00
FF00
FF00
FF00
FF00
FF00
FF00
FF00
FF00
FF00
FF00
FF00
FF00
ENDCHAR
STARTCHAR uni013B
ENCODING 315
SWIDTH 541 0
DWIDTH 26 0
BBX 22 45 3 -11
BITMAP
FF0000
FF0000
FF0000
FF0000
FF0000
FF0000
FF0000
FF0000
FF0000
FF0000
FF0000
FF0000
FF0000
FF0000
FF0000
FF0000
FF0000
FF0000
FF0000
FF0000
FF0000
FF0000
FF0000
FF0000
FF0000
FF0000
FF0000
FF0000
FFFFFC
FFFFFC
FFFFFC
FFFFFC
FFFFFC
FFFFFC
000000
00FC00
00FC00
00FC00
00F800
00F800
00F800
01F000
01F000
01E000
006000
ENDCHAR
STARTCHAR uni013C
ENCODING 316
SWIDTH 274 0
DWIDTH 13 0
BBX 9 47 2 -11
BITMAP
7F80
7F80
7F80
7F80
7F80
7F80
7F80
7F80
7F80
7F80
7F80
7F80
7F80
7F80
7F80
7F80
7F80
7F80
7F80
7F80
7F80
7F80
7F80
7F80
7F80
7F80
7F80
7F80
7F80
7F80
7F80
7F80
7F80
7F80
7F80
7F80
0000
3E00
3E00
3E00
3E00
3E00
7E00
7C00
7C00
F800
1000
ENDCHAR
STARTCHAR Lcaron
ENCODING 317
SWIDTH 541 0
DWIDTH 26 0
BBX 22 34 3 0
BITMAP
FF03E0
FF03E0
FF03E0
FF03E0
FF03E0
FF07E0
FF07C0
FF07C0
FF0F80
FF0100
FF0000
FF0000
FF0000
FF0000
FF0000
FF0000
FF0000
FF0000
FF0000
FF0000
FF0000
FF0000
FF0000
FF0000
FF0000
FF0000
FF0000
FF0000
FFFFFC
FFFFFC
FFFFFC
FFFFFC
FFFFFC
FFFFFC
ENDCHAR
STARTCHAR lcaron
ENCODING 318
SWIDTH 348 0
DWIDTH 17 0
BBX 16 36 3 0
BITMAP
FF1F
FF1F
FF1F
FF1F
FF1F
FF1F
FF3E
FF3E
FF7C
FF08
FF00
FF00
FF00
FF00
FF00
FF00
FF00
FF00
FF00
FF00
FF00
FF00
FF00
FF00
FF00
FF00
FF00
FF00
FF00
FF00
FF00
FF00
FF00
FF00
FF00
FF00
ENDCHAR
STARTCHAR Ldot
ENCODING 319
SWIDTH 541 0
DWIDTH 26 0
BBX 22 34 3 0
BITMAP
FF0000
FF0000
FF0000
FF0000
FF0000
FF0000
FF0000
FF0000
FF0000
FF0000
FF0000
FF0780
FF0FC0
FF1FE0
FF1FE0
FF1FE0
FF0FC0
FF0780
FF0000
FF0000
FF0000
FF0000
FF0000
FF0000
FF0000
FF0000
FF0000
FF0000
FFFFFC
FFFFFC
FFFFFC
FFFFFC
FFFFFC
FFFFFC
ENDCHAR
STARTCHAR ldot
ENCODING 320
SWIDTH 382 0
DWIDTH 18 0
BBX 17 36 3 0
BITMAP
FF0000
FF0000
FF0000
FF0000
FF0000
FF0000
FF0000
FF0000
FF0000
FF0000
FF0000
FF0000
FF0000
FF0000
FF0F00
FF3F80
FF3F80
FF3F80
FF3F80
FF3F80
FF1F00
FF0000
FF0000
FF0000
FF0000
FF0000
FF0000
FF0000
FF0000
FF0000
FF0000
FF0000
FF0000
FF0000
FF0000
FF0000
ENDCHAR
STARTCHAR Lslash
ENCODING 321
SWIDTH 566 0
DWIDTH 27 0
BBX 25 34 1 0
BITMAP
1FE00000
1FE00000
1FE00000
1FE00000
1FE00000
1FE00000
1FE00000
1FE00000
1FE00000
1FE00000
1FE00000
1FE30000
1FFF0000
1FFF0000
1FFF0000
FFFC0000
FFE00000
FFE00000
FFE00000
1FE00000
1FE00000
1FE00000
1FE00000
1FE00000
1FE00000
1FE00000
1FE00000
1FE00000
1FFFFF80
1FFFFF80
1FFFFF80
1FFFFF80
1FFFFF80
1FFFFF80
ENDCHAR
STARTCHAR lslash
ENCODING 322
SWIDTH 323 0
DWIDTH 16 0
BBX 14 37 1 0
BITMAP
1FE0
1FE0
1FE0
1FE0
1FE0
1FE0
1FE0
1FE0
1FE0
1FE0
1FE0
1FE0
1FE0
1FE0
1FEC
1FFC
1FFC
3FFC
FFF0
FFE0
FFE0
FFE0
1FE0
1FE0
1FE0
1FE0
1FE0
1FE0
1FE0
1FE0
1FE0
1FE0
1FE0
1FE0
1FE0
1FE0
1FE0
ENDCHAR
STARTCHAR Nacute
ENCODING 323
SWIDTH 702 0
DWIDTH 34 0
BBX 28 43 3 0
BITMAP
0001FE00
0003FC00
0007F800
0007F000
000FE000
001FC000
003F8000
00000000
00000000
FF000FF0
FF800FF0
FF800FF0
FFC00FF0
FFE00FF0
FFE00FF0
FFF00FF0
FFF00FF0
FFF80FF0
FFF80FF0
FFFC0FF0
FFFE0FF0
FFFE0FF0
FFFF0FF0
FF7F0FF0
FF3F8FF0
FF3F8FF0
FF1FCFF0
FF1FEFF0
FF0FEFF0
FF0FFFF0
FF07FFF0
FF03FFF0
FF03FFF0
FF01FFF0
FF01FFF0
FF00FFF0
FF00FFF0
FF007FF0
FF003FF0
FF003FF0
FF001FF0
FF001FF0
FF000FF0
ENDCHAR
STARTCHAR nacute
ENCODING 324
SWIDTH 563 0
DWIDTH 27 0
BBX 23 36 2 0
BITMAP
000FF8
001FF0
001FE0
003FC0
007F80
007F00
00FE00
000000
000000
000000
FE0FC0
FF7FF0
FFFFF8
FFFFFC
FFFFFC
FFFFFC
FF83FE
FF01FE
FF01FE
FF01FE
FF01FE
FF01FE
FF01FE
FF01FE
FF01FE
FF01FE
FF01FE
FF01FE
FF01FE
FF01FE
FF01FE
FF01FE
FF01FE
FF01FE
FF01FE
FF01FE
ENDCHAR
STARTCHAR uni0145
ENCODING 325
SWIDTH 702 0
DWIDTH 34 0
BBX 28 46 3 -12
BITMAP
FF000FF0
FF800FF0
FF800FF0
FFC00FF0
FFE00FF0
FFE00FF0
FFF00FF0
FFF00FF0
FFF80FF0
FFF80FF0
FFFC0FF0
FFFE0FF0
FFFE0FF0
FFFF0FF0
FF7F0FF0
FF3F8FF0
FF3F8FF0
FF1FCFF0
FF1FEFF0
FF0FEFF0
FF0FFFF0
FF07FFF0
FF03FFF0
FF03FFF0
FF01FFF0
FF01FFF0
FF00FFF0
FF00FFF0
FF007FF0
FF003FF0
FF003FF0
FF001FF0
FF001FF0
FF000FF0
00000000
00000000
001F8000
001F8000
001F8000
001F8000
001F0000
001F0000
001F0000
003E0000
003E0000
000C0000
ENDCHAR
STARTCHAR uni0146
ENCODING 326
SWIDTH 563 0
DWIDTH 27 0
BBX 23 37 2 -11
BITMAP
FE0FC0
FF7FF0
FFFFF8
FFFFFC
FFFFFC
FFFFFC
FF83FE
FF01FE
FF01FE
FF01FE
FF01FE
FF01FE
FF01FE
FF01FE
FF01FE
FF01FE
FF01FE
FF01FE
FF01FE
FF01FE
FF01FE
FF01FE
FF01FE
FF01FE
FF01FE
FF01FE
000000
007C00
007C00
007C00
007C00
007C00
00FC00
00F800
00F800
01F000
002000
ENDCHAR
STARTCHAR Ncaron
ENCODING 327
SWIDTH 702 0
DWIDTH 34 0
BBX 28 43 3 0
BITMAP
0FE07F00
07F0FE00
03F9FC00
01FFF800
007FE000
003FC000
001F8000
00000000
00000000
FF000FF0
FF800FF0
FF800FF0
FFC00FF0
FFE00FF0
FFE00FF0
FFF00FF0
FFF00FF0
FFF80FF0
FFF80FF0
FFFC0FF0
FFFE0FF0
FFFE0FF0
FFFF0FF0
FF7F0FF0
FF3F8FF0
FF3F8FF0
FF1FCFF0
FF1FEFF0
FF0FEFF0
FF0FFFF0
FF07FFF0
FF03FFF0
FF03FFF0
FF01FFF0
FF01FFF0
FF00FFF0
FF00FFF0
FF007FF0
FF003FF0
FF003FF0
FF001FF0
FF001FF0
FF000FF0
ENDCHAR
STARTCHAR ncaron
ENCODING 328
SWIDTH 563 0
DWIDTH 27 0
BBX 23 36 2 0
BITMAP
7F83FC
1FC7F0
0FEFE0
07FFC0
03FF80
01FF00
00FE00
000000
000000
000000
FE0FC0
FF7FF0
FFFFF8
FFFFFC
FFFFFC
FFFFFC
FF83FE
FF01FE
FF01FE
FF01FE
FF01FE
FF01FE
FF01FE
FF01FE
FF01FE
FF01FE
FF01FE
FF01FE
FF01FE
FF01FE
FF01FE
FF01FE
FF01FE
FF01FE
FF01FE
FF01FE
ENDCHAR
STARTCHAR napostrophe
ENCODING 329
SWIDTH 563 0
DWIDTH 27 0
BBX 28 36 -3 0
BITMAP
3E000000
3E000000
3E000000
3E000000
7E000000
7C000000
7C000000
F8000000
78000000
10000000
07F07E00
07FBFF80
07FFFFC0
07FFFFE0
07FFFFE0
07FFFFE0
07FC1FF0
07F80FF0
07F80FF0
07F80FF0
07F80FF0
07F80FF0
07F80FF0
07F80FF0
07F80FF0
07F80FF0
07F80FF0
07F80FF0
07F80FF0
07F80FF0
07F80FF0
07F80FF0
07F80FF0
07F80FF0
07F80FF0
07F80FF0
ENDCHAR
STARTCHAR Eng
ENCODING 330
SWIDTH 709 0
DWIDTH 34 0
BBX 28 44 3 -10
BITMAP
FF000FF0
FF800FF0
FF800FF0
FFC00FF0
FFC00FF0
FFE00FF0
FFF00FF0
FFF00FF0
FFF80FF0
FFF80FF0
FFFC0FF0
FFFE0FF0
FFFE0FF0
FFFF0FF0
FF7F0FF0
FF7F8FF0
FF3F8FF0
FF1FCFF0
FF1FEFF0
FF0FEFF0
FF0FFFF0
FF07FFF0
FF07FFF0
FF03FFF0
FF01FFF0
FF01FFF0
FF00FFF0
FF00FFF0
FF007FF0
FF007FF0
FF003FF0
FF001FF0
FF001FF0
FF000FF0
00000FF0
00000FF0
00000FF0
00001FF0
0001FFF0
0001FFE0
0001FFC0
0001FFC0
0001FF00
0001FC00
ENDCHAR
STARTCHAR eng
ENCODING 331
SWIDTH 562 0
DWIDTH 27 0
BBX 23 36 2 -10
BITMAP
FF0FC0
FF3FF0
FF7FF8
FFFFF8
FFFFFC
FFFFFC
FFC3FE
FF01FE
FF01FE
FF01FE
FF01FE
FF01FE
FF01FE
FF01FE
FF01FE
FF01FE
FF01FE
FF01FE
FF01FE
FF01FE
FF01FE
FF01FE
FF01FE
FF01FE
FF01FE
FF01FE
0001FE
0001FE
0001FE
0003FE
003FFC
003FFC
003FF8
003FF0
003FE0
003F80
ENDCHAR
STARTCHAR Omacron
ENCODING 332
SWIDTH 690 0
DWIDTH 33 0
BBX 29 41 2 0
BITMAP
03FFFE00
03FFFE00
03FFFE00
03FFFE00
00000000
00000000
00000000
003FE000
00FFF800
03FFFE00
07FFFF00
0FFFFF80
1FFFFFC0
3FF07FE0
3FC03FE0
7FC01FF0
7F800FF0
FF800FF8
FF0007F8
FF0007F8
FF0007F8
FF0007F8
FF0007F8
FF0007F8
FF0007F8
FF0007F8
FF0007F8
FF0007F8
FF0007F8
FF0007F8
FF800FF8
7F800FF0
7FC01FF0
3FE03FE0
3FF07FE0
1FFFFFC0
0FFFFF80
07FFFF00
03FFFE00
00FFF800
003FE000
ENDCHAR
STARTCHAR omacron
ENCODING 333
SWIDTH 561 0
DWIDTH 27 0
BBX 25 34 1 0
BITMAP
0FFFF800
0FFFF800
0FFFF800
0FFFF800
00000000
00000000
00000000
00000000
007F0000
03FFE000
07FFF000
1FFFF800
1FFFFC00
3FFFFE00
7FC3FE00
7F80FF00
7F80FF00
7F00FF00
FF007F80
FF007F80
FF007F80
FF007F80
FF007F80
FF007F80
7F00FF00
7F80FF00
7F80FF00
7FC1FE00
3FFFFE00
1FFFFC00
1FFFF800
07FFF000
03FFE000
00FF8000
ENDCHAR
STARTCHAR Obreve
ENCODING 334
SWIDTH 690 0
DWIDTH 33 0
BBX 29 43 2 0
BITMAP
03E03E00
03F07E00
03FFFE00
01FFFC00
00FFF800
007FF000
001FC000
00000000
00000000
003FE000
00FFF800
03FFFE00
07FFFF00
0FFFFF80
1FFFFFC0
3FF07FE0
3FC03FE0
7FC01FF0
7F800FF0
FF800FF8
FF0007F8
FF0007F8
FF0007F8
FF0007F8
FF0007F8
FF0007F8
FF0007F8
FF0007F8
FF0007F8
FF0007F8
FF0007F8
FF0007F8
FF800FF8
7F800FF0
7FC01FF0
3FE03FE0
3FF07FE0
1FFFFFC0
0FFFFF80
07FFFF00
03FFFE00
00FFF800
003FE000
ENDCHAR
STARTCHAR obreve
ENCODING 335
SWIDTH 561 0
DWIDTH 27 0
BBX 25 36 1 0
BITMAP
0F80F800
0FC1F800
0FFFF800
07FFF000
03FFE000
01FFC000
007F0000
00000000
00000000
00000000
007F0000
03FFE000
07FFF000
1FFFF800
1FFFFC00
3FFFFE00
7FC3FE00
7F80FF00
7F80FF00
7F00FF00
FF007F80
FF007F80
FF007F80
FF007F80
FF007F80
FF007F80
7F00FF00
7F80FF00
7F80FF00
7FC1FE00
3FFFFE00
1FFFFC00
1FFFF800
07FFF000
03FFE000
00FF8000
ENDCHAR
STARTCHAR Ohungarumlaut
ENCODING 336
SWIDTH 690 0
DWIDTH 33 0
BBX 29 43 2 0
BITMAP
001FC7F0
003F8FC0
003F1F80
007E3F80
00FC7F00
01FC7E00
01F8FC00
00000000
00000000
003FE000
00FFF800
03FFFE00
07FFFF00
0FFFFF80
1FFFFFC0
3FF07FE0
3FC03FE0
7FC01FF0
7F800FF0
FF800FF8
FF0007F8
FF0007F8
FF0007F8
FF0007F8
FF0007F8
FF0007F8
FF0007F8
FF0007F8
FF0007F8
FF0007F8
FF0007F8
FF0007F8
FF800FF8
7F800FF0
7FC01FF0
3FE03FE0
3FF07FE0
1FFFFFC0
0FFFFF80
07FFFF00
03FFFE00
00FFF800
003FE000
ENDCHAR
STARTCHAR ohungarumlaut
ENCODING 337
SWIDTH 561 0
DWIDTH 27 0
BBX 26 36 1 0
BITMAP
007F1FC0
00FE3F00
00FC7E00
01F8FE00
03F1FC00
07F1F800
07E3F000
00000000
00000000
00000000
007F0000
03FFE000
07FFF000
1FFFF800
1FFFFC00
3FFFFE00
7FC3FE00
7F80FF00
7F80FF00
7F00FF00
FF007F80
FF007F80
FF007F80
FF007F80
FF007F80
FF007F80
7F00FF00
7F80FF00
7F80FF00
7FC1FE00
3FFFFE00
1FFFFC00
1FFFF800
07FFF000
03FFE000
00FF8000
ENDCHAR
STARTCHAR OE
ENCODING 338
SWIDTH 973 0
DWIDTH 47 0
BBX 43 34 2 0
BITMAP
001FFFFFFFE0
00FFFFFFFFE0
03FFFFFFFFE0
07FFFFFFFFE0
0FFFFFFFFFE0
1FFFFFFFFFE0
3FF00FF00000
3FC00FF00000
7F800FF00000
7F800FF00000
7F800FF00000
FF000FF00000
FF000FF00000
FF000FFFFF80
FF000FFFFF80
FF000FFFFF80
FF000FFFFF80
FF000FFFFF80
FF000FFFFF80
FF000FF00000
FF000FF00000
FF000FF00000
FF000FF00000
7F800FF00000
7F800FF00000
7FC00FF00000
3FC00FF00000
3FF00FF00000
1FFFFFFFFFE0
0FFFFFFFFFE0
07FFFFFFFFE0
03FFFFFFFFE0
00FFFFFFFFE0
001FFFFFFFE0
ENDCHAR
STARTCHAR oe
ENCODING 339
SWIDTH 900 0
DWIDTH 43 0
BBX 39 26 2 0
BITMAP
00FF007F00
03FFC3FFC0
0FFFF7FFF0
1FFFFFFFF8
3FFFFFFFF8
3FFFFFFFFC
7FC3FFE3FC
7F81FFC1FE
FF00FF81FE
FF00FF80FE
FF00FF80FE
FF00FFFFFE
FF00FFFFFE
FF00FFFFFE
FF00FFFFFE
FF00FFFFFE
FF00FF8000
FF00FF8000
7F81FFC000
7FC3FFE038
7FFFFFFFFC
3FFFFFFFFC
1FFFFFFFFE
0FFFF7FFFE
03FFE1FFF8
00FF007F80
ENDCHAR
STARTCHAR Racute
ENCODING 340
SWIDTH 652 0
DWIDTH 31 0
BBX 28 43 2 0
BITMAP
0007F800
000FF000
001FE000
003FC000
003F8000
007F0000
00FE0000
00000000
00000000
FFFFE000
FFFFF800
FFFFFE00
FFFFFF00
FFFFFF80
FFFFFFC0
FF80FFC0
FF807FC0
FF803FE0
FF803FE0
FF801FE0
FF801FE0
FF803FE0
FF803FC0
FF807FC0
FF80FFC0
FFFFFF80
FFFFFF00
FFFFFE00
FFFFFC00
FFFFF800
FFFFFC00
FF87FC00
FF83FE00
FF83FE00
FF81FF00
FF81FF00
FF80FF80
FF80FF80
FF807FC0
FF807FC0
FF803FE0
FF803FE0
FF801FF0
ENDCHAR
STARTCHAR racute
ENCODING 341
SWIDTH 378 0
DWIDTH 18 0
BBX 17 36 2 0
BITMAP
00FF80
00FF00
01FE00
03FC00
07F800
07F000
0FE000
000000
000000
000000
FF1F00
FF7F00
FFFF00
FFFF00
FFFF00
FFFF00
FFFE00
FFC000
FF8000
FF0000
FF0000
FF0000
FF0000
FF0000
FF0000
FF0000
FF0000
FF0000
FF0000
FF0000
FF0000
FF0000
FF0000
FF0000
FF0000
FF0000
ENDCHAR
STARTCHAR uni0156
ENCODING 342
SWIDTH 652 0
DWIDTH 31 0
BBX 28 45 2 -11
BITMAP
FFFFE000
FFFFF800
FFFFFE00
FFFFFF00
FFFFFF80
FFFFFFC0
FF80FFC0
FF807FC0
FF803FE0
FF803FE0
FF801FE0
FF801FE0
FF803FE0
FF803FC0
FF807FC0
FF80FFC0
FFFFFF80
FFFFFF00
FFFFFE00
FFFFFC00
FFFFF800
FFFFFC00
FF87FC00
FF83FE00
FF83FE00
FF81FF00
FF81FF00
FF80FF80
FF80FF80
FF807FC0
FF807FC0
FF803FE0
FF803FE0
FF801FF0
00000000
003E0000
003E0000
003E0000
003E0000
003E0000
007C0000
007C0000
00F80000
00780000
00100000
ENDCHAR
STARTCHAR uni0157
ENCODING 343
SWIDTH 378 0
DWIDTH 18 0
BBX 16 37 2 -11
BITMAP
FF1F
FF7F
FFFF
FFFF
FFFF
FFFF
FFFE
FFC0
FF80
FF00
FF00
FF00
FF00
FF00
FF00
FF00
FF00
FF00
FF00
FF00
FF00
FF00
FF00
FF00
FF00
FF00
0000
3E00
3E00
3E00
3E00
7C00
7C00
7C00
F800
7800
1000
ENDCHAR
STARTCHAR Rcaron
ENCODING 344
SWIDTH 652 0
DWIDTH 31 0
BBX 28 43 2 0
BITMAP
3F81FC00
1FC3F800
0FE7F000
07FFC000
03FF8000
00FF0000
007E0000
00000000
00000000
FFFFE000
FFFFF800
FFFFFE00
FFFFFF00
FFFFFF80
FFFFFFC0
FF80FFC0
FF807FC0
FF803FE0
FF803FE0
FF801FE0
FF801FE0
FF803FE0
FF803FC0
FF807FC0
FF80FFC0
FFFFFF80
FFFFFF00
FFFFFE00
FFFFFC00
FFFFF800
FFFFFC00
FF87FC00
FF83FE00
FF83FE00
FF81FF00
FF81FF00
FF80FF80
FF80FF80
FF807FC0
FF807FC0
FF803FE0
FF803FE0
FF801FF0
ENDCHAR
STARTCHAR rcaron
ENCODING 345
SWIDTH 378 0
DWIDTH 18 0
BBX 21 36 -1 0
BITMAP
FF03F8
3F8FE0
1FDFC0
0FFF80
07FF00
03FE00
00FC00
000000
000000
000000
1FE3E0
1FEFE0
1FFFE0
1FFFE0
1FFFE0
1FFFE0
1FFFC0
1FF800
1FF000
1FE000
1FE000
1FE000
1FE000
1FE000
1FE000
1FE000
1FE000
1FE000
1FE000
1FE000
1FE000
1FE000
1FE000
1FE000
1FE000
1FE000
ENDCHAR
STARTCHAR Sacute
ENCODING 346
SWIDTH 625 0
DWIDTH 30 0
BBX 27 43 1 0
BITMAP
0001FF00
0003FC00
0003FC00
0007F800
000FF000
000FE000
001FC000
00000000
00000000
003FE000
01FFFC00
07FFFE00
0FFFFF80
1FFFFF80
3FFFFFC0
3FF07FE0
3FC03FE0
3FC01FE0
7FC01FE0
3FC00000
3FE00000
3FF00000
1FFE0000
1FFFC000
0FFFF000
03FFFC00
01FFFF00
007FFF80
000FFFC0
0001FFC0
00007FE0
00003FE0
FF801FE0
7F801FE0
7F801FE0
7FC01FE0
3FF07FE0
3FFFFFE0
1FFFFFC0
0FFFFF80
07FFFF00
01FFFC00
003FE000
ENDCHAR
STARTCHAR sacute
ENCODING 347
SWIDTH 512 0
DWIDTH 25 0
BBX 22 36 1 0
BITMAP
000FF0
001FE0
003FC0
007F80
007F00
00FE00
01FC00
000000
000000
000000
01FF00
07FFC0
1FFFF0
3FFFF8
3FFFF8
7F87FC
7F83FC
7F03FC
7F8000
7FC000
7FFC00
3FFF80
1FFFE0
0FFFF0
03FFF8
007FFC
0007FC
0003FC
FF01FC
FF01FC
7F83FC
7FFFF8
3FFFF8
1FFFF0
07FFC0
01FE00
ENDCHAR
STARTCHAR Scircumflex
ENCODING 348
SWIDTH 625 0
DWIDTH 30 0
BBX 27 43 1 0
BITMAP
000F8000
003FE000
007FF000
00FFF800
01FDFC00
07F87F00
07E03F00
00000000
00000000
003FE000
01FFFC00
07FFFE00
0FFFFF80
1FFFFF80
3FFFFFC0
3FF07FE0
3FC03FE0
3FC01FE0
7FC01FE0
3FC00000
3FE00000
3FF00000
1FFE0000
1FFFC000
0FFFF000
03FFFC00
01FFFF00
007FFF80
000FFFC0
0001FFC0
00007FE0
00003FE0
FF801FE0
7F801FE0
7F801FE0
7FC01FE0
3FF07FE0
3FFFFFE0
1FFFFFC0
0FFFFF80
07FFFF00
01FFFC00
003FE000
ENDCHAR
STARTCHAR scircumflex
ENCODING 349
SWIDTH 512 0
DWIDTH 25 0
BBX 22 36 1 0
BITMAP
00FC00
01FE00
03FF00
0FFFC0
1FCFE0
3F87F0
7F03F8
000000
000000
000000
01FF00
07FFC0
1FFFF0
3FFFF8
3FFFF8
7F87FC
7F83FC
7F03FC
7F8000
7FC000
7FFC00
3FFF80
1FFFE0
0FFFF0
03FFF8
007FFC
0007FC
0003FC
FF01FC
FF01FC
7F83FC
7FFFF8
3FFFF8
1FFFF0
07FFC0
01FE00
ENDCHAR
STARTCHAR Scedilla
ENCODING 350
SWIDTH 625 0
DWIDTH 30 0
BBX 27 45 1 -11
BITMAP
003FE000
01FFFC00
07FFFE00
0FFFFF80
1FFFFF80
3FFFFFC0
3FF07FE0
3FC03FE0
3FC01FE0
7FC01FE0
3FC00000
3FE00000
3FF00000
1FFE0000
1FFFC000
0FFFF000
03FFFC00
01FFFF00
007FFF80
000FFFC0
0001FFC0
00007FE0
00003FE0
FF801FE0
7F801FE0
7F801FE0
7FC01FE0
3FF07FE0
3FFFFFE0
1FFFFFC0
0FFFFF80
07FFFF00
01FFFC00
003FE000
001F8000
001F8000
001FF000
001FF000
0003F800
0003F800
0007F800
000FF000
000FF000
000FC000
000F0000
ENDCHAR
STARTCHAR scedilla
ENCODING 351
SWIDTH 512 0
DWIDTH 25 0
BBX 22 37 1 -11
BITMAP
01FF00
07FFC0
1FFFF0
3FFFF8
3FFFF8
7F87FC
7F83FC
7F03FC
7F8000
7FC000
7FFC00
3FFF80
1FFFE0
0FFFF0
03FFF8
007FFC
0007FC
0003FC
FF01FC
FF01FC
7F83FC
7FFFF8
3FFFF8
1FFFF0
07FFC0
01FE00
00FC00
01FC00
01FF00
01FF80
003F80
003F80
003F80
00FF80
00FF00
00FE00
00F000
ENDCHAR
STARTCHAR Scaron
ENCODING 352
SWIDTH 625 0
DWIDTH 30 0
BBX 27 43 1 0
BITMAP
0FF07F80
03F8FE00
01FDFC00
00FFF800
007FF000
003FE000
001FC000
00000000
00000000
003FE000
01FFFC00
07FFFE00
0FFFFF80
1FFFFF80
3FFFFFC0
3FF07FE0
3FC03FE0
3FC01FE0
7FC01FE0
3FC00000
3FE00000
3FF00000
1FFE0000
1FFFC000
0FFFF000
03FFFC00
01FFFF00
007FFF80
000FFFC0
0001FFC0
00007FE0
00003FE0
FF801FE0
7F801FE0
7F801FE0
7FC01FE0
3FF07FE0
3FFFFFE0
1FFFFFC0
0FFFFF80
07FFFF00
01FFFC00
003FE000
ENDCHAR
STARTCHAR scaron
ENCODING 353
SWIDTH 512 0
DWIDTH 25 0
BBX 22 36 1 0
BITMAP
7F03F8
3F87F0
1FCFE0
0FFF80
03FF00
01FE00
00FC00
000000
000000
000000
01FF00
07FFC0
1FFFF0
3FFFF8
3FFFF8
7F87FC
7F83FC
7F03FC
7F8000
7FC000
7FFC00
3FFF80
1FFFE0
0FFFF0
03FFF8
007FFC
0007FC
0003FC
FF01FC
FF01FC
7F83FC
7FFFF8
3FFFF8
1FFFF0
07FFC0
01FE00
ENDCHAR
STARTCHAR uni0162
ENCODING 354
SWIDTH 630 0
DWIDTH 30 0
BBX 28 45 1 -11
BITMAP
FFFFFFF0
FFFFFFF0
FFFFFFF0
FFFFFFF0
FFFFFFF0
FFFFFFF0
003FC000
003FC000
003FC000
003FC000
003FC000
003FC000
003FC000
003FC000
003FC000
003FC000
003FC000
003FC000
003FC000
003FC000
003FC000
003FC000
003FC000
003FC000
003FC000
003FC000
003FC000
003FC000
003FC000
003FC000
003FC000
003FC000
003FC000
003FC000
001F8000
003F8000
003FE000
003FF000
0007F000
0007F000
0007F000
001FF000
001FE000
001FC000
001E0000
ENDCHAR
STARTCHAR uni0163
ENCODING 355
SWIDTH 343 0
DWIDTH 16 0
BBX 16 43 0 -11
BITMAP
1FE0
1FE0
1FE0
1FE0
1FE0
1FE0
FFFE
FFFE
FFFE
FFFE
FFFE
1FE0
1FE0
1FE0
1FE0
1FE0
1FE0
1FE0
1FE0
1FE0
1FE0
1FE0
1FE0
1FE0
1FE0
1FF0
0FFF
0FFF
0FFF
07FF
03FF
00FE
01F8
03F8
03FE
03FF
007F
007F
007F
01FF
01FE
01FC
01E0
ENDCHAR
STARTCHAR Tcaron
ENCODING 356
SWIDTH 630 0
DWIDTH 30 0
BBX 28 43 1 0
BITMAP
0FE07F00
07F0FE00
03F9FC00
01FFF000
007FE000
003FC000
001F8000
00000000
00000000
FFFFFFF0
FFFFFFF0
FFFFFFF0
FFFFFFF0
FFFFFFF0
FFFFFFF0
003FC000
003FC000
003FC000
003FC000
003FC000
003FC000
003FC000
003FC000
003FC000
003FC000
003FC000
003FC000
003FC000
003FC000
003FC000
003FC000
003FC000
003FC000
003FC000
003FC000
003FC000
003FC000
003FC000
003FC000
003FC000
003FC000
003FC000
003FC000
ENDCHAR
STARTCHAR tcaron
ENCODING 357
SWIDTH 362 0
DWIDTH 17 0
BBX 21 39 0 0
BITMAP
0000F8
0000F8
0000F8
0000F8
0001F0
0001F0
0001F0
1FE3E0
1FE1E0
1FE040
1FE000
1FE000
1FE000
FFFE00
FFFE00
FFFE00
FFFE00
FFFE00
1FE000
1FE000
1FE000
1FE000
1FE000
1FE000
1FE000
1FE000
1FE000
1FE000
1FE000
1FE000
1FE000
1FE000
1FF000
0FFF00
0FFF00
0FFF00
07FF00
03FF00
00FE00
ENDCHAR
STARTCHAR Tbar
ENCODING 358
SWIDTH 630 0
DWIDTH 30 0
BBX 28 34 1 0
BITMAP
FFFFFFF0
FFFFFFF0
FFFFFFF0
FFFFFFF0
FFFFFFF0
FFFFFFF0
003FC000
003FC000
003FC000
003FC000
003FC000
003FC000
003FC000
07FFFC00
07FFFC00
07FFFC00
07FFFC00
07FFFC00
003FC000
003FC000
003FC000
003FC000
003FC000
003FC000
003FC000
003FC000
003FC000
003FC000
003FC000
003FC000
003FC000
003FC000
003FC000
003FC000
ENDCHAR
STARTCHAR tbar
ENCODING 359
SWIDTH 343 0
DWIDTH 16 0
BBX 17 32 -1 0
BITMAP
0FF000
0FF000
0FF000
0FF000
0FF000
0FF000
7FFF00
7FFF00
7FFF00
7FFF00
7FFF00
0FF000
0FF000
0FF000
0FF000
FFFF80
FFFF80
FFFF80
FFFF80
FFFF80
0FF000
0FF000
0FF000
0FF000
0FF000
0FF800
0FFF80
07FF80
07FF80
03FF80
01FF80
007F00
ENDCHAR
STARTCHAR Utilde
ENCODING 360
SWIDTH 664 0
DWIDTH 32 0
BBX 26 44 3 0
BITMAP
01E07C00
03FC7C00
07FFFC00
0FFFF800
0FFFF800
0F8FF000
0F03E000
00000000
00000000
00000000
FF003FC0
FF003FC0
FF003FC0
FF003FC0
FF003FC0
FF003FC0
FF003FC0
FF003FC0
FF003FC0
FF003FC0
FF003FC0
FF003FC0
FF003FC0
FF003FC0
FF003FC0
FF003FC0
FF003FC0
FF003FC0
FF003FC0
FF003FC0
FF003FC0
FF003FC0
FF003FC0
FF003FC0
FF003FC0
FF003FC0
FF807FC0
7FC0FF80
7FFFFF80
3FFFFF00
1FFFFE00
0FFFFC00
03FFF000
00FF8000
ENDCHAR
STARTCHAR utilde
ENCODING 361
SWIDTH 563 0
DWIDTH 27 0
BBX 23 37 2 0
BITMAP
03C0F8
0FF0F0
0FFFF0
1FFFF0
1FFFE0
1E1FE0
3E0780
000000
000000
000000
000000
FF01FE
FF01FE
FF01FE
FF01FE
FF01FE
FF01FE
FF01FE
FF01FE
FF01FE
FF01FE
FF01FE
FF01FE
FF01FE
FF01FE
FF01FE
FF01FE
FF01FE
FF01FE
FF01FE
FF87FE
7FFFFE
7FFFFE
7FFFFE
3FFFFE
1FF9FE
07F1FE
ENDCHAR
STARTCHAR Umacron
ENCODING 362
SWIDTH 664 0
DWIDTH 32 0
BBX 26 41 3 0
BITMAP
07FFF800
07FFF800
07FFF800
07FFF800
00000000
00000000
00000000
FF003FC0
FF003FC0
FF003FC0
FF003FC0
FF003FC0
FF003FC0
FF003FC0
FF003FC0
FF003FC0
FF003FC0
FF003FC0
FF003FC0
FF003FC0
FF003FC0
FF003FC0
FF003FC0
FF003FC0
FF003FC0
FF003FC0
FF003FC0
FF003FC0
FF003FC0
FF003FC0
FF003FC0
FF003FC0
FF003FC0
FF807FC0
7FC0FF80
7FFFFF80
3FFFFF00
1FFFFE00
0FFFFC00
03FFF000
00FF8000
ENDCHAR
STARTCHAR umacron
ENCODING 363
SWIDTH 563 0
DWIDTH 27 0
BBX 23 34 2 0
BITMAP
1FFFF0
1FFFF0
1FFFF0
1FFFF0
000000
000000
000000
000000
FF01FE
FF01FE
FF01FE
FF01FE
FF01FE
FF01FE
FF01FE
FF01FE
FF01FE
FF01FE
FF01FE
FF01FE
FF01FE
FF01FE
FF01FE
FF01FE
FF01FE
FF01FE
FF01FE
FF87FE
7FFFFE
7FFFFE
7FFFFE
3FFFFE
1FF9FE
07F1FE
ENDCHAR
STARTCHAR Ubreve
ENCODING 364
SWIDTH 664 0
DWIDTH 32 0
BBX 26 43 3 0
BITMAP
0FC0FC00
0FC1F800
07FFF800
07FFF800
03FFF000
01FFE000
007F0000
00000000
00000000
FF003FC0
FF003FC0
FF003FC0
FF003FC0
FF003FC0
FF003FC0
FF003FC0
FF003FC0
FF003FC0
FF003FC0
FF003FC0
FF003FC0
FF003FC0
FF003FC0
FF003FC0
FF003FC0
FF003FC0
FF003FC0
FF003FC0
FF003FC0
FF003FC0
FF003FC0
FF003FC0
FF003FC0
FF003FC0
FF003FC0
FF807FC0
7FC0FF80
7FFFFF80
3FFFFF00
1FFFFE00
0FFFFC00
03FFF000
00FF8000
ENDCHAR
STARTCHAR ubreve
ENCODING 365
SWIDTH 563 0
DWIDTH 27 0
BBX 23 36 2 0
BITMAP
1F01F0
1F83F0
1FFFF0
0FFFE0
07FFC0
03FF80
00FE00
000000
000000
000000
FF01FE
FF01FE
FF01FE
FF01FE
FF01FE
FF01FE
FF01FE
FF01FE
FF01FE
FF01FE
FF01FE
FF01FE
FF01FE
FF01FE
FF01FE
FF01FE
FF01FE
FF01FE
FF01FE
FF87FE
7FFFFE
7FFFFE
7FFFFE
3FFFFE
1FF9FE
07F1FE
ENDCHAR
STARTCHAR Uring
ENCODING 366
SWIDTH 664 0
DWIDTH 32 0
BBX 26 45 3 0
BITMAP
001E0000
007F8000
00F3C000
00E1C000
00E1C000
00E1C000
00F3C000
007F8000
003F0000
00000000
00000000
FF003FC0
FF003FC0
FF003FC0
FF003FC0
FF003FC0
FF003FC0
FF003FC0
FF003FC0
FF003FC0
FF003FC0
FF003FC0
FF003FC0
FF003FC0
FF003FC0
FF003FC0
FF003FC0
FF003FC0
FF003FC0
FF003FC0
FF003FC0
FF003FC0
FF003FC0
FF003FC0
FF003FC0
FF003FC0
FF003FC0
FF807FC0
7FC0FF80
7FFFFF80
3FFFFF00
1FFFFE00
0FFFFC00
03FFF000
00FF8000
ENDCHAR
STARTCHAR uring
ENCODING 367
SWIDTH 563 0
DWIDTH 27 0
BBX 23 38 2 0
BITMAP
007C00
00FF00
01E700
018380
038380
038380
01C700
00FF00
007C00
000000
000000
000000
FF01FE
FF01FE
FF01FE
FF01FE
FF01FE
FF01FE
FF01FE
FF01FE
FF01FE
FF01FE
FF01FE
FF01FE
FF01FE
FF01FE
FF01FE
FF01FE
FF01FE
FF01FE
FF01FE
FF87FE
7FFFFE
7FFFFE
7FFFFE
3FFFFE
1FF9FE
07F1FE
ENDCHAR
STARTCHAR Uhungarumlaut
ENCODING 368
SWIDTH 664 0
DWIDTH 32 0
BBX 26 43 3 0
BITMAP
007F1FC0
007E3F80
00FC7F00
01F87E00
03F8FC00
03F1F800
07E3F000
00000000
00000000
FF003FC0
FF003FC0
FF003FC0
FF003FC0
FF003FC0
FF003FC0
FF003FC0
FF003FC0
FF003FC0
FF003FC0
FF003FC0
FF003FC0
FF003FC0
FF003FC0
FF003FC0
FF003FC0
FF003FC0
FF003FC0
FF003FC0
FF003FC0
FF003FC0
FF003FC0
FF003FC0
FF003FC0
FF003FC0
FF003FC0
FF807FC0
7FC0FF80
7FFFFF80
3FFFFF00
1FFFFE00
0FFFFC00
03FFF000
00FF8000
ENDCHAR
STARTCHAR uhungarumlaut
ENCODING 369
SWIDTH 563 0
DWIDTH 27 0
BBX 25 36 2 0
BITMAP
00FE3F80
01FC7E00
01F8FC00
03F1FC00
07E3F800
0FE3F000
0FC7E000
00000000
00000000
00000000
FF01FE00
FF01FE00
FF01FE00
FF01FE00
FF01FE00
FF01FE00
FF01FE00
FF01FE00
FF01FE00
FF01FE00
FF01FE00
FF01FE00
FF01FE00
FF01FE00
FF01FE00
FF01FE00
FF01FE00
FF01FE00
FF01FE00
FF87FE00
7FFFFE00
7FFFFE00
7FFFFE00
3FFFFE00
1FF9FE00
07F1FE00
ENDCHAR
STARTCHAR Uogonek
ENCODING 370
SWIDTH 664 0
DWIDTH 32 0
BBX 26 42 3 -8
BITMAP
FF003FC0
FF003FC0
FF003FC0
FF003FC0
FF003FC0
FF003FC0
FF003FC0
FF003FC0
FF003FC0
FF003FC0
FF003FC0
FF003FC0
FF003FC0
FF003FC0
FF003FC0
FF003FC0
FF003FC0
FF003FC0
FF003FC0
FF003FC0
FF003FC0
FF003FC0
FF003FC0
FF003FC0
FF003FC0
FF003FC0
FF807FC0
7FC0FF80
7FFFFF80
3FFFFF00
1FFFFE00
0FFFFC00
03FFF000
00FFE000
0007C000
0007C000
0007E000
0007FC00
0007FC00
0007FC00
0003FC00
0000F800
ENDCHAR
STARTCHAR uogonek
ENCODING 371
SWIDTH 563 0
DWIDTH 27 0
BBX 23 36 2 -10
BITMAP
FF01FE
FF01FE
FF01FE
FF01FE
FF01FE
FF01FE
FF01FE
FF01FE
FF01FE
FF01FE
FF01FE
FF01FE
FF01FE
FF01FE
FF01FE
FF01FE
FF01FE
FF01FE
FF01FE
FF87FE
7FFFFE
7FFFFE
7FFFFE
3FFFFE
1FFDFE
07F1FE
0001F8
0003F0
0007E0
0007E0
0007E0
0007FC
0007FC
0007FC
0003FC
0000F8
ENDCHAR
STARTCHAR Wcircumflex
ENCODING 372
SWIDTH 869 0
DWIDTH 42 0
BBX 40 43 1 0
BITMAP
00007E0000
0000FF0000
0001FF8000
0007FFE000
000FE7F000
001FC3F800
003F81FC00
0000000000
0000000000
FF00FF00FF
FF00FF00FF
FF00FF00FF
FF00FF01FE
7F81FF01FE
7F81FF81FE
7F81FF81FE
7F81FF81FE
7F81FF83FC
3FC3FFC3FC
3FC3FFC3FC
3FC3FFC3FC
3FC3FFC3FC
1FC7FFC3F8
1FC7FFE7F8
1FE7FFE7F8
1FE7EFE7F8
1FE7E7E7F0
0FEFE7F7F0
0FEFE7FFF0
0FFFE7FFF0
0FFFC7FFF0
0FFFC3FFE0
07FFC3FFE0
07FFC3FFE0
07FF83FFE0
07FF81FFE0
07FF81FFC0
03FF81FFC0
03FF01FFC0
03FF00FFC0
03FF00FFC0
01FF00FF80
01FF00FF80
ENDCHAR
STARTCHAR wcircumflex
ENCODING 373
SWIDTH 726 0
DWIDTH 35 0
BBX 33 36 1 0
BITMAP
0003E00000
000FF80000
001FFC0000
003FFE0000
007F7F0000
01FC3F8000
01F80FC000
0000000000
0000000000
0000000000
FE03E03F80
FE07F07F80
FF07F07F80
FF07F07F80
7F07F07F00
7F0FF87F00
7F0FF87F00
7F0FF8FF00
3F8FF8FE00
3F9FFCFE00
3F9FFCFE00
3F9F7CFE00
3FBF7CFC00
1FBF7FFC00
1FBE3FFC00
1FFE3FFC00
1FFE3FFC00
0FFE3FF800
0FFC1FF800
0FFC1FF800
0FFC1FF800
07F81FF000
07F80FF000
07F80FF000
07F80FF000
07F007E000
ENDCHAR
STARTCHAR Ycircumflex
ENCODING 374
SWIDTH 627 0
DWIDTH 30 0
BBX 30 43 0 0
BITMAP
000FC000
001FE000
003FF000
00FFFC00
01FCFE00
03F87F00
07F03F80
00000000
00000000
FF8007FC
7F8007F8
7FC00FF8
3FC00FF0
3FE01FF0
1FE01FE0
1FF01FE0
0FF03FC0
0FF03FC0
07F87F80
07F87F80
03FCFF00
03FCFF00
01FEFE00
01FFFE00
00FFFC00
00FFFC00
007FF800
007FF800
003FF000
003FF000
001FE000
001FE000
001FE000
001FE000
001FE000
001FE000
001FE000
001FE000
001FE000
001FE000
001FE000
001FE000
001FE000
ENDCHAR
STARTCHAR ycircumflex
ENCODING 375
SWIDTH 518 0
DWIDTH 25 0
BBX 25 46 0 -10
BITMAP
007E0000
00FF8000
01FFC000
03FFE000
07F7F000
1FC3F800
1F80FC00
00000000
00000000
00000000
FF80FF80
FF80FF80
7F80FF00
7F80FF00
7FC1FF00
3FC1FE00
3FC1FE00
3FC3FE00
1FE3FC00
1FE3FC00
0FE3F800
0FF7F800
0FF7F800
07F7F000
07FFF000
07FFF000
03FFE000
03FFE000
03FFE000
01FFC000
01FFC000
01FFC000
00FF8000
00FF8000
00FF8000
007F0000
007F0000
00FF0000
00FE0000
01FE0000
1FFE0000
1FFC0000
1FF80000
1FF80000
1FF00000
1FC00000
ENDCHAR
STARTCHAR Ydieresis
ENCODING 376
SWIDTH 627 0
DWIDTH 30 0
BBX 30 42 0 0
BITMAP
01E01E00
03F03F00
07F03F80
07F83F80
03F03F00
01E01E00
00000000
00000000
FF8007FC
7F8007F8
7FC00FF8
3FC00FF0
3FE01FF0
1FE01FE0
1FF01FE0
0FF03FC0
0FF03FC0
07F87F80
07F87F80
03FCFF00
03FCFF00
01FEFE00
01FFFE00
00FFFC00
00FFFC00
007FF800
007FF800
003FF000
003FF000
001FE000
001FE000
001FE000
001FE000
001FE000
001FE000
001FE000
001FE000
001FE000
001FE000
001FE000
001FE000
001FE000
ENDCHAR
STARTCHAR Zacute
ENCODING 377
SWIDTH 609 0
DWIDTH 29 0
BBX 27 43 1 0
BITMAP
0001FE00
0003FC00
0007F800
000FF000
000FE000
001FC000
003F8000
00000000
00000000
FFFFFFE0
FFFFFFE0
FFFFFFE0
FFFFFFE0
FFFFFFE0
FFFFFFC0
0000FF80
0000FF80
0001FF00
0003FE00
0003FE00
0007FC00
000FF800
000FF800
001FF000
003FE000
003FE000
007FC000
00FF8000
00FF8000
01FF0000
03FE0000
03FE0000
07FC0000
0FF80000
0FF80000
1FF00000
3FE00000
7FFFFFE0
7FFFFFE0
7FFFFFE0
7FFFFFE0
7FFFFFE0
7FFFFFE0
ENDCHAR
STARTCHAR zacute
ENCODING 378
SWIDTH 514 0
DWIDTH 25 0
BBX 21 36 2 0
BITMAP
001FF0
003FC0
003F80
007F00
00FF00
01FE00
01FC00
000000
000000
000000
FFFFF8
FFFFF8
FFFFF8
FFFFF8
FFFFF8
FFFFF0
003FE0
003FC0
007FC0
00FF80
00FF00
01FF00
03FE00
07FC00
07F800
0FF800
1FF000
1FE000
3FE000
7FC000
FFFFF8
FFFFF8
FFFFF8
FFFFF8
FFFFF8
FFFFF8
ENDCHAR
STARTCHAR Zdotaccent
ENCODING 379
SWIDTH 609 0
DWIDTH 29 0
BBX 27 44 1 0
BITMAP
000F0000
001F8000
003FC000
003FC000
003FC000
001F8000
000F0000
00000000
00000000
00000000
FFFFFFE0
FFFFFFE0
FFFFFFE0
FFFFFFE0
FFFFFFE0
FFFFFFC0
0000FF80
0000FF80
0001FF00
0003FE00
0003FE00
0007FC00
000FF800
000FF800
001FF000
003FE000
003FE000
007FC000
00FF8000
00FF8000
01FF0000
03FE0000
03FE0000
07FC0000
0FF80000
0FF80000
1FF00000
3FE00000
7FFFFFE0
7FFFFFE0
7FFFFFE0
7FFFFFE0
7FFFFFE0
7FFFFFE0
ENDCHAR
STARTCHAR zdotaccent
ENCODING 380
SWIDTH 514 0
DWIDTH 25 0
BBX 21 37 2 0
BITMAP
00F000
01FC00
01FC00
03FC00
01FC00
01FC00
00F000
000000
000000
000000
000000
FFFFF8
FFFFF8
FFFFF8
FFFFF8
FFFFF8
FFFFF0
003FE0
003FC0
007FC0
00FF80
00FF00
01FF00
03FE00
07FC00
07F800
0FF800
1FF000
1FE000
3FE000
7FC000
FFFFF8
FFFFF8
FFFFF8
FFFFF8
FFFFF8
FFFFF8
ENDCHAR
STARTCHAR Zcaron
ENCODING 381
SWIDTH 609 0
DWIDTH 29 0
BBX 27 43 1 0
BITMAP
0FE07F00
07F0FE00
03F9FC00
01FFF000
007FE000
003FC000
001F8000
00000000
00000000
FFFFFFE0
FFFFFFE0
FFFFFFE0
FFFFFFE0
FFFFFFE0
FFFFFFC0
0000FF80
0000FF80
0001FF00
0003FE00
0003FE00
0007FC00
000FF800
000FF800
001FF000
003FE000
003FE000
007FC000
00FF8000
00FF8000
01FF0000
03FE0000
03FE0000
07FC0000
0FF80000
0FF80000
1FF00000
3FE00000
7FFFFFE0
7FFFFFE0
7FFFFFE0
7FFFFFE0
7FFFFFE0
7FFFFFE0
ENDCHAR
STARTCHAR zcaron
ENCODING 382
SWIDTH 514 0
DWIDTH 25 0
BBX 21 36 2 0
BITMAP
FE07F8
3F8FE0
1FDFC0
0FFF80
07FF00
03FE00
01F800
000000
000000
000000
FFFFF8
FFFFF8
FFFFF8
FFFFF8
FFFFF8
FFFFF0
003FE0
003FC0
007FC0
00FF80
00FF00
01FF00
03FE00
07FC00
07F800
0FF800
1FF000
1FE000
3FE000
7FC000
FFFFF8
FFFFF8
FFFFF8
FFFFF8
FFFFF8
FFFFF8
ENDCHAR
STARTCHAR longs
ENCODING 383
SWIDTH 263 0
DWIDTH 13 0
BBX 14 37 2 0
BITMAP
01FC
0FFC
1FFC
3FFC
7FFC
7FFC
7FC0
7F80
FF00
FF00
FF00
FF00
FF00
FF00
FF00
FF00
FF00
FF00
FF00
FF00
FF00
FF00
FF00
FF00
FF00
FF00
FF00
FF00
FF00
FF00
FF00
FF00
FF00
FF00
FF00
FF00
FF00
ENDCHAR
STARTCHAR uni018F
ENCODING 399
SWIDTH 698 0
DWIDTH 34 0
BBX 30 34 2 0
BITMAP
01FFC000
3FFFF800
3FFFFE00
3FFFFF80
1FFFFFC0
1FFFFFE0
1E00FFE0
00003FF0
00001FF0
00000FF8
000007F8
000007F8
000007FC
000007FC
FFFFFFFC
FFFFFFFC
FFFFFFFC
FFFFFFFC
FFFFFFFC
FFFFFFFC
FF0007FC
FF0007FC
FF0007F8
FF0007F8
7F800FF8
7F800FF0
3FC01FF0
3FF07FE0
1FFFFFE0
0FFFFFC0
0FFFFF80
03FFFE00
01FFFC00
003FE000
ENDCHAR
STARTCHAR florin
ENCODING 402
SWIDTH 370 0
DWIDTH 18 0
BBX 19 47 -1 -10
BITMAP
001FE0
007FE0
01FFE0
01FFE0
03FFE0
03FFC0
07FC00
07F800
07F800
07F800
07F800
7FFFC0
7FFFC0
7FFFC0
7FFFC0
7FFFC0
07F800
07F800
07F800
07F800
07F800
07F800
07F800
07F800
07F800
07F800
07F800
07F800
07F800
07F800
07F800
07F800
07F800
07F800
07F800
07F800
07F800
07F800
07F800
07F800
0FF800
FFF000
FFF000
FFE000
FFE000
FF8000
FE0000
ENDCHAR
STARTCHAR Ohorn
ENCODING 416
SWIDTH 709 0
DWIDTH 34 0
BBX 33 36 2 0
BITMAP
0000000F80
0000000F80
003FE00F80
00FFF80F80
03FFFE0F00
07FFFF1F00
0FFFFFBF00
1FFFFFFE00
3FF07FFE00
3FE03FFC00
7FC01FF800
7F800FF000
FF800FF000
FF0007F800
FF0007F800
FF0007F800
FF0007F800
FF0007F800
FF0007F800
FF0007FC00
FF0007FC00
FF0007F800
FF0007F800
FF0007F800
FF8007F800
FF800FF800
7F800FF800
7FC01FF000
3FE01FF000
3FF07FE000
1FFFFFC000
0FFFFFC000
07FFFF8000
03FFFE0000
00FFFC0000
003FE00000
ENDCHAR
STARTCHAR ohorn
ENCODING 417
SWIDTH 584 0
DWIDTH 28 0
BBX 27 27 1 0
BITMAP
000001E0
00FF01E0
03FFC1E0
0FFFF3E0
1FFFFBC0
1FFFFFC0
3FFFFF80
7FC3FF00
7F81FE00
7F80FF00
FF00FF00
FF007F00
FF007F00
FF007F80
FF007F80
FF007F80
FF007F80
FF00FF00
7F80FF00
7F81FF00
7FC3FE00
3FFFFE00
1FFFFC00
1FFFF800
0FFFF000
03FFE000
00FF0000
ENDCHAR
STARTCHAR Uhorn
ENCODING 431
SWIDTH 719 0
DWIDTH 35 0
BBX 36 36 3 0
BITMAP
00000001F0
00000001F0
FF003FE1F0
FF003FE1E0
FF003FE3E0
FF003FE3E0
FF003FE7E0
FF003FFFC0
FF003FFF80
FF003FFF00
FF003FFC00
FF003FE000
FF003FE000
FF003FE000
FF003FE000
FF003FE000
FF003FE000
FF003FE000
FF003FE000
FF003FE000
FF003FE000
FF003FE000
FF003FE000
FF003FE000
FF003FE000
FF003FC000
FF003FC000
FF803FC000
FF807FC000
7FE0FF8000
7FFFFF8000
3FFFFF0000
1FFFFE0000
0FFFFC0000
03FFF00000
007FC00000
ENDCHAR
STARTCHAR uhorn
ENCODING 432
SWIDTH 601 0
DWIDTH 29 0
BBX 30 28 2 0
BITMAP
0000007C
0000007C
FF01FE78
FF01FE78
FF01FEF8
FF01FFF0
FF01FFF0
FF01FFE0
FF01FF80
FF01FE00
FF01FE00
FF01FE00
FF01FE00
FF01FE00
FF01FE00
FF01FE00
FF01FE00
FF01FE00
FF01FE00
FF01FE00
FF01FE00
FF83FE00
7FFFFE00
7FFFFE00
3FFFFE00
3FFFFE00
1FFCFE00
07F0FE00
ENDCHAR
STARTCHAR uni01F0
ENCODING 496
SWIDTH 294 0
DWIDTH 14 0
BBX 21 46 -4 -10
BITMAP
FF07F8
3F8FE0
1FDFC0
0FFF80
07FF00
03FE00
01FC00
000000
000000
000000
01FE00
01FE00
01FE00
01FE00
01FE00
01FE00
01FE00
01FE00
01FE00
01FE00
01FE00
01FE00
01FE00
01FE00
01FE00
01FE00
01FE00
01FE00
01FE00
01FE00
01FE00
01FE00
01FE00
01FE00
01FE00
01FE00
01FE00
01FE00
01FE00
03FE00
3FFC00
3FFC00
3FF800
3FF800
3FE000
3F8000
ENDCHAR
STARTCHAR Aringacute
ENCODING 506
SWIDTH 681 0
DWIDTH 33 0
BBX 33 47 0 0
BITMAP
00001FC000
00003F0000
0000FE0000
0001F80000
0003F00000
0000000000
0003E00000
0007F00000
000E380000
001C380000
001C380000
001C380000
000E380000
000FF00000
000FF80000
000FF80000
001FF80000
001FFC0000
003FFC0000
003FFE0000
003FFE0000
007FFE0000
007FFF0000
007F7F0000
00FF7F0000
00FE7F8000
01FE3F8000
01FE3FC000
01FC3FC000
03FC1FC000
03FC1FE000
03F81FE000
07F80FE000
07F80FF000
07FFFFF000
0FFFFFF800
0FFFFFF800
1FFFFFF800
1FFFFFFC00
1FFFFFFC00
3FE003FC00
3FC003FE00
3FC001FE00
7FC001FF00
7F8001FF00
FF8000FF00
FF8000FF80
ENDCHAR
STARTCHAR aringacute
ENCODING 507
SWIDTH 530 0
DWIDTH 25 0
BBX 23 40 1 0
BITMAP
0003F8
0007E0
000FC0
001F00
007E00
000000
007C00
00FE00
01C700
01C700
038300
018780
01C700
00FE00
00FF00
07FFC0
1FFFF0
3FFFF8
3FFFF8
7FC7FC
7F83FC
7F83FC
0003FC
0003FC
01FFFC
0FFFFC
1FFFFC
3FFFFC
7FFFFC
FFC3FC
FF83FC
FF03FC
FF03FC
FF03FC
FF87FC
7FFFFC
7FFFFC
3FFFFE
1FFDFE
07F1FE
ENDCHAR
STARTCHAR AEacute
ENCODING 508
SWIDTH 940 0
DWIDTH 45 0
BBX 43 44 0 0
BITMAP
000001FE0000
000003FC0000
000007F80000
00000FF00000
00000FE00000
00001FC00000
00003F800000
000000000000
000000000000
000000000000
00007FFFFFC0
00007FFFFFC0
0000FFFFFFC0
0000FFFFFFC0
0001FFFFFFC0
0001FFFFFFC0
0003FFF80000
0003FFF80000
0007FFF80000
0007FFF80000
000FF7F80000
000FF7F80000
001FF7F80000
001FE3F80000
003FE3FFFF00
003FC3FFFF00
007FC3FFFF00
007F83FFFF00
00FF83FFFF00
00FF03FFFF00
01FFFFFC0000
01FFFFFC0000
03FFFFFC0000
03FFFFFC0000
07FFFFFC0000
07FFFFFC0000
0FF803FC0000
0FF003FC0000
1FF003FFFFE0
1FF003FFFFE0
3FE003FFFFE0
3FE003FFFFE0
7FC003FFFFE0
FFC003FFFFE0
ENDCHAR
STARTCHAR aeacute
ENCODING 509
SWIDTH 844 0
DWIDTH 41 0
BBX 39 36 1 0
BITMAP
00000FF800
00001FE000
00003FC000
00003F8000
00007F0000
0000FE0000
0000FE0000
0000000000
0000000000
0000000000
00FF80FE00
03FFE7FFC0
0FFFFFFFE0
1FFFFFFFF0
3FFFFFFFF8
3FFFFFFFF8
7FC1FFC7FC
7F81FF83FC
0000FF01FC
0000FF01FC
01FFFF01FC
0FFFFFFFFC
1FFFFFFFFE
3FFFFFFFFE
7FFFFFFFFE
7FC0FFFFFE
7F80FF0000
FF00FF0000
FF00FF8000
7F80FFC070
7FC3FFFFF8
7FFFFFFFF8
3FFFFFFFF8
1FFFCFFFFC
0FFF87FFE0
03FC00FF00
ENDCHAR
STARTCHAR Oslashacute
ENCODING 510
SWIDTH 687 0
DWIDTH 33 0
BBX 30 47 2 -2
BITMAP
0001FF00
0001FE00
0003FC00
0007F800
0007F000
000FE000
001FC000
00000000
00000000
00000000
000001F0
001FE3E0
00FFFFC0
03FFFFC0
07FFFF80
0FFFFFC0
1FFFFFC0
3FF07FE0
3FE03FF0
7FC07FF0
7F807FF8
7F80FFF8
FF81F7F8
FF81F7F8
FF03E7FC
FF03E7FC
FF07C7FC
FF0787FC
FF0F87FC
FF1F07FC
FF1F07FC
FF3E07FC
FFBE07F8
FFFC07F8
7FF807F8
7FF80FF8
7FF00FF0
3FF01FF0
3FF07FE0
1FFFFFC0
0FFFFFC0
0FFFFF80
0FFFFE00
1FFFFC00
1E1FE000
3E000000
7C000000
ENDCHAR
STARTCHAR oslashacute
ENCODING 511
SWIDTH 562 0
DWIDTH 27 0
BBX 25 39 1 -3
BITMAP
000FF800
000FF000
001FE000
003FC000
007F8000
007F0000
00FE0000
00003C00
00003C00
00007800
007F7800
03FFF000
07FFF000
1FFFF800
1FFFFC00
3FFFFE00
7FC3FE00
7F87FF00
7F87FF00
7F0FFF00
FF0F7F80
FF1E7F80
FF1E7F80
FF3C7F80
FF3C7F80
FF787F80
7F78FF00
7FF0FF00
7FF0FF00
7FE1FE00
3FFFFE00
1FFFFC00
1FFFF800
07FFF000
07FFE000
0FFF8000
0F000000
1F000000
1E000000
ENDCHAR
STARTCHAR uni0218
ENCODING 536
SWIDTH 625 0
DWIDTH 30 0
BBX 27 46 1 -12
BITMAP
003FE000
01FFFC00
07FFFE00
0FFFFF80
1FFFFF80
3FFFFFC0
3FF07FE0
3FC03FE0
3FC01FE0
7FC01FE0
3FC00000
3FE00000
3FF00000
1FFE0000
1FFFC000
0FFFF000
03FFFC00
01FFFF00
007FFF80
000FFFC0
0001FFC0
00007FE0
00003FE0
FF801FE0
7F801FE0
7F801FE0
7FC01FE0
3FF07FE0
3FFFFFE0
1FFFFFC0
0FFFFF80
07FFFF00
01FFFC00
003FE000
00000000
00000000
000F8000
000F8000
000F8000
000F8000
000F8000
001F0000
001F0000
001F0000
003E0000
00040000
ENDCHAR
STARTCHAR uni0219
ENCODING 537
SWIDTH 512 0
DWIDTH 25 0
BBX 22 38 1 -12
BITMAP
01FF00
07FFC0
1FFFF0
3FFFF8
3FFFF8
7F87FC
7F83FC
7F03FC
7F8000
7FC000
7FFC00
3FFF80
1FFFE0
0FFFF0
03FFF8
007FFC
0007FC
0003FC
FF01FC
FF01FC
7F83FC
7FFFF8
3FFFF8
1FFFF0
07FFC0
01FE00
000000
000000
00FC00
00FC00
00FC00
00F800
00F800
00F800
01F000
01F000
01E000
006000
ENDCHAR
STARTCHAR uni021A
ENCODING 538
SWIDTH 630 0
DWIDTH 30 0
BBX 28 45 1 -11
BITMAP
FFFFFFF0
FFFFFFF0
FFFFFFF0
FFFFFFF0
FFFFFFF0
FFFFFFF0
003FC000
003FC000
003FC000
003FC000
003FC000
003FC000
003FC000
003FC000
003FC000
003FC000
003FC000
003FC000
003FC000
003FC000
003FC000
003FC000
003FC000
003FC000
003FC000
003FC000
003FC000
003FC000
003FC000
003FC000
003FC000
003FC000
003FC000
003FC000
00000000
001F8000
001F8000
001F8000
001F0000
001F0000
001F0000
003E0000
003E0000
003C0000
000C0000
ENDCHAR
STARTCHAR uni021B
ENCODING 539
SWIDTH 343 0
DWIDTH 16 0
BBX 16 44 0 -12
BITMAP
1FE0
1FE0
1FE0
1FE0
1FE0
1FE0
FFFE
FFFE
FFFE
FFFE
FFFE
1FE0
1FE0
1FE0
1FE0
1FE0
1FE0
1FE0
1FE0
1FE0
1FE0
1FE0
1FE0
1FE0
1FE0
1FF0
0FFF
0FFF
0FFF
07FF
03FF
00FE
0000
0000
01F8
01F8
01F8
01F0
01F0
01F0
03E0
03E0
03C0
00C0
ENDCHAR
STARTCHAR uni0237
ENCODING 567
SWIDTH 294 0
DWIDTH 14 0
BBX 13 36 -2 -10
BITMAP
07F8
07F8
07F8
07F8
07F8
07F8
07F8
07F8
07F8
07F8
07F8
07F8
07F8
07F8
07F8
07F8
07F8
07F8
07F8
07F8
07F8
07F8
07F8
07F8
07F8
07F8
07F8
07F8
07F8
0FF8
FFF0
FFF0
FFE0
FFE0
FF80
FE00
ENDCHAR
STARTCHAR uni0259
ENCODING 601
SWIDTH 528 0
DWIDTH 25 0
BBX 23 26 1 0
BITMAP
03FE00
1FFF80
7FFFE0
7FFFF0
7FFFF8
3FFFF8
3C0FFC
2007FC
0003FE
0001FE
0001FE
FFFFFE
FFFFFE
FFFFFE
FFFFFE
FFFFFE
FF01FE
7F01FE
7F03FC
7F87FC
7FFFF8
3FFFF8
1FFFF0
0FFFE0
07FFC0
00FE00
ENDCHAR
STARTCHAR uni02BC
ENCODING 700
SWIDTH 242 0
DWIDTH 12 0
BBX 8 13 2 24
BITMAP
3F
3F
3F
3F
3F
3E
7E
7E
7C
FC
F8
78
30
ENDCHAR
STARTCHAR circumflex
ENCODING 710
SWIDTH 504 0
DWIDTH 24 0
BBX 20 7 2 29
BITMAP
01F800
03FC00
07FE00
0FFF80
3F9FC0
7F0FE0
FE07F0
ENDCHAR
STARTCHAR caron
ENCODING 711
SWIDTH 480 0
DWIDTH 23 0
BBX 21 7 1 29
BITMAP
FF07F8
3F8FE0
1FDFC0
0FFF80
07FF00
03FE00
01FC00
ENDCHAR
STARTCHAR uni02C9
ENCODING 713
SWIDTH 520 0
DWIDTH 25 0
BBX 17 4 4 30
BITMAP
FFFF80
FFFF80
FFFF80
FFFF80
ENDCHAR
STARTCHAR breve
ENCODING 728
SWIDTH 452 0
DWIDTH 22 0
BBX 18 7 2 29
BITMAP
FC0FC0
FE1F80
7FFF80
7FFF80
3FFF00
1FFE00
07F000
ENDCHAR
STARTCHAR dotaccent
ENCODING 729
SWIDTH 274 0
DWIDTH 13 0
BBX 7 7 3 29
BITMAP
78
FE
FE
FE
FE
FE
7C
ENDCHAR
STARTCHAR ring
ENCODING 730
SWIDTH 329 0
DWIDTH 16 0
BBX 10 9 3 26
BITMAP
1F00
7F80
F3C0
E1C0
E0C0
E1C0
F3C0
7F80
1F00
ENDCHAR
STARTCHAR ogonek
ENCODING 731
SWIDTH 314 0
DWIDTH 15 0
BBX 9 11 1 -10
BITMAP
1C00
3F80
7C00
FC00
F800
FC00
FF00
FF80
FF80
7F80
1F00
ENDCHAR
STARTCHAR tilde
ENCODING 732
SWIDTH 481 0
DWIDTH 23 0
BBX 18 7 3 30
BITMAP
1E07C0
3F87C0
7FFF80
FFFF80
FFFF80
F8FF00
F03C00
ENDCHAR
STARTCHAR hungarumlaut
ENCODING 733
SWIDTH 431 0
DWIDTH 21 0
BBX 21 7 1 29
BITMAP
0FE3F8
1FC7F0
1F8FE0
3F1FC0
7F1F80
7E3F00
FC7E00
ENDCHAR
STARTCHAR uni02F3
ENCODING 755
SWIDTH 326 0
DWIDTH 16 0
BBX 9 8 4 -9
BITMAP
3E00
7F00
F780
E380
E380
F780
7F00
3E00
ENDCHAR
STARTCHAR gravecomb
ENCODING 768
SWIDTH 0 0
DWIDTH 0 0
BBX 13 7 -21 29
BITMAP
FF00
7F80
3FC0
1FE0
0FE0
07F0
03F8
ENDCHAR
STARTCHAR acutecomb
ENCODING 769
SWIDTH 0 0
DWIDTH 0 0
BBX 13 7 -16 29
BITMAP
0FF8
1FE0
1FC0
3FC0
7F80
7F00
FE00
ENDCHAR
STARTCHAR tildecomb
ENCODING 771
SWIDTH 0 0
DWIDTH 0 0
BBX 18 7 -22 30
BITMAP
1E03C0
3FC7C0
7FFFC0
FFFF80
FFFF80
F8FF00
F03E00
ENDCHAR
STARTCHAR hookabovecomb
ENCODING 777
SWIDTH 0 0
DWIDTH 0 0
BBX 10 9 -18 30
BITMAP
F800
FF00
FF80
FFC0
1FC0
1FC0
FF80
FE00
FC00
ENDCHAR
STARTCHAR uni030F
ENCODING 783
SWIDTH 0 0
DWIDTH 0 0
BBX 22 6 -25 29
BITMAP
FF3F80
3F9FC0
1FCFE0
0FE7F0
07F3F8
03F9FC
ENDCHAR
STARTCHAR dotbelowcomb
ENCODING 803
SWIDTH 0 0
DWIDTH 0 0
BBX 8 7 -18 -9
BITMAP
3C
FF
FF
FF
FF
FF
3C
ENDCHAR
STARTCHAR tonos
ENCODING 900
SWIDTH 380 0
DWIDTH 18 0
BBX 9 8 6 29
BITMAP
7F80
7F00
7E00
7E00
FC00
FC00
F800
F800
ENDCHAR
STARTCHAR dieresistonos
ENCODING 901
SWIDTH 567 0
DWIDTH 27 0
BBX 22 13 2 29
BITMAP
003F80
003F00
003F00
003E00
003E00
003C00
007C00
3C7878
7E00FC
FE01FC
FE01FC
7E00FC
3C0078
ENDCHAR
STARTCHAR Alphatonos
ENCODING 902
SWIDTH 681 0
DWIDTH 33 0
BBX 33 37 0 0
BITMAP
3F80000000
3F80000000
3F00000000
7E0FF00000
7E0FF80000
7C0FF80000
FC1FF80000
F81FFC0000
003FFC0000
003FFE0000
003FFE0000
007FFE0000
007FFF0000
007F7F0000
00FF7F0000
00FE7F8000
01FE3F8000
01FE3FC000
01FC3FC000
03FC1FC000
03FC1FE000
03F81FE000
07F80FE000
07F80FF000
07FFFFF000
0FFFFFF800
0FFFFFF800
1FFFFFF800
1FFFFFFC00
1FFFFFFC00
3FE003FC00
3FC003FE00
3FC001FE00
7FC001FF00
7F8001FF00
FF8000FF00
FF8000FF80
ENDCHAR
STARTCHAR anoteleia
ENCODING 903
SWIDTH 321 0
DWIDTH 15 0
BBX 9 8 3 12
BITMAP
3E00
7F00
FF80
FF80
FF80
FF80
7F00
3E00
ENDCHAR
STARTCHAR Epsilontonos
ENCODING 904
SWIDTH 559 0
DWIDTH 27 0
BBX 36 37 -10 0
BITMAP
3F80000000
3F80000000
3F00000000
7E07FFFFF0
7E07FFFFF0
7C07FFFFF0
FC07FFFFF0
F807FFFFF0
0007FFFFF0
0007F80000
0007F80000
0007F80000
0007F80000
0007F80000
0007F80000
0007F80000
0007FFFFC0
0007FFFFC0
0007FFFFC0
0007FFFFC0
0007FFFFC0
0007FFFFC0
0007F80000
0007F80000
0007F80000
0007F80000
0007F80000
0007F80000
0007F80000
0007F80000
0007F80000
0007FFFFF0
0007FFFFF0
0007FFFFF0
0007FFFFF0
0007FFFFF0
0007FFFFF0
ENDCHAR
STARTCHAR Etatonos
ENCODING 905
SWIDTH 702 0
DWIDTH 34 0
BBX 41 37 -10 0
BITMAP
3F8000000000
3F0000000000
3F0000000000
7E07F8007F80
7E07F8007F80
7C07F8007F80
FC07F8007F80
F807F8007F80
0007F8007F80
0007F8007F80
0007F8007F80
0007F8007F80
0007F8007F80
0007F8007F80
0007F8007F80
0007F8007F80
0007FFFFFF80
0007FFFFFF80
0007FFFFFF80
0007FFFFFF80
0007FFFFFF80
0007FFFFFF80
0007F8007F80
0007F8007F80
0007F8007F80
0007F8007F80
0007F8007F80
0007F8007F80
0007F8007F80
0007F8007F80
0007F8007F80
0007F8007F80
0007F8007F80
0007F8007F80
0007F8007F80
0007F8007F80
0007F8007F80
ENDCHAR
STARTCHAR Iotatonos
ENCODING 906
SWIDTH 301 0
DWIDTH 14 0
BBX 21 37 -10 0
BITMAP
3F8000
3F0000
3F0000
7E07F8
7E07F8
7C07F8
FC07F8
F807F8
0007F8
0007F8
0007F8
0007F8
0007F8
0007F8
0007F8
0007F8
0007F8
0007F8
0007F8
0007F8
0007F8
0007F8
0007F8
0007F8
0007F8
0007F8
0007F8
0007F8
0007F8
0007F8
0007F8
0007F8
0007F8
0007F8
0007F8
0007F8
0007F8
ENDCHAR
STARTCHAR Omicrontonos
ENCODING 908
SWIDTH 700 0
DWIDTH 34 0
BBX 37 37 -5 0
BITMAP
3F80000000
3F00000000
7F00000000
7E003FC000
7E01FFF800
FC07FFFC00
F80FFFFF00
F81FFFFF80
003FFFFFC0
003FE0FFC0
007FC03FE0
007F801FE0
00FF801FF0
00FF000FF0
00FF000FF0
01FF000FF8
01FF000FF8
01FE000FF8
01FE000FF8
01FE0007F8
01FE0007F8
01FE000FF8
01FE000FF8
01FF000FF8
01FF000FF8
00FF000FF0
00FF000FF0
00FF801FF0
007F801FE0
007FC03FE0
003FF0FFC0
003FFFFFC0
001FFFFF80
000FFFFF00
0007FFFE00
0001FFF800
00003FC000
ENDCHAR
STARTCHAR Upsilontonos
ENCODING 910
SWIDTH 676 0
DWIDTH 32 0
BBX 42 37 -9 0
BITMAP
3F8000000000
3F0000000000
7F0000000000
7E1FF000FFC0
7E0FF800FF80
7C07F800FF00
FC07FC01FF00
F803FC01FE00
0003FC03FE00
0001FE03FC00
0001FE07FC00
0000FF07F800
0000FF07F800
00007F8FF000
00007F8FF000
00003F9FE000
00003FDFE000
00001FDFC000
00001FFFC000
00000FFF8000
00000FFF8000
000007FF0000
000007FF0000
000003FE0000
000003FE0000
000003FE0000
000003FE0000
000003FE0000
000003FE0000
000003FE0000
000003FE0000
000003FE0000
000003FE0000
000003FE0000
000003FE0000
000003FE0000
000003FE0000
ENDCHAR
STARTCHAR Omegatonos
ENCODING 911
SWIDTH 684 0
DWIDTH 33 0
BBX 34 37 -4 0
BITMAP
3F80000000
7F00000000
7E00000000
7E00FF0000
7C03FFE000
FC0FFFF800
F81FFFFC00
F83FFFFE00
007FFFFE00
00FFC3FF00
00FF81FF80
00FF80FF80
01FF00FF80
01FF00FFC0
01FF00FFC0
01FF007FC0
01FF007FC0
01FF007FC0
01FF007FC0
01FF007FC0
01FF007FC0
01FF007FC0
01FF00FFC0
01FF00FF80
00FF00FF80
00FF00FF80
007F80FF00
007F80FE00
003F81FE00
001FC1FC00
000FE3F800
01FFE3FFC0
01FFE3FFC0
01FFE3FFC0
01FFE3FFC0
01FFE3FFC0
01FFE3FFC0
ENDCHAR
STARTCHAR iotadieresistonos
ENCODING 912
SWIDTH 340 0
DWIDTH 16 0
BBX 22 42 -4 0
BITMAP
003F80
003F00
003F00
003E00
007C00
007C00
007800
3C7878
7E00FC
FE01FC
FE01FC
7E00FC
3C0078
000000
000000
000000
03FC00
03FC00
03FC00
03FC00
03FC00
03FC00
03FC00
03FC00
03FC00
03FC00
03FC00
03FC00
03FC00
03FC00
03FC00
03FC00
03FC00
03FC00
03FE00
01FE00
01FFE0
01FFE0
01FFE0
00FFE0
007FE0
001FC0
ENDCHAR
STARTCHAR Alpha
ENCODING 913
SWIDTH 681 0
DWIDTH 33 0
BBX 33 34 0 0
BITMAP
000FF00000
000FF80000
000FF80000
001FF80000
001FFC0000
003FFC0000
003FFE0000
003FFE0000
007FFE0000
007FFF0000
007F7F0000
00FF7F0000
00FE7F8000
01FE3F8000
01FE3FC000
01FC3FC000
03FC1FC000
03FC1FE000
03F81FE000
07F80FE000
07F80FF000
07FFFFF000
0FFFFFF800
0FFFFFF800
1FFFFFF800
1FFFFFFC00
1FFFFFFC00
3FE003FC00
3FC003FE00
3FC001FE00
7FC001FF00
7F8001FF00
FF8000FF00
FF8000FF80
ENDCHAR
STARTCHAR Beta
ENCODING 914
SWIDTH 645 0
DWIDTH 31 0
BBX 26 34 3 0
BITMAP
FFFF8000
FFFFF000
FFFFFC00
FFFFFE00
FFFFFF00
FFFFFF80
FF01FF80
FF00FF80
FF007F80
FF007F80
FF007F80
FF007F80
FF00FF80
FF01FF00
FFFFFE00
FFFFFC00
FFFFF800
FFFFFE00
FFFFFF00
FF00FF80
FF007F80
FF007FC0
FF003FC0
FF003FC0
FF003FC0
FF003FC0
FF007FC0
FF00FF80
FFFFFF80
FFFFFF80
FFFFFF00
FFFFFE00
FFFFF800
FFFFC000
ENDCHAR
STARTCHAR Gamma
ENCODING 915
SWIDTH 557 0
DWIDTH 27 0
BBX 23 34 3 0
BITMAP
FFFFFE
FFFFFE
FFFFFE
FFFFFE
FFFFFE
FFFFFE
FF0000
FF0000
FF0000
FF0000
FF0000
FF0000
FF0000
FF0000
FF0000
FF0000
FF0000
FF0000
FF0000
FF0000
FF0000
FF0000
FF0000
FF0000
FF0000
FF0000
FF0000
FF0000
FF0000
FF0000
FF0000
FF0000
FF0000
FF0000
ENDCHAR
STARTCHAR uni0394
ENCODING 916
SWIDTH 744 0
DWIDTH 36 0
BBX 35 34 1 0
BITMAP
000FFC0000
000FFC0000
000FFE0000
001FFE0000
001FFE0000
001FFF0000
003FFF0000
003FFF8000
007FFF8000
007FFF8000
007FBFC000
00FF3FC000
00FF3FE000
01FF1FE000
01FE1FE000
01FE1FF000
03FE0FF000
03FC0FF800
07FC07F800
07FC07F800
07F807FC00
0FF803FC00
0FF803FE00
0FF003FE00
1FF001FE00
1FE001FF00
3FE001FF00
3FE000FF00
3FFFFFFF80
7FFFFFFF80
7FFFFFFFC0
FFFFFFFFC0
FFFFFFFFC0
FFFFFFFFE0
ENDCHAR
STARTCHAR Epsilon
ENCODING 917
SWIDTH 559 0
DWIDTH 27 0
BBX 23 34 3 0
BITMAP
FFFFFE
FFFFFE
FFFFFE
FFFFFE
FFFFFE
FFFFFE
FF0000
FF0000
FF0000
FF0000
FF0000
FF0000
FF0000
FFFFF8
FFFFF8
FFFFF8
FFFFF8
FFFFF8
FFFFF8
FF0000
FF0000
FF0000
FF0000
FF0000
FF0000
FF0000
FF0000
FF0000
FFFFFE
FFFFFE
FFFFFE
FFFFFE
FFFFFE
FFFFFE
ENDCHAR
STARTCHAR Zeta
ENCODING 918
SWIDTH 609 0
DWIDTH 29 0
BBX 27 34 1 0
BITMAP
FFFFFFE0
FFFFFFE0
FFFFFFE0
FFFFFFE0
FFFFFFE0
FFFFFFC0
0000FF80
0000FF80
0001FF00
0003FE00
0003FE00
0007FC00
000FF800
000FF800
001FF000
003FE000
003FE000
007FC000
00FF8000
00FF8000
01FF0000
03FE0000
03FE0000
07FC0000
0FF80000
0FF80000
1FF00000
3FE00000
7FFFFFE0
7FFFFFE0
7FFFFFE0
7FFFFFE0
7FFFFFE0
7FFFFFE0
ENDCHAR
STARTCHAR Eta
ENCODING 919
SWIDTH 702 0
DWIDTH 34 0
BBX 28 34 3 0
BITMAP
FF000FF0
FF000FF0
FF000FF0
FF000FF0
FF000FF0
FF000FF0
FF000FF0
FF000FF0
FF000FF0
FF000FF0
FF000FF0
FF000FF0
FF000FF0
FFFFFFF0
FFFFFFF0
FFFFFFF0
FFFFFFF0
FFFFFFF0
FFFFFFF0
FF000FF0
FF000FF0
FF000FF0
FF000FF0
FF000FF0
FF000FF0
FF000FF0
FF000FF0
FF000FF0
FF000FF0
FF000FF0
FF000FF0
FF000FF0
FF000FF0
FF000FF0
ENDCHAR
STARTCHAR Theta
ENCODING 920
SWIDTH 691 0
DWIDTH 33 0
BBX 29 34 2 0
BITMAP
003FE000
00FFF800
03FFFE00
07FFFF00
0FFFFF80
1FFFFFC0
3FF07FE0
3FC03FE0
7FC01FF0
7F800FF0
FF800FF8
FF0007F8
FF0007F8
FF0007F8
FF1FC7F8
FF1FC7F8
FF1FC7F8
FF1FC7F8
FF1FC7F8
FF1FC7F8
FF0007F8
FF0007F8
FF0007F8
FF800FF8
7F800FF0
7FC01FF0
3FE03FE0
3FF07FE0
1FFFFFC0
0FFFFF80
07FFFF00
03FFFE00
00FFF800
003FE000
ENDCHAR
STARTCHAR Iota
ENCODING 921
SWIDTH 301 0
DWIDTH 14 0
BBX 8 34 3 0
BITMAP
FF
FF
FF
FF
FF
FF
FF
FF
FF
FF
FF
FF
FF
FF
FF
FF
FF
FF
FF
FF
FF
FF
FF
FF
FF
FF
FF
FF
FF
FF
FF
FF
FF
FF
ENDCHAR
STARTCHAR Kappa
ENCODING 922
SWIDTH 639 0
DWIDTH 31 0
BBX 28 34 3 0
BITMAP
FF003FF0
FF007FE0
FF00FFC0
FF00FFC0
FF01FF80
FF03FF00
FF03FE00
FF07FE00
FF0FFC00
FF0FF800
FF1FF000
FF3FF000
FF3FE000
FF7FC000
FFFF8000
FFFF8000
FFFFC000
FFFFC000
FFFFE000
FFFFF000
FFFFF000
FFFFF800
FFCFF800
FF87FC00
FF07FE00
FF03FE00
FF03FF00
FF01FF00
FF01FF80
FF00FFC0
FF007FC0
FF007FE0
FF003FE0
FF003FF0
ENDCHAR
STARTCHAR Lambda
ENCODING 923
SWIDTH 642 0
DWIDTH 31 0
BBX 31 34 0 0
BITMAP
001FF000
003FF000
003FF800
003FF800
003FF800
007FFC00
007FFC00
007FFC00
00FFFE00
00FFFE00
00FEFE00
01FEFF00
01FEFF00
01FEFF00
03FC7F80
03FC7F80
03FC7F80
07F87FC0
07F83FC0
07F83FC0
0FF83FE0
0FF01FE0
0FF01FE0
1FF01FE0
1FF01FF0
1FE00FF0
3FE00FF0
3FE00FF8
3FC00FF8
7FC007F8
7FC007FC
7FC007FC
FF8003FC
FF8003FE
ENDCHAR
STARTCHAR Mu
ENCODING 924
SWIDTH 876 0
DWIDTH 42 0
BBX 36 34 3 0
BITMAP
FFE0007FF0
FFE0007FF0
FFE0007FF0
FFF000FFF0
FFF000FFF0
FFF000FFF0
FFF001FFF0
FFF801FFF0
FFF801FFF0
FFF801FFF0
FFFC03FFF0
FEFC03F7F0
FEFC03F7F0
FEFE07F7F0
FE7E07E7F0
FE7E07E7F0
FE7F0FE7F0
FE3F0FC7F0
FE3F0FC7F0
FE3F9FCFF0
FF1F9F8FF0
FF1F9F8FF0
FF1FFF8FF0
FF0FFF0FF0
FF0FFF0FF0
FF0FFF0FF0
FF07FE0FF0
FF07FE0FF0
FF07FE0FF0
FF03FC0FF0
FF03FC0FF0
FF03FC0FF0
FF01F80FF0
FF01F80FF0
ENDCHAR
STARTCHAR Nu
ENCODING 925
SWIDTH 702 0
DWIDTH 34 0
BBX 28 34 3 0
BITMAP
FF000FF0
FF800FF0
FF800FF0
FFC00FF0
FFE00FF0
FFE00FF0
FFF00FF0
FFF00FF0
FFF80FF0
FFF80FF0
FFFC0FF0
FFFE0FF0
FFFE0FF0
FFFF0FF0
FF7F0FF0
FF3F8FF0
FF3F8FF0
FF1FCFF0
FF1FEFF0
FF0FEFF0
FF0FFFF0
FF07FFF0
FF03FFF0
FF03FFF0
FF01FFF0
FF01FFF0
FF00FFF0
FF00FFF0
FF007FF0
FF003FF0
FF003FF0
FF001FF0
FF001FF0
FF000FF0
ENDCHAR
STARTCHAR Xi
ENCODING 926
SWIDTH 563 0
DWIDTH 27 0
BBX 24 34 2 0
BITMAP
7FFFFC
7FFFFC
7FFFFC
7FFFFC
7FFFFC
7FFFFC
000000
000000
000000
000000
000000
000000
000000
000000
1FFFF8
1FFFF8
1FFFF8
1FFFF8
1FFFF8
1FFFF8
000000
000000
000000
000000
000000
000000
000000
000000
FFFFFF
FFFFFF
FFFFFF
FFFFFF
FFFFFF
FFFFFF
ENDCHAR
STARTCHAR Omicron
ENCODING 927
SWIDTH 690 0
DWIDTH 33 0
BBX 29 34 2 0
BITMAP
003FE000
00FFF800
03FFFE00
07FFFF00
0FFFFF80
1FFFFFC0
3FF07FE0
3FC03FE0
7FC01FF0
7F800FF0
FF800FF8
FF0007F8
FF0007F8
FF0007F8
FF0007F8
FF0007F8
FF0007F8
FF0007F8
FF0007F8
FF0007F8
FF0007F8
FF0007F8
FF0007F8
FF800FF8
7F800FF0
7FC01FF0
3FE03FE0
3FF07FE0
1FFFFFC0
0FFFFF80
07FFFF00
03FFFE00
00FFF800
003FE000
ENDCHAR
STARTCHAR Pi
ENCODING 928
SWIDTH 703 0
DWIDTH 34 0
BBX 28 34 3 0
BITMAP
FFFFFFF0
FFFFFFF0
FFFFFFF0
FFFFFFF0
FFFFFFF0
FFFFFFF0
FF000FF0
FF000FF0
FF000FF0
FF000FF0
FF000FF0
FF000FF0
FF000FF0
FF000FF0
FF000FF0
FF000FF0
FF000FF0
FF000FF0
FF000FF0
FF000FF0
FF000FF0
FF000FF0
FF000FF0
FF000FF0
FF000FF0
FF000FF0
FF000FF0
FF000FF0
FF000FF0
FF000FF0
FF000FF0
FF000FF0
FF000FF0
FF000FF0
ENDCHAR
STARTCHAR Rho
ENCODING 929
SWIDTH 650 0
DWIDTH 31 0
BBX 27 34 2 0
BITMAP
FFFFC000
FFFFF800
FFFFFE00
FFFFFF00
FFFFFF80
FFFFFFC0
FF80FFC0
FF803FE0
FF803FE0
FF801FE0
FF801FE0
FF801FE0
FF801FE0
FF801FE0
FF803FE0
FF807FC0
FFFFFFC0
FFFFFF80
FFFFFF00
FFFFFE00
FFFFF800
FFFFE000
FF800000
FF800000
FF800000
FF800000
FF800000
FF800000
FF800000
FF800000
FF800000
FF800000
FF800000
FF800000
ENDCHAR
STARTCHAR Sigma
ENCODING 931
SWIDTH 563 0
DWIDTH 27 0
BBX 24 34 2 0
BITMAP
FFFFFF
FFFFFF
FFFFFF
FFFFFF
7FFFFF
7FFFFF
3FE000
1FF000
0FF800
0FF800
07FC00
03FE00
01FE00
01FF00
00FF80
007FC0
007FC0
007FC0
00FF80
00FF00
01FF00
03FE00
07FE00
07FC00
0FF800
1FF800
1FF000
3FE000
7FFFFF
7FFFFF
FFFFFF
FFFFFF
FFFFFF
FFFFFF
ENDCHAR
STARTCHAR Tau
ENCODING 932
SWIDTH 630 0
DWIDTH 30 0
BBX 28 34 1 0
BITMAP
FFFFFFF0
FFFFFFF0
FFFFFFF0
FFFFFFF0
FFFFFFF0
FFFFFFF0
003FC000
003FC000
003FC000
003FC000
003FC000
003FC000
003FC000
003FC000
003FC000
003FC000
003FC000
003FC000
003FC000
003FC000
003FC000
003FC000
003FC000
003FC000
003FC000
003FC000
003FC000
003FC000
003FC000
003FC000
003FC000
003FC000
003FC000
003FC000
ENDCHAR
STARTCHAR Upsilon
ENCODING 933
SWIDTH 627 0
DWIDTH 30 0
BBX 30 34 0 0
BITMAP
FF8007FC
7F8007F8
7FC00FF8
3FC00FF0
3FE01FF0
1FE01FE0
1FF01FE0
0FF03FC0
0FF03FC0
07F87F80
07F87F80
03FCFF00
03FCFF00
01FEFE00
01FFFE00
00FFFC00
00FFFC00
007FF800
007FF800
003FF000
003FF000
001FE000
001FE000
001FE000
001FE000
001FE000
001FE000
001FE000
001FE000
001FE000
001FE000
001FE000
001FE000
001FE000
ENDCHAR
STARTCHAR Phi
ENCODING 934
SWIDTH 797 0
DWIDTH 38 0
BBX 35 34 2 0
BITMAP
0007F80000
0007F80000
0007F80000
0007F80000
007FFF8000
01FFFFF000
07FFFFFC00
1FFFFFFE00
1FFFFFFF00
3FFFFFFF80
7FE7F9FF80
7FC7F87FC0
FF87F83FC0
FF07F83FC0
FF07F81FE0
FF07F81FE0
FF07F81FE0
FF07F81FE0
FF07F81FE0
FF07F83FE0
FF87F83FC0
FF87F87FC0
7FE7F9FF80
3FFFFFFF80
3FFFFFFF00
1FFFFFFE00
07FFFFFC00
03FFFFF000
007FFF8000
0007F80000
0007F80000
0007F80000
0007F80000
0007F80000
ENDCHAR
STARTCHAR Chi
ENCODING 935
SWIDTH 638 0
DWIDTH 31 0
BBX 31 34 0 0
BITMAP
FFC007FC
7FC00FF8
3FE00FF8
3FE01FF0
1FF01FF0
1FF03FE0
0FF83FE0
07F87FC0
07FC7F80
03FCFF80
03FEFF00
01FFFF00
01FFFE00
00FFFE00
007FFC00
007FFC00
003FF800
007FF800
007FFC00
00FFFC00
00FFFE00
01FFFE00
01FFFF00
03FEFF80
07FCFF80
07FC7FC0
0FF87FC0
0FF83FE0
1FF03FE0
1FF01FF0
3FE01FF8
3FE00FF8
7FC00FFC
FFC007FE
ENDCHAR
STARTCHAR Psi
ENCODING 936
SWIDTH 745 0
DWIDTH 36 0
BBX 34 34 1 0
BITMAP
FF07F83FC0
FF07F83FC0
FF07F83FC0
FF07F83FC0
FF07F83FC0
FF07F83FC0
FF07F83FC0
FF07F83FC0
FF07F83FC0
FF07F83FC0
FF07F83FC0
FF07F83FC0
FF07F83FC0
FF87F83FC0
FF87F87FC0
7F87F87F80
7FC7F8FF80
3FF7F9FF00
3FFFFFFF00
1FFFFFFE00
0FFFFFFC00
07FFFFF800
01FFFFE000
003FFF0000
0007F80000
0007F80000
0007F80000
0007F80000
0007F80000
0007F80000
0007F80000
0007F80000
0007F80000
0007F80000
ENDCHAR
STARTCHAR uni03A9
ENCODING 937
SWIDTH 674 0
DWIDTH 32 0
BBX 28 34 2 0
BITMAP
003FC000
01FFF000
03FFFC00
0FFFFE00
1FFFFF00
1FFFFF80
3FF0FFC0
7FE07FC0
7FC07FE0
7FC03FE0
FFC03FE0
FFC03FE0
FFC03FE0
FFC03FF0
FFC03FF0
FFC03FF0
FFC03FF0
FFC03FE0
FFC03FE0
7FC03FE0
7FC03FE0
7FC03FE0
3FC03FC0
3FC07FC0
1FE07F80
1FE07F00
0FE0FE00
07F0FE00
7FF9FFE0
7FF9FFE0
7FF9FFE0
7FF9FFE0
7FF9FFE0
7FF9FFE0
ENDCHAR
STARTCHAR Iotadieresis
ENCODING 938
SWIDTH 301 0
DWIDTH 14 0
BBX 19 42 -2 0
BITMAP
780780
FC0FC0
FE0FE0
FE0FE0
FC0FC0
780780
000000
000000
07F800
07F800
07F800
07F800
07F800
07F800
07F800
07F800
07F800
07F800
07F800
07F800
07F800
07F800
07F800
07F800
07F800
07F800
07F800
07F800
07F800
07F800
07F800
07F800
07F800
07F800
07F800
07F800
07F800
07F800
07F800
07F800
07F800
07F800
ENDCHAR
STARTCHAR Upsilondieresis
ENCODING 939
SWIDTH 627 0
DWIDTH 30 0
BBX 30 42 0 0
BITMAP
01E01E00
03F03F00
07F03F80
07F83F80
03F03F00
01E01E00
00000000
00000000
FF8007FC
7F8007F8
7FC00FF8
3FC00FF0
3FE01FF0
1FE01FE0
1FF01FE0
0FF03FC0
0FF03FC0
07F87F80
07F87F80
03FCFF00
03FCFF00
01FEFE00
01FFFE00
00FFFC00
00FFFC00
007FF800
007FF800
003FF000
003FF000
001FE000
001FE000
001FE000
001FE000
001FE000
001FE000
001FE000
001FE000
001FE000
001FE000
001FE000
001FE000
001FE000
ENDCHAR
STARTCHAR alphatonos
ENCODING 940
SWIDTH 562 0
DWIDTH 27 0
BBX 26 37 1 0
BITMAP
000FF000
000FE000
000FC000
000FC000
001F8000
001F8000
001F0000
001F0000
00000000
00000000
00000000
01F8FE00
07FCFE00
0FFEFE00
1FFFFE00
3FFFFE00
3FFFFE00
7FE3FE00
7FC1FE00
7F81FE00
7F81FE00
7F81FE00
FF01FE00
FF01FE00
FF01FE00
FF01FE00
7F01FE00
7F81FE00
7F81FE00
7F81FF00
7FC3FF00
3FFFFF80
3FFFFFC0
1FFF7FC0
0FFE7FC0
07FC3FC0
01F80FC0
ENDCHAR
STARTCHAR epsilontonos
ENCODING 941
SWIDTH 565 0
DWIDTH 27 0
BBX 24 37 2 0
BITMAP
001FC0
001FC0
001F80
003F00
003F00
003E00
007E00
007C00
000000
000000
000000
01FF80
07FFE0
1FFFF8
3FFFFC
7FFFFE
7FC3FE
7F81FE
7F0000
7F8000
7FC000
3FFF00
1FFF00
07FF00
1FFF00
3FFF00
7FC000
FF0000
FF0000
FF00FF
FF00FF
FFC1FF
7FFFFE
3FFFFC
1FFFF8
07FFF0
00FF80
ENDCHAR
STARTCHAR etatonos
ENCODING 942
SWIDTH 562 0
DWIDTH 27 0
BBX 23 47 2 -10
BITMAP
003FC0
003F80
003F00
003F00
007E00
007E00
007C00
007C00
000000
000000
000000
FF0FC0
FF3FF0
FF7FF8
FFFFFC
FFFFFC
FFFFFC
FFC3FE
FF01FE
FF01FE
FF01FE
FF01FE
FF01FE
FF01FE
FF01FE
FF01FE
FF01FE
FF01FE
FF01FE
FF01FE
FF01FE
FF01FE
FF01FE
FF01FE
FF01FE
FF01FE
FF01FE
0001FE
0001FE
0001FE
0001FE
0001FE
0001FE
0001FE
0001FE
0001FE
0001FE
ENDCHAR
STARTCHAR iotatonos
ENCODING 943
SWIDTH 340 0
DWIDTH 16 0
BBX 13 37 2 0
BITMAP
0FE0
0FC0
1FC0
1F80
1F80
3F00
3F00
3E00
0000
0000
0000
FF00
FF00
FF00
FF00
FF00
FF00
FF00
FF00
FF00
FF00
FF00
FF00
FF00
FF00
FF00
FF00
FF00
FF00
FF80
7F80
7FF8
7FF8
7FF8
3FF8
1FF8
07F0
ENDCHAR
STARTCHAR upsilondieresistonos
ENCODING 944
SWIDTH 544 0
DWIDTH 26 0
BBX 23 42 2 0
BITMAP
001F80
003F80
003F00
003F00
003E00
003E00
003C00
3C3878
7E00FC
7F00FE
7F00FE
7E00FC
3C0078
000000
000000
000000
FF07F0
FF07F8
FF07F8
FF07F8
FF03FC
FF03FC
FF03FC
FF03FC
FF03FC
FF03FC
FF01FC
FF01FE
FF01FE
FF01FC
FF03FC
FF03FC
FF03FC
FF03FC
FF07FC
7F8FF8
7FFFF8
7FFFF0
3FFFE0
1FFFC0
0FFF80
01FC00
ENDCHAR
STARTCHAR alpha
ENCODING 945
SWIDTH 562 0
DWIDTH 27 0
BBX 26 26 1 0
BITMAP
01F8FE00
07FCFE00
0FFEFE00
1FFFFE00
3FFFFE00
3FFFFE00
7FE3FE00
7FC1FE00
7F81FE00
7F81FE00
7F81FE00
FF01FE00
FF01FE00
FF01FE00
FF01FE00
7F01FE00
7F81FE00
7F81FE00
7F81FF00
7FC3FF00
3FFFFF80
3FFFFFC0
1FFF7FC0
0FFE7FC0
07FC3FC0
01F80FC0
ENDCHAR
STARTCHAR beta
ENCODING 946
SWIDTH 606 0
DWIDTH 29 0
BBX 25 44 3 -10
BITMAP
00FF0000
03FFE000
0FFFF000
1FFFFC00
3FFFFC00
7FFFFE00
7FC3FE00
FF81FE00
FF01FE00
FF01FE00
FF01FE00
FF01FE00
FF01FC00
FF03FC00
FF3FF800
FF3FF000
FF3FF000
FF3FFC00
FF3FFE00
FF01FF00
FF00FF00
FF00FF00
FF007F80
FF007F80
FF007F80
FF007F80
FF00FF80
FF81FF00
FFFFFF00
FFFFFF00
FFFFFE00
FFFFFC00
FFFFF800
FF1FC000
FF000000
FF000000
FF000000
FF000000
FF000000
FF000000
FF000000
FF000000
FF000000
FF000000
ENDCHAR
STARTCHAR gamma
ENCODING 947
SWIDTH 514 0
DWIDTH 25 0
BBX 25 36 0 -10
BITMAP
FF80FF80
7F80FF00
7F80FF00
7F80FF00
3FC1FE00
3FC1FE00
3FC1FE00
1FC1FC00
1FE3FC00
1FE3FC00
1FE3F800
0FE3F800
0FE3F800
0FF7F000
07F7F000
07F7F000
07F7E000
03FFE000
03FFE000
03FFE000
01FFC000
01FFC000
01FFC000
00FF8000
00FF8000
00FF8000
00FF0000
00FF0000
00FF0000
00FF0000
00FF0000
00FF0000
00FF0000
00FF0000
00FF0000
00FF0000
ENDCHAR
STARTCHAR delta
ENCODING 948
SWIDTH 562 0
DWIDTH 27 0
BBX 25 37 1 0
BITMAP
007FC000
01FFE000
07FFE000
0FFFE000
0FFFE000
1FF06000
1FE00000
1FE00000
1FE00000
0FF00000
0FFE0000
07FF8000
03FFE000
01FFF000
07FFF800
0FFFFC00
1FE3FE00
3FC1FF00
3F80FF00
7F80FF00
7F007F80
FF007F80
FF007F80
FF007F80
FF007F80
FF007F80
FF007F80
7F807F80
7F80FF00
7FC0FF00
7FE1FF00
3FFFFE00
1FFFFC00
0FFFFC00
07FFF800
03FFE000
007F8000
ENDCHAR
STARTCHAR epsilon
ENCODING 949
SWIDTH 565 0
DWIDTH 27 0
BBX 24 26 2 0
BITMAP
01FF80
07FFE0
1FFFF8
3FFFFC
7FFFFE
7FC3FE
7F81FE
7F0000
7F8000
7FC000
3FFF00
1FFF00
07FF00
1FFF00
3FFF00
7FC000
FF0000
FF0000
FF00FF
FF00FF
FFC1FF
7FFFFE
3FFFFC
1FFFF8
07FFF0
00FF80
ENDCHAR
STARTCHAR zeta
ENCODING 950
SWIDTH 488 0
DWIDTH 23 0
BBX 21 43 1 -9
BITMAP
FFFFF8
FFFFF8
FFFFF8
FFFFF8
FFFFF8
FFFFF0
001FE0
003FE0
007FC0
00FF80
01FF00
03FE00
03FC00
07F800
0FF000
1FF000
1FE000
3FC000
3FC000
7F8000
7F8000
7F8000
7F8000
7F8000
7F8000
7F8000
7FC000
7FF000
7FFE00
3FFFC0
1FFFE0
0FFFF0
03FFF8
007FF8
000FF8
0007F8
0007F0
0007F0
000FE0
001FE0
001FC0
000780
000200
ENDCHAR
STARTCHAR eta
ENCODING 951
SWIDTH 562 0
DWIDTH 27 0
BBX 23 36 2 -10
BITMAP
FF0FC0
FF3FF0
FF7FF8
FFFFFC
FFFFFC
FFFFFC
FFC3FE
FF01FE
FF01FE
FF01FE
FF01FE
FF01FE
FF01FE
FF01FE
FF01FE
FF01FE
FF01FE
FF01FE
FF01FE
FF01FE
FF01FE
FF01FE
FF01FE
FF01FE
FF01FE
FF01FE
0001FE
0001FE
0001FE
0001FE
0001FE
0001FE
0001FE
0001FE
0001FE
0001FE
ENDCHAR
STARTCHAR theta
ENCODING 952
SWIDTH 601 0
DWIDTH 29 0
BBX 23 34 3 0
BITMAP
00FE00
07FFC0
0FFFE0
1FFFF0
3FFFF8
7FFFFC
7FC7FC
7F83FC
FF01FE
FF01FE
FF01FE
FF01FE
FF01FE
FF01FE
FFFFFE
FFFFFE
FFFFFE
FFFFFE
FFFFFE
FFFFFE
FF01FE
FF01FE
FF01FE
FF01FE
FF01FE
FF01FE
7F83FC
7FC7FC
7FFFFC
3FFFF8
1FFFF0
0FFFE0
07FFC0
00FE00
ENDCHAR
STARTCHAR iota
ENCODING 953
SWIDTH 340 0
DWIDTH 16 0
BBX 13 26 2 0
BITMAP
FF00
FF00
FF00
FF00
FF00
FF00
FF00
FF00
FF00
FF00
FF00
FF00
FF00
FF00
FF00
FF00
FF00
FF00
FF80
7F80
7FF8
7FF8
7FF8
3FF8
1FF8
07F0
ENDCHAR
STARTCHAR kappa
ENCODING 954
SWIDTH 606 0
DWIDTH 29 0
BBX 25 26 3 0
BITMAP
FF01FF80
FF03FF00
FF03FE00
FF07FE00
FF0FFC00
FF0FF800
FF1FF800
FF1FF000
FF3FE000
FFFFE000
FFFFC000
FFFF8000
FFFFC000
FFFFC000
FFFFE000
FFFFE000
FF1FF000
FF1FF800
FF0FF800
FF0FFC00
FF07FC00
FF07FE00
FF03FE00
FF03FF00
FF03FF80
FF01FF80
ENDCHAR
STARTCHAR lambda
ENCODING 955
SWIDTH 544 0
DWIDTH 26 0
BBX 26 37 0 0
BITMAP
1FC00000
3FF00000
3FF80000
3FF80000
1FFC0000
1FFC0000
03FC0000
01FE0000
01FE0000
00FF0000
00FF0000
007F0000
00FF8000
00FF8000
00FFC000
01FFC000
01FFC000
03FFE000
03FFE000
03FFF000
07FFF000
07FFF000
07FFF800
0FF7F800
0FF7FC00
0FF3FC00
1FE3FC00
1FE3FE00
1FE1FE00
3FC1FF00
3FC0FF00
3FC0FFC0
7FC0FFC0
7F807FC0
7F807FC0
FF803FC0
FF000FC0
ENDCHAR
STARTCHAR uni03BC
ENCODING 956
SWIDTH 641 0
DWIDTH 31 0
BBX 24 36 3 -10
BITMAP
FF00FF
FF00FF
FF00FF
FF00FF
FF00FF
FF00FF
FF00FF
FF00FF
FF00FF
FF00FF
FF00FF
FF00FF
FF00FF
FF00FF
FF00FF
FF00FF
FF00FF
FF00FF
FF80FF
FFC3FF
FFFFFF
FFFFFF
FFFFFF
FFFFFF
FFFF7F
FF7C7F
FF0000
FF0000
FF0000
FF0000
FF0000
FF0000
FF0000
FF0000
FF0000
FF0000
ENDCHAR
STARTCHAR nu
ENCODING 957
SWIDTH 516 0
DWIDTH 25 0
BBX 25 26 0 0
BITMAP
FF80FF80
7F80FF00
7F80FF00
7F80FF00
3FC1FE00
3FC1FE00
3FC1FE00
1FC1FC00
1FE3FC00
1FE3FC00
1FE3F800
0FE3F800
0FE7F800
0FF7F000
07F7F000
07F7F000
07FFF000
03FFE000
03FFE000
03FFE000
01FFC000
01FFC000
01FFC000
00FF8000
00FF8000
00FF8000
ENDCHAR
STARTCHAR xi
ENCODING 958
SWIDTH 551 0
DWIDTH 26 0
BBX 23 43 2 -9
BITMAP
003FE0
01FFF8
07FFF8
0FFFF8
0FFFF0
1FFFF0
1FF030
1FE000
3FC000
3FC000
1FE000
1FF000
1FFFC0
0FFFC0
03FFC0
03FFC0
0FFFC0
1FFFC0
3FE000
7FC000
7F8000
FF0000
FF0000
FF0000
FF0000
FF8000
FFC000
7FF800
7FFF80
3FFFE0
1FFFF8
07FFFC
01FFFC
003FFE
0007FE
0003FE
0001FC
0001FC
0003F8
0007F8
0007F0
0001E0
000080
ENDCHAR
STARTCHAR omicron
ENCODING 959
SWIDTH 561 0
DWIDTH 27 0
BBX 25 26 1 0
BITMAP
007F0000
03FFE000
07FFF000
1FFFF800
1FFFFC00
3FFFFE00
7FC3FE00
7F80FF00
7F80FF00
7F00FF00
FF007F80
FF007F80
FF007F80
FF007F80
FF007F80
FF007F80
7F00FF00
7F80FF00
7F80FF00
7FC1FE00
3FFFFE00
1FFFFC00
1FFFF800
07FFF000
03FFE000
00FF8000
ENDCHAR
STARTCHAR pi
ENCODING 960
SWIDTH 669 0
DWIDTH 32 0
BBX 30 26 1 0
BITMAP
FFFFFFFC
FFFFFFFC
FFFFFFFC
FFFFFFFC
FFFFFFFC
07F83FC0
07F83FC0
07F83FC0
07F83FC0
07F83FC0
07F83FC0
07F83FC0
07F83FC0
07F83FC0
07F83FC0
07F83FC0
07F83FC0
07F83FC0
07F83FC0
07F83FC0
07F83FFC
07F83FFC
07F83FFC
07F81FFC
07F80FFC
07F803F8
ENDCHAR
STARTCHAR rho
ENCODING 961
SWIDTH 562 0
DWIDTH 27 0
BBX 24 36 2 -10
BITMAP
007F00
03FFC0
07FFF0
1FFFF8
1FFFF8
3FFFFC
7FC3FE
7F81FE
7F81FE
7F81FE
FF00FF
FF00FF
FF00FF
FF00FF
FF00FF
FF00FF
FF00FF
FF01FE
FF01FE
FFC3FE
FFFFFC
FFFFFC
FFFFF8
FFFFF0
FF7FE0
FF1F80
FF0000
FF0000
FF0000
FF0000
FF0000
FF0000
FF0000
FF0000
FF0000
FF0000
ENDCHAR
STARTCHAR sigma1
ENCODING 962
SWIDTH 501 0
DWIDTH 24 0
BBX 23 34 1 -8
BITMAP
00FF00
03FFC0
0FFFF0
1FFFF8
3FFFF8
3FFFFC
7FC3FC
7F81FC
7F81FE
FF01FE
FF0000
FF0000
FF0000
FF0000
FF0000
FF0000
FF0000
FF0000
7F8000
7FC000
3FF000
3FFF00
1FFFC0
07FFE0
03FFF0
007FF0
001FF0
000FF0
000FF0
000FE0
001FC0
003F80
000F00
000600
ENDCHAR
STARTCHAR sigma
ENCODING 963
SWIDTH 574 0
DWIDTH 28 0
BBX 26 26 1 0
BITMAP
00FFFFC0
03FFFFC0
0FFFFFC0
1FFFFFC0
1FFFFFC0
3FFFFFC0
7FC3F800
7F81FC00
7F80FC00
FF00FE00
FF00FF00
FF00FF00
FF00FF00
FF00FF00
FF00FF00
FF00FF00
FF00FF00
7F80FF00
7F81FE00
7FC3FE00
3FFFFE00
1FFFFC00
1FFFF800
07FFF000
03FFE000
00FF0000
ENDCHAR
STARTCHAR tau
ENCODING 964
SWIDTH 518 0
DWIDTH 25 0
BBX 23 26 1 0
BITMAP
FFFFFE
FFFFFE
FFFFFE
FFFFFE
FFFFFE
FFFFFE
01FE00
01FE00
01FE00
01FE00
01FE00
01FE00
01FE00
01FE00
01FE00
01FE00
01FE00
01FE00
01FE00
01FF00
00FFF0
00FFF0
00FFF0
007FF0
003FF0
000FF0
ENDCHAR
STARTCHAR upsilon
ENCODING 965
SWIDTH 544 0
DWIDTH 26 0
BBX 23 26 2 0
BITMAP
FF07F0
FF07F8
FF07F8
FF07F8
FF03FC
FF03FC
FF03FC
FF03FC
FF03FC
FF03FC
FF01FC
FF01FE
FF01FE
FF01FC
FF03FC
FF03FC
FF03FC
FF03FC
FF07FC
7F8FF8
7FFFF8
7FFFF0
3FFFE0
1FFFC0
0FFF80
01FC00
ENDCHAR
STARTCHAR phi
ENCODING 966
SWIDTH 765 0
DWIDTH 37 0
BBX 35 37 1 -11
BITMAP
0C003F8000
0E00FFF000
1F81FFFC00
3FC1FFFE00
3FE3FFFF00
7FC3FFFF00
7F87F8FF80
7F87F87FC0
FF07F83FC0
FF07F83FC0
FF07F83FC0
FF07F81FC0
FF07F81FE0
FF07F81FC0
FF07F83FC0
FF07F83FC0
7F87F83FC0
7F87F87FC0
7FC7F8FF80
3FF7F9FF80
1FFFFFFF00
0FFFFFFE00
07FFFFFC00
03FFFFF800
00FFFFE000
001FFF0000
0007F80000
0007F80000
0007F80000
0007F80000
0007F80000
0007F80000
0007F80000
0007F80000
0007F80000
0007F80000
0007F80000
ENDCHAR
STARTCHAR chi
ENCODING 967
SWIDTH 514 0
DWIDTH 25 0
BBX 27 36 0 -10
BITMAP
7F003FE0
FFC03FC0
FFE07F80
7FF07F80
7FF0FF00
7FF8FF00
07F9FE00
03F9FE00
03FDFC00
01FFFC00
01FFFC00
00FFF800
00FFF800
00FFF000
007FF000
007FE000
003FE000
003FC000
003FC000
007FE000
007FE000
00FFF000
00FFF000
01FFF800
01FFF800
01FFF800
03FFFC00
03F9FC00
07F9FE00
07F1FF00
0FF0FFC0
0FE0FFC0
1FE07FC0
1FC03FC0
3FC03FC0
3F800FC0
ENDCHAR
STARTCHAR psi
ENCODING 968
SWIDTH 766 0
DWIDTH 37 0
BBX 34 37 1 -11
BITMAP
FF07F8FF00
FF07F87F00
FF07F87F80
FF07F87F80
FF07F87F80
FF07F83FC0
FF07F83FC0
FF07F83FC0
FF07F83FC0
FF07F83FC0
FF07F83FC0
FF07F83FC0
FF07F83FC0
FF07F83FC0
FF07F83FC0
7F87F83FC0
7F87F83FC0
7FC7F87F80
3FE7F8FF80
3FF7FBFF00
1FFFFFFF00
0FFFFFFE00
07FFFFFC00
03FFFFF000
00FFFFE000
001FFF0000
0007F80000
0007F80000
0007F80000
0007F80000
0007F80000
0007F80000
0007F80000
0007F80000
0007F80000
0007F80000
0007F80000
ENDCHAR
STARTCHAR omega
ENCODING 969
SWIDTH 819 0
DWIDTH 39 0
BBX 36 26 2 0
BITMAP
1FE0007F80
3FC0003F80
3F80003FC0
7F80003FC0
7F80001FE0
7F03FC1FE0
FF03FC1FE0
FF03FC0FF0
FF03FC0FF0
FF03FC0FF0
FF03FC0FF0
FE03FC0FF0
FE03FC0FF0
FE03FC0FF0
FE03FC0FF0
FF07FC0FF0
FF07FC0FF0
FF07FC1FF0
FF07FE1FE0
7F8FFF3FE0
7FFFFFFFE0
7FFFFFFFC0
3FFFBFFF80
1FFF1FFF80
0FFE0FFE00
03F803F800
ENDCHAR
STARTCHAR iotadieresis
ENCODING 970
SWIDTH 340 0
DWIDTH 16 0
BBX 19 35 -3 0
BITMAP
3C03C0
7E07E0
FE0FE0
FE0FE0
7E07E0
3C03C0
000000
000000
000000
07F800
07F800
07F800
07F800
07F800
07F800
07F800
07F800
07F800
07F800
07F800
07F800
07F800
07F800
07F800
07F800
07F800
07F800
07FC00
03FC00
03FFC0
03FFC0
03FFC0
01FFC0
00FFC0
003F80
ENDCHAR
STARTCHAR upsilondieresis
ENCODING 971
SWIDTH 544 0
DWIDTH 26 0
BBX 23 35 2 0
BITMAP
1E00F0
3F03F8
3F83F8
3F83F8
3F03F8
1E01F0
000000
000000
000000
FF07F0
FF07F8
FF07F8
FF07F8
FF03FC
FF03FC
FF03FC
FF03FC
FF03FC
FF03FC
FF01FC
FF01FE
FF01FE
FF01FC
FF03FC
FF03FC
FF03FC
FF03FC
FF07FC
7F8FF8
7FFFF8
7FFFF0
3FFFE0
1FFFC0
0FFF80
01FC00
ENDCHAR
STARTCHAR omicrontonos
ENCODING 972
SWIDTH 561 0
DWIDTH 27 0
BBX 25 37 1 0
BITMAP
001FE000
001FC000
001F8000
001F8000
003F0000
003F0000
003E0000
003E0000
00000000
00000000
00000000
007F0000
03FFE000
07FFF000
1FFFF800
1FFFFC00
3FFFFE00
7FC3FE00
7F80FF00
7F80FF00
7F00FF00
FF007F80
FF007F80
FF007F80
FF007F80
FF007F80
FF007F80
7F00FF00
7F80FF00
7F80FF00
7FC1FE00
3FFFFE00
1FFFFC00
1FFFF800
07FFF000
03FFE000
00FF8000
ENDCHAR
STARTCHAR upsilontonos
ENCODING 973
SWIDTH 544 0
DWIDTH 26 0
BBX 23 37 2 0
BITMAP
003FC0
003F80
003F00
003F00
007E00
007E00
007C00
007C00
000000
000000
000000
FF07F0
FF07F8
FF07F8
FF07F8
FF03FC
FF03FC
FF03FC
FF03FC
FF03FC
FF03FC
FF01FC
FF01FE
FF01FE
FF01FC
FF03FC
FF03FC
FF03FC
FF03FC
FF07FC
7F8FF8
7FFFF8
7FFFF0
3FFFE0
1FFFC0
0FFF80
01FC00
ENDCHAR
STARTCHAR omegatonos
ENCODING 974
SWIDTH 819 0
DWIDTH 39 0
BBX 36 37 2 0
BITMAP
00007F0000
0000FE0000
0000FC0000
0000FC0000
0001F80000
0001F80000
0001F00000
0001F00000
0000000000
0000000000
0000000000
1FE0007F80
3FC0003F80
3F80003FC0
7F80003FC0
7F80001FE0
7F03FC1FE0
FF03FC1FE0
FF03FC0FF0
FF03FC0FF0
FF03FC0FF0
FF03FC0FF0
FE03FC0FF0
FE03FC0FF0
FE03FC0FF0
FE03FC0FF0
FF07FC0FF0
FF07FC0FF0
FF07FC1FF0
FF07FE1FE0
7F8FFF3FE0
7FFFFFFFE0
7FFFFFFFC0
3FFFBFFF80
1FFF1FFF80
0FFE0FFE00
03F803F800
ENDCHAR
STARTCHAR theta1
ENCODING 977
SWIDTH 603 0
DWIDTH 29 0
BBX 26 34 3 0
BITMAP
001FC000
007FF000
00FFF800
01FFFC00
03FFFE00
03FFFE00
03F9FE00
07F9FF00
07F9FF00
07F9FF00
07F9FF00
07F9FF00
07F9FF00
03FDFF00
03FFFF00
03FFFFC0
01FFFFC0
00FFFFC0
FE7FFFC0
FE3FFFC0
FE1FFFC0
FE03FF80
FE01FF00
FE01FF00
FE01FF00
FF01FF00
FF01FE00
7FC3FE00
7FFFFE00
3FFFFC00
1FFFF800
0FFFF000
07FFC000
00FF0000
ENDCHAR
STARTCHAR Upsilon1
ENCODING 978
SWIDTH 622 0
DWIDTH 30 0
BBX 30 34 0 0
BITMAP
FC0000FC
FF0003FC
FF8007FC
FFC00FFC
FFE01FFC
FFE01FFC
1FE01FE0
0FF03FC0
07F03F80
07F83F80
07F87F80
03F87F00
03FCFF00
01FCFE00
01FCFE00
00FFFC00
00FFFC00
00FFFC00
007FF800
007FF800
003FF000
003FF000
003FE000
001FE000
001FE000
001FE000
001FE000
001FE000
001FE000
001FE000
001FE000
001FE000
001FE000
001FE000
ENDCHAR
STARTCHAR omega1
ENCODING 982
SWIDTH 849 0
DWIDTH 41 0
BBX 41 26 0 0
BITMAP
FFFFFFFFFF80
FFFFFFFFFF80
FFFFFFFFFF80
FFFFFFFFFF80
FFFFFFFFFF80
FFFFFFFFFF80
3FC00003FC00
3FC00001FE00
3FC00001FE00
3FC00001FE00
3FC0FF81FE00
3FC0FF81FE00
3FC0FF81FE00
3FC0FF81FE00
3FC0FF81FE00
3FC0FF81FE00
3FC0FF81FE00
3FC0FF81FE00
3FE1FFC3FE00
1FE3FFE3FC00
1FFFFFFFFC00
1FFFF7FFF800
0FFFF7FFF800
07FFE3FFF000
03FFC1FFE000
007E007F0000
ENDCHAR
STARTCHAR uni0400
ENCODING 1024
SWIDTH 559 0
DWIDTH 27 0
BBX 23 43 3 0
BITMAP
1FF000
0FF000
07F800
03FC00
01FC00
00FE00
007F00
000000
000000
FFFFFE
FFFFFE
FFFFFE
FFFFFE
FFFFFE
FFFFFE
FF0000
FF0000
FF0000
FF0000
FF0000
FF0000
FF0000
FFFFF8
FFFFF8
FFFFF8
FFFFF8
FFFFF8
FFFFF8
FF0000
FF0000
FF0000
FF0000
FF0000
FF0000
FF0000
FF0000
FF0000
FFFFFE
FFFFFE
FFFFFE
FFFFFE
FFFFFE
FFFFFE
ENDCHAR
STARTCHAR uni0401
ENCODING 1025
SWIDTH 559 0
DWIDTH 27 0
BBX 23 42 3 0
BITMAP
0F00F0
1F81F8
3F81FC
3FC1FC
1F81F8
0F00F0
000000
000000
FFFFFE
FFFFFE
FFFFFE
FFFFFE
FFFFFE
FFFFFE
FF0000
FF0000
FF0000
FF0000
FF0000
FF0000
FF0000
FFFFF8
FFFFF8
FFFFF8
FFFFF8
FFFFF8
FFFFF8
FF0000
FF0000
FF0000
FF0000
FF0000
FF0000
FF0000
FF0000
FF0000
FFFFFE
FFFFFE
FFFFFE
FFFFFE
FFFFFE
FFFFFE
ENDCHAR
STARTCHAR uni0402
ENCODING 1026
SWIDTH 745 0
DWIDTH 36 0
BBX 34 34 1 0
BITMAP
FFFFFFC000
FFFFFFC000
FFFFFFC000
FFFFFFC000
FFFFFFC000
FFFFFFC000
00FF000000
00FF000000
00FF000000
00FF000000
00FF000000
00FF000000
00FF000000
00FFFFC000
00FFFFF800
00FFFFFC00
00FFFFFE00
00FFFFFF00
00FFFFFF80
00FF01FF80
00FF00FFC0
00FF007FC0
00FF003FC0
00FF003FC0
00FF003FC0
00FF007FC0
00FF007F80
00FF01FF80
00FF0FFF00
00FF0FFF00
00FF0FFE00
00FF0FFC00
00FF0FF000
00FF0F8000
ENDCHAR
STARTCHAR uni0403
ENCODING 1027
SWIDTH 557 0
DWIDTH 27 0
BBX 23 43 3 0
BITMAP
000FF8
001FE0
001FC0
003F80
007F00
00FF00
00FE00
000000
000000
FFFFFE
FFFFFE
FFFFFE
FFFFFE
FFFFFE
FFFFFE
FF0000
FF0000
FF0000
FF0000
FF0000
FF0000
FF0000
FF0000
FF0000
FF0000
FF0000
FF0000
FF0000
FF0000
FF0000
FF0000
FF0000
FF0000
FF0000
FF0000
FF0000
FF0000
FF0000
FF0000
FF0000
FF0000
FF0000
FF0000
ENDCHAR
STARTCHAR uni0404
ENCODING 1028
SWIDTH 649 0
DWIDTH 31 0
BBX 28 34 2 0
BITMAP
003FC000
01FFF800
07FFFE00
0FFFFF00
1FFFFF80
3FFFFFC0
3FE07FE0
7FC03FE0
7F801FE0
FF000FF0
FF000FF0
FF000FF0
FF000000
FFFF8000
FFFF8000
FFFF8000
FFFF8000
FFFF8000
FFFF8000
FF000000
FF000000
FF000000
FF000FF0
FF000FF0
FF801FF0
7F801FF0
7FC03FE0
3FE07FE0
3FFFFFC0
1FFFFF80
0FFFFF00
07FFFE00
01FFF800
003FC000
ENDCHAR
STARTCHAR uni0405
ENCODING 1029
SWIDTH 625 0
DWIDTH 30 0
BBX 27 34 1 0
BITMAP
003FE000
01FFFC00
07FFFE00
0FFFFF80
1FFFFF80
3FFFFFC0
3FF07FE0
3FC03FE0
3FC01FE0
7FC01FE0
3FC00000
3FE00000
3FF00000
1FFE0000
1FFFC000
0FFFF000
03FFFC00
01FFFF00
007FFF80
000FFFC0
0001FFC0
00007FE0
00003FE0
FF801FE0
7F801FE0
7F801FE0
7FC01FE0
3FF07FE0
3FFFFFE0
1FFFFFC0
0FFFFF80
07FFFF00
01FFFC00
003FE000
ENDCHAR
STARTCHAR uni0406
ENCODING 1030
SWIDTH 301 0
DWIDTH 14 0
BBX 8 34 3 0
BITMAP
FF
FF
FF
FF
FF
FF
FF
FF
FF
FF
FF
FF
FF
FF
FF
FF
FF
FF
FF
FF
FF
FF
FF
FF
FF
FF
FF
FF
FF
FF
FF
FF
FF
FF
ENDCHAR
STARTCHAR uni0407
ENCODING 1031
SWIDTH 301 0
DWIDTH 14 0
BBX 19 42 -2 0
BITMAP
780780
FC0FC0
FE0FE0
FE0FE0
FC0FC0
780780
000000
000000
07F800
07F800
07F800
07F800
07F800
07F800
07F800
07F800
07F800
07F800
07F800
07F800
07F800
07F800
07F800
07F800
07F800
07F800
07F800
07F800
07F800
07F800
07F800
07F800
07F800
07F800
07F800
07F800
07F800
07F800
07F800
07F800
07F800
07F800
ENDCHAR
STARTCHAR uni0408
ENCODING 1032
SWIDTH 562 0
DWIDTH 27 0
BBX 23 34 1 0
BITMAP
0001FE
0001FE
0001FE
0001FE
0001FE
0001FE
0001FE
0001FE
0001FE
0001FE
0001FE
0001FE
0001FE
0001FE
0001FE
0001FE
0001FE
0001FE
0001FE
0001FE
0001FE
0001FE
0001FE
0001FE
FF01FE
FF01FE
FF83FE
FFC7FE
7FFFFC
7FFFF8
3FFFF8
1FFFE0
07FFC0
01FE00
ENDCHAR
STARTCHAR uni0409
ENCODING 1033
SWIDTH 1048 0
DWIDTH 50 0
BBX 48 34 1 0
BITMAP
03FFFFFC0000
03FFFFFC0000
03FFFFFC0000
03FFFFFC0000
03FFFFFC0000
03FFFFFC0000
03FC03FC0000
03FC03FC0000
03FC03FC0000
03FC03FC0000
03FC03FC0000
03FC03FFFE00
03FC03FFFFC0
03FC03FFFFE0
03FC03FFFFF8
03FC03FFFFFC
03FC03FFFFFC
03FC03FC07FE
03FC03FC03FE
03FC03FC01FF
07F803FC01FF
07F803FC00FF
07F803FC00FF
07F803FC00FF
07F803FC01FF
0FF803FC01FF
1FF003FC03FE
3FF003FC07FE
FFE003FFFFFC
FFE003FFFFFC
FFC003FFFFF8
FF8003FFFFE0
FF0003FFFFC0
FC0003FFFE00
ENDCHAR
STARTCHAR uni040A
ENCODING 1034
SWIDTH 1046 0
DWIDTH 50 0
BBX 47 34 2 0
BITMAP
FF8007F80000
FF8007F80000
FF8007F80000
FF8007F80000
FF8007F80000
FF8007F80000
FF8007F80000
FF8007F80000
FF8007F80000
FF8007F80000
FF8007F80000
FF8007FFFC00
FF8007FFFF00
FF8007FFFFC0
FFFFFFFFFFE0
FFFFFFFFFFF0
FFFFFFFFFFF8
FFFFFFF80FFC
FFFFFFF807FC
FFFFFFF803FE
FF8007F803FE
FF8007F801FE
FF8007F801FE
FF8007F801FE
FF8007F803FE
FF8007F803FE
FF8007F807FC
FF8007F80FFC
FF8007FFFFF8
FF8007FFFFF0
FF8007FFFFE0
FF8007FFFFC0
FF8007FFFF80
FF8007FFFC00
ENDCHAR
STARTCHAR uni040B
ENCODING 1035
SWIDTH 747 0
DWIDTH 36 0
BBX 34 34 0 0
BITMAP
FFFFFFC000
FFFFFFC000
FFFFFFC000
FFFFFFC000
FFFFFFC000
FFFFFFC000
00FF000000
00FF000000
00FF000000
00FF000000
00FF000000
00FF000000
00FFFF8000
00FFFFF000
00FFFFFC00
00FFFFFE00
00FFFFFF00
00FFFFFF00
00FF01FF80
00FF007F80
00FF007FC0
00FF003FC0
00FF003FC0
00FF003FC0
00FF003FC0
00FF003FC0
00FF003FC0
00FF003FC0
00FF003FC0
00FF003FC0
00FF003FC0
00FF003FC0
00FF003FC0
00FF003FC0
ENDCHAR
STARTCHAR uni040C
ENCODING 1036
SWIDTH 639 0
DWIDTH 31 0
BBX 28 43 3 0
BITMAP
000FF000
001FE000
003FC000
007F8000
007F0000
00FE0000
01FC0000
00000000
00000000
FF003FF0
FF007FE0
FF00FFC0
FF00FFC0
FF01FF80
FF03FF00
FF03FE00
FF07FE00
FF0FFC00
FF0FF800
FF1FF000
FF3FF000
FF3FE000
FF7FC000
FFFF8000
FFFF8000
FFFFC000
FFFFC000
FFFFE000
FFFFF000
FFFFF000
FFFFF800
FFCFF800
FF87FC00
FF07FE00
FF03FE00
FF03FF00
FF01FF00
FF01FF80
FF00FFC0
FF007FC0
FF007FE0
FF003FE0
FF003FF0
ENDCHAR
STARTCHAR uni040D
ENCODING 1037
SWIDTH 692 0
DWIDTH 33 0
BBX 29 43 2 0
BITMAP
07FC0000
01FE0000
00FE0000
007F0000
003F8000
003FC000
001FC000
00000000
00000000
FF000FF8
FF000FF8
FF001FF8
FF001FF8
FF003FF8
FF007FF8
FF007FF8
FF00FFF8
FF00FFF8
FF01FFF8
FF01FFF8
FF03FFF8
FF07FFF8
FF07F7F8
FF0FF7F8
FF0FE7F8
FF1FC7F8
FF1FC7F8
FF3F87F8
FF7F87F8
FF7F07F8
FFFF07F8
FFFE07F8
FFFC07F8
FFFC07F8
FFF807F8
FFF807F8
FFF007F8
FFF007F8
FFE007F8
FFC007F8
FFC007F8
FF8007F8
FF8007F8
ENDCHAR
STARTCHAR uni040E
ENCODING 1038
SWIDTH 632 0
DWIDTH 30 0
BBX 30 43 0 0
BITMAP
01F81F80
01FC3F80
00FFFF00
00FFFF00
007FFE00
003FFC00
000FF000
00000000
00000000
FF8007FC
7F8007F8
7FC00FF8
3FC00FF0
3FE00FF0
1FE01FF0
1FF01FE0
0FF03FE0
0FF83FC0
07F83FC0
07FC7F80
03FC7F80
03FEFF80
01FEFF00
01FFFF00
00FFFE00
00FFFE00
007FFC00
003FFC00
003FFC00
001FF800
001FF800
000FF000
000FF000
000FE000
000FE000
001FE000
003FC000
03FF8000
03FF8000
03FF0000
03FE0000
03FC0000
03F00000
ENDCHAR
STARTCHAR uni040F
ENCODING 1039
SWIDTH 692 0
DWIDTH 33 0
BBX 29 42 2 -8
BITMAP
FF000FF8
FF000FF8
FF000FF8
FF000FF8
FF000FF8
FF000FF8
FF000FF8
FF000FF8
FF000FF8
FF000FF8
FF000FF8
FF000FF8
FF000FF8
FF000FF8
FF000FF8
FF000FF8
FF000FF8
FF000FF8
FF000FF8
FF000FF8
FF000FF8
FF000FF8
FF000FF8
FF000FF8
FF000FF8
FF000FF8
FF000FF8
FF000FF8
FFFFFFF8
FFFFFFF8
FFFFFFF8
FFFFFFF8
FFFFFFF8
FFFFFFF8
001FE000
001FE000
001FE000
001FE000
001FE000
001FE000
001FE000
001FE000
ENDCHAR
STARTCHAR uni0410
ENCODING 1040
SWIDTH 681 0
DWIDTH 33 0
BBX 33 34 0 0
BITMAP
000FF00000
000FF80000
000FF80000
001FF80000
001FFC0000
003FFC0000
003FFE0000
003FFE0000
007FFE0000
007FFF0000
007F7F0000
00FF7F0000
00FE7F8000
01FE3F8000
01FE3FC000
01FC3FC000
03FC1FC000
03FC1FE000
03F81FE000
07F80FE000
07F80FF000
07FFFFF000
0FFFFFF800
0FFFFFF800
1FFFFFF800
1FFFFFFC00
1FFFFFFC00
3FE003FC00
3FC003FE00
3FC001FE00
7FC001FF00
7F8001FF00
FF8000FF00
FF8000FF80
ENDCHAR
STARTCHAR uni0411
ENCODING 1041
SWIDTH 624 0
DWIDTH 30 0
BBX 26 34 3 0
BITMAP
FFFFFE00
FFFFFE00
FFFFFE00
FFFFFE00
FFFFFE00
FFFFFE00
FF000000
FF000000
FF000000
FF000000
FF000000
FF000000
FFFF8000
FFFFF000
FFFFF800
FFFFFE00
FFFFFF00
FFFFFF00
FF01FF80
FF00FF80
FF007F80
FF007FC0
FF003FC0
FF007FC0
FF007FC0
FF007F80
FF00FF80
FF01FF80
FFFFFF00
FFFFFE00
FFFFFC00
FFFFF800
FFFFE000
FFFF8000
ENDCHAR
STARTCHAR uni0412
ENCODING 1042
SWIDTH 645 0
DWIDTH 31 0
BBX 26 34 3 0
BITMAP
FFFF8000
FFFFF000
FFFFFC00
FFFFFE00
FFFFFF00
FFFFFF80
FF01FF80
FF00FF80
FF007F80
FF007F80
FF007F80
FF007F80
FF00FF80
FF01FF00
FFFFFE00
FFFFFC00
FFFFF800
FFFFFE00
FFFFFF00
FF00FF80
FF007F80
FF007FC0
FF003FC0
FF003FC0
FF003FC0
FF003FC0
FF007FC0
FF00FF80
FFFFFF80
FFFFFF80
FFFFFF00
FFFFFE00
FFFFF800
FFFFC000
ENDCHAR
STARTCHAR uni0413
ENCODING 1043
SWIDTH 557 0
DWIDTH 27 0
BBX 23 34 3 0
BITMAP
FFFFFE
FFFFFE
FFFFFE
FFFFFE
FFFFFE
FFFFFE
FF0000
FF0000
FF0000
FF0000
FF0000
FF0000
FF0000
FF0000
FF0000
FF0000
FF0000
FF0000
FF0000
FF0000
FF0000
FF0000
FF0000
FF0000
FF0000
FF0000
FF0000
FF0000
FF0000
FF0000
FF0000
FF0000
FF0000
FF0000
ENDCHAR
STARTCHAR uni0414
ENCODING 1044
SWIDTH 742 0
DWIDTH 36 0
BBX 36 42 0 -8
BITMAP
007FFFFF00
007FFFFF00
00FFFFFF00
00FFFFFF00
00FFFFFF00
00FFFFFF00
00FF00FF00
00FF00FF00
00FF00FF00
00FF00FF00
00FF00FF00
00FF00FF00
00FF00FF00
00FF00FF00
00FF00FF00
00FF00FF00
01FF00FF00
01FF00FF00
01FE00FF00
01FE00FF00
01FE00FF00
01FE00FF00
03FE00FF00
03FC00FF00
03FC00FF00
07F800FF00
0FF800FF00
0FF800FF00
FFFFFFFFF0
7FFFFFFFE0
7FFFFFFFE0
7FFFFFFFE0
7FFFFFFFE0
7FFFFFFFE0
7F80001FE0
7F80001FE0
7F80001FE0
7F80001FE0
7F80001FE0
7F80001FE0
7F80001FE0
7F80001FE0
ENDCHAR
STARTCHAR uni0415
ENCODING 1045
SWIDTH 559 0
DWIDTH 27 0
BBX 23 34 3 0
BITMAP
FFFFFE
FFFFFE
FFFFFE
FFFFFE
FFFFFE
FFFFFE
FF0000
FF0000
FF0000
FF0000
FF0000
FF0000
FF0000
FFFFF8
FFFFF8
FFFFF8
FFFFF8
FFFFF8
FFFFF8
FF0000
FF0000
FF0000
FF0000
FF0000
FF0000
FF0000
FF0000
FF0000
FFFFFE
FFFFFE
FFFFFE
FFFFFE
FFFFFE
FFFFFE
ENDCHAR
STARTCHAR uni0416
ENCODING 1046
SWIDTH 1042 0
DWIDTH 50 0
BBX 50 34 0 0
BITMAP
7FE007F801FFC0
3FF007F801FF80
3FF007F803FF00
1FF807F803FF00
0FF807F807FE00
0FFC07F807FC00
07FC07F80FFC00
03FE07F80FF800
03FF07F81FF000
01FF07F81FF000
00FF87F83FE000
00FF87F83FC000
007FC7F87FC000
003FFFFFFF8000
003FFFFFFF0000
003FFFFFFF0000
003FFFFFFF8000
007FFFFFFF8000
007FFFFFFFC000
00FFFFFFFFE000
00FF87F83FE000
01FF07F83FF000
03FF07F81FF000
03FE07F81FF800
07FE07F80FF800
07FC07F80FFC00
0FFC07F807FC00
0FFC07F807FE00
1FF807F807FE00
1FF807F803FF00
3FF007F803FF00
3FF007F801FF80
7FE007F801FF80
FFE007F800FFC0
ENDCHAR
STARTCHAR uni0417
ENCODING 1047
SWIDTH 629 0
DWIDTH 30 0
BBX 27 34 1 0
BITMAP
007FC000
03FFF800
07FFFE00
1FFFFF00
3FFFFF80
3FFFFF80
7FE0FFC0
7FC07FC0
7F803FC0
00003FC0
00003FC0
00003FC0
00007FC0
0000FF80
007FFF00
007FFE00
007FFC00
007FFE00
007FFF00
007FFF80
00007FC0
00003FC0
00003FE0
00001FE0
FF801FE0
FF803FE0
7F803FE0
7FE0FFC0
7FFFFFC0
3FFFFF80
1FFFFF00
0FFFFE00
03FFF800
007FC000
ENDCHAR
STARTCHAR uni0418
ENCODING 1048
SWIDTH 692 0
DWIDTH 33 0
BBX 29 34 2 0
BITMAP
FF000FF8
FF000FF8
FF001FF8
FF001FF8
FF003FF8
FF007FF8
FF007FF8
FF00FFF8
FF00FFF8
FF01FFF8
FF01FFF8
FF03FFF8
FF07FFF8
FF07F7F8
FF0FF7F8
FF0FE7F8
FF1FC7F8
FF1FC7F8
FF3F87F8
FF7F87F8
FF7F07F8
FFFF07F8
FFFE07F8
FFFC07F8
FFFC07F8
FFF807F8
FFF807F8
FFF007F8
FFF007F8
FFE007F8
FFC007F8
FFC007F8
FF8007F8
FF8007F8
ENDCHAR
STARTCHAR uni0419
ENCODING 1049
SWIDTH 692 0
DWIDTH 33 0
BBX 29 43 2 0
BITMAP
03E03E00
03F07E00
03FFFE00
01FFFC00
00FFF800
007FF000
001FC000
00000000
00000000
FF000FF8
FF000FF8
FF001FF8
FF001FF8
FF003FF8
FF007FF8
FF007FF8
FF00FFF8
FF00FFF8
FF01FFF8
FF01FFF8
FF03FFF8
FF07FFF8
FF07F7F8
FF0FF7F8
FF0FE7F8
FF1FC7F8
FF1FC7F8
FF3F87F8
FF7F87F8
FF7F07F8
FFFF07F8
FFFE07F8
FFFC07F8
FFFC07F8
FFF807F8
FFF807F8
FFF007F8
FFF007F8
FFE007F8
FFC007F8
FFC007F8
FF8007F8
FF8007F8
ENDCHAR
STARTCHAR uni041A
ENCODING 1050
SWIDTH 646 0
DWIDTH 31 0
BBX 29 34 3 0
BITMAP
FF007FE0
FF007FE0
FF00FFC0
FF00FF80
FF01FF80
FF01FF00
FF03FF00
FF03FE00
FF07FC00
FF07FC00
FF0FF800
FF0FF000
FF1FF000
FFFFE000
FFFFE000
FFFFC000
FFFFE000
FFFFE000
FFFFF000
FFFFF000
FF0FF800
FF0FFC00
FF07FC00
FF07FE00
FF03FE00
FF03FF00
FF01FF00
FF00FF80
FF00FF80
FF007FC0
FF007FE0
FF003FE0
FF003FF0
FF001FF8
ENDCHAR
STARTCHAR uni041B
ENCODING 1051
SWIDTH 705 0
DWIDTH 34 0
BBX 30 34 1 0
BITMAP
01FFFFFC
01FFFFFC
01FFFFFC
03FFFFFC
03FFFFFC
03FFFFFC
03FC03FC
03FC03FC
03FC03FC
03FC03FC
03FC03FC
03FC03FC
03FC03FC
03FC03FC
03FC03FC
03FC03FC
03FC03FC
03FC03FC
03FC03FC
03FC03FC
03FC03FC
07FC03FC
07F803FC
07F803FC
07F803FC
0FF803FC
0FF003FC
3FF003FC
FFF003FC
FFE003FC
FFC003FC
FFC003FC
FF0003FC
FC0003FC
ENDCHAR
STARTCHAR uni041C
ENCODING 1052
SWIDTH 876 0
DWIDTH 42 0
BBX 36 34 3 0
BITMAP
FFE0007FF0
FFE0007FF0
FFE0007FF0
FFF000FFF0
FFF000FFF0
FFF000FFF0
FFF001FFF0
FFF801FFF0
FFF801FFF0
FFF801FFF0
FFFC03FFF0
FEFC03F7F0
FEFC03F7F0
FEFE07F7F0
FE7E07E7F0
FE7E07E7F0
FE7F0FE7F0
FE3F0FC7F0
FE3F0FC7F0
FE3F9FCFF0
FF1F9F8FF0
FF1F9F8FF0
FF1FFF8FF0
FF0FFF0FF0
FF0FFF0FF0
FF0FFF0FF0
FF07FE0FF0
FF07FE0FF0
FF07FE0FF0
FF03FC0FF0
FF03FC0FF0
FF03FC0FF0
FF01F80FF0
FF01F80FF0
ENDCHAR
STARTCHAR uni041D
ENCODING 1053
SWIDTH 702 0
DWIDTH 34 0
BBX 28 34 3 0
BITMAP
FF000FF0
FF000FF0
FF000FF0
FF000FF0
FF000FF0
FF000FF0
FF000FF0
FF000FF0
FF000FF0
FF000FF0
FF000FF0
FF000FF0
FF000FF0
FFFFFFF0
FFFFFFF0
FFFFFFF0
FFFFFFF0
FFFFFFF0
FFFFFFF0
FF000FF0
FF000FF0
FF000FF0
FF000FF0
FF000FF0
FF000FF0
FF000FF0
FF000FF0
FF000FF0
FF000FF0
FF000FF0
FF000FF0
FF000FF0
FF000FF0
FF000FF0
ENDCHAR
STARTCHAR uni041E
ENCODING 1054
SWIDTH 690 0
DWIDTH 33 0
BBX 29 34 2 0
BITMAP
003FE000
00FFF800
03FFFE00
07FFFF00
0FFFFF80
1FFFFFC0
3FF07FE0
3FC03FE0
7FC01FF0
7F800FF0
FF800FF8
FF0007F8
FF0007F8
FF0007F8
FF0007F8
FF0007F8
FF0007F8
FF0007F8
FF0007F8
FF0007F8
FF0007F8
FF0007F8
FF0007F8
FF800FF8
7F800FF0
7FC01FF0
3FE03FE0
3FF07FE0
1FFFFFC0
0FFFFF80
07FFFF00
03FFFE00
00FFF800
003FE000
ENDCHAR
STARTCHAR uni041F
ENCODING 1055
SWIDTH 703 0
DWIDTH 34 0
BBX 28 34 3 0
BITMAP
FFFFFFF0
FFFFFFF0
FFFFFFF0
FFFFFFF0
FFFFFFF0
FFFFFFF0
FF000FF0
FF000FF0
FF000FF0
FF000FF0
FF000FF0
FF000FF0
FF000FF0
FF000FF0
FF000FF0
FF000FF0
FF000FF0
FF000FF0
FF000FF0
FF000FF0
FF000FF0
FF000FF0
FF000FF0
FF000FF0
FF000FF0
FF000FF0
FF000FF0
FF000FF0
FF000FF0
FF000FF0
FF000FF0
FF000FF0
FF000FF0
FF000FF0
ENDCHAR
STARTCHAR uni0420
ENCODING 1056
SWIDTH 650 0
DWIDTH 31 0
BBX 27 34 2 0
BITMAP
FFFFC000
FFFFF800
FFFFFE00
FFFFFF00
FFFFFF80
FFFFFFC0
FF80FFC0
FF803FE0
FF803FE0
FF801FE0
FF801FE0
FF801FE0
FF801FE0
FF801FE0
FF803FE0
FF807FC0
FFFFFFC0
FFFFFF80
FFFFFF00
FFFFFE00
FFFFF800
FFFFE000
FF800000
FF800000
FF800000
FF800000
FF800000
FF800000
FF800000
FF800000
FF800000
FF800000
FF800000
FF800000
ENDCHAR
STARTCHAR uni0421
ENCODING 1057
SWIDTH 656 0
DWIDTH 32 0
BBX 29 34 2 0
BITMAP
003FE000
00FFFC00
03FFFE00
07FFFF80
0FFFFFC0
1FFFFFC0
3FF07FE0
3FC01FE0
7FC00FF0
7F800FF0
7F800FF0
FF800FF0
FF000008
FF000000
FF000000
FF000000
FF000000
FF000000
FF000000
FF000000
FF000000
FF000000
FF800FF0
FF800FF0
7F800FF0
7FC00FF0
3FC01FF0
3FF07FE0
1FFFFFC0
1FFFFFC0
0FFFFF80
03FFFE00
01FFFC00
003FE000
ENDCHAR
STARTCHAR uni0422
ENCODING 1058
SWIDTH 630 0
DWIDTH 30 0
BBX 28 34 1 0
BITMAP
FFFFFFF0
FFFFFFF0
FFFFFFF0
FFFFFFF0
FFFFFFF0
FFFFFFF0
003FC000
003FC000
003FC000
003FC000
003FC000
003FC000
003FC000
003FC000
003FC000
003FC000
003FC000
003FC000
003FC000
003FC000
003FC000
003FC000
003FC000
003FC000
003FC000
003FC000
003FC000
003FC000
003FC000
003FC000
003FC000
003FC000
003FC000
003FC000
ENDCHAR
STARTCHAR uni0423
ENCODING 1059
SWIDTH 632 0
DWIDTH 30 0
BBX 30 34 0 0
BITMAP
FF8007FC
7F8007F8
7FC00FF8
3FC00FF0
3FE00FF0
1FE01FF0
1FF01FE0
0FF03FE0
0FF83FC0
07F83FC0
07FC7F80
03FC7F80
03FEFF80
01FEFF00
01FFFF00
00FFFE00
00FFFE00
007FFC00
003FFC00
003FFC00
001FF800
001FF800
000FF000
000FF000
000FE000
000FE000
001FE000
003FC000
03FF8000
03FF8000
03FF0000
03FE0000
03FC0000
03F00000
ENDCHAR
STARTCHAR uni0424
ENCODING 1060
SWIDTH 837 0
DWIDTH 40 0
BBX 37 37 2 -1
BITMAP
0003FC0000
0003FC0000
0003FC0000
0003FC0000
003FFFE000
01FFFFF800
07FFFFFE00
0FFFFFFF00
1FFFFFFF80
3FFFFFFFC0
3FE3FC7FE0
7FC3FC1FE0
7F83FC1FF0
FF03FC0FF0
FF03FC0FF0
FF03FC07F0
FE03FC07F8
FE03FC07F8
FE03FC07F8
FE03FC07F8
FF03FC07F8
FF03FC07F0
FF03FC0FF0
FF83FC0FF0
7FC3FC1FE0
7FE3FC7FE0
3FFFFFFFC0
1FFFFFFF80
0FFFFFFF00
07FFFFFE00
01FFFFF800
003FFFE000
0003FC0000
0003FC0000
0003FC0000
0003FC0000
0003FC0000
ENDCHAR
STARTCHAR uni0425
ENCODING 1061
SWIDTH 638 0
DWIDTH 31 0
BBX 31 34 0 0
BITMAP
FFC007FC
7FC00FF8
3FE00FF8
3FE01FF0
1FF01FF0
1FF03FE0
0FF83FE0
07F87FC0
07FC7F80
03FCFF80
03FEFF00
01FFFF00
01FFFE00
00FFFE00
007FFC00
007FFC00
003FF800
007FF800
007FFC00
00FFFC00
00FFFE00
01FFFE00
01FFFF00
03FEFF80
07FCFF80
07FC7FC0
0FF87FC0
0FF83FE0
1FF03FE0
1FF01FF0
3FE01FF8
3FE00FF8
7FC00FFC
FFC007FE
ENDCHAR
STARTCHAR uni0426
ENCODING 1062
SWIDTH 771 0
DWIDTH 37 0
BBX 34 42 2 -8
BITMAP
FF000FF800
FF000FF800
FF000FF800
FF000FF800
FF000FF800
FF000FF800
FF000FF800
FF000FF800
FF000FF800
FF000FF800
FF000FF800
FF000FF800
FF000FF800
FF000FF800
FF000FF800
FF000FF800
FF000FF800
FF000FF800
FF000FF800
FF000FF800
FF000FF800
FF000FF800
FF000FF800
FF000FF800
FF000FF800
FF000FF800
FF000FF800
FF000FF800
FFFFFFFFC0
FFFFFFFFC0
FFFFFFFFC0
FFFFFFFFC0
FFFFFFFFC0
FFFFFFFFC0
0000003FC0
0000003FC0
0000003FC0
0000003FC0
0000003FC0
0000003FC0
0000003FC0
0000003F80
ENDCHAR
STARTCHAR uni0427
ENCODING 1063
SWIDTH 698 0
DWIDTH 34 0
BBX 28 34 3 0
BITMAP
FF800FF0
FF800FF0
FF800FF0
FF800FF0
FF800FF0
FF800FF0
FF800FF0
FF800FF0
FF800FF0
FF800FF0
FF800FF0
FF800FF0
FF800FF0
7F800FF0
7FC00FF0
7FE00FF0
3FFFFFF0
1FFFFFF0
1FFFFFF0
07FFFFF0
03FFFFF0
007FFFF0
00000FF0
00000FF0
00000FF0
00000FF0
00000FF0
00000FF0
00000FF0
00000FF0
00000FF0
00000FF0
00000FF0
00000FF0
ENDCHAR
STARTCHAR uni0428
ENCODING 1064
SWIDTH 966 0
DWIDTH 46 0
BBX 42 34 2 0
BITMAP
FF807F803FC0
FF807F803FC0
FF807F803FC0
FF807F803FC0
FF807F803FC0
FF807F803FC0
FF807F803FC0
FF807F803FC0
FF807F803FC0
FF807F803FC0
FF807F803FC0
FF807F803FC0
FF807F803FC0
FF807F803FC0
FF807F803FC0
FF807F803FC0
FF807F803FC0
FF807F803FC0
FF807F803FC0
FF807F803FC0
FF807F803FC0
FF807F803FC0
FF807F803FC0
FF807F803FC0
FF807F803FC0
FF807F803FC0
FF807F803FC0
FF807F803FC0
FFFFFFFFFFC0
FFFFFFFFFFC0
FFFFFFFFFFC0
FFFFFFFFFFC0
FFFFFFFFFFC0
FFFFFFFFFFC0
ENDCHAR
STARTCHAR uni0429
ENCODING 1065
SWIDTH 1046 0
DWIDTH 50 0
BBX 47 42 2 -8
BITMAP
FF807F803FC0
FF807F803FC0
FF807F803FC0
FF807F803FC0
FF807F803FC0
FF807F803FC0
FF807F803FC0
FF807F803FC0
FF807F803FC0
FF807F803FC0
FF807F803FC0
FF807F803FC0
FF807F803FC0
FF807F803FC0
FF807F803FC0
FF807F803FC0
FF807F803FC0
FF807F803FC0
FF807F803FC0
FF807F803FC0
FF807F803FC0
FF807F803FC0
FF807F803FC0
FF807F803FC0
FF807F803FC0
FF807F803FC0
FF807F803FC0
FF807F803FC0
FFFFFFFFFFFE
FFFFFFFFFFFE
FFFFFFFFFFFE
FFFFFFFFFFFE
FFFFFFFFFFFE
FFFFFFFFFFFE
0000000001FE
0000000001FE
0000000001FE
0000000001FE
0000000001FE
0000000001FE
0000000001FE
0000000001FE
ENDCHAR
STARTCHAR uni042A
ENCODING 1066
SWIDTH 778 0
DWIDTH 37 0
BBX 36 34 0 0
BITMAP
FFFFC00000
FFFFC00000
FFFFC00000
FFFFC00000
FFFFC00000
FFFFC00000
003FC00000
003FC00000
003FC00000
003FC00000
003FC00000
003FC00000
003FFFE000
003FFFFC00
003FFFFF00
003FFFFF80
003FFFFFC0
003FFFFFC0
003FC07FE0
003FC03FE0
003FC01FF0
003FC00FF0
003FC00FF0
003FC00FF0
003FC01FF0
003FC01FF0
003FC03FE0
003FC07FE0
003FFFFFC0
003FFFFFC0
003FFFFF80
003FFFFF00
003FFFFC00
003FFFE000
ENDCHAR
STARTCHAR uni042B
ENCODING 1067
SWIDTH 871 0
DWIDTH 42 0
BBX 36 34 3 0
BITMAP
FF00000FF0
FF00000FF0
FF00000FF0
FF00000FF0
FF00000FF0
FF00000FF0
FF00000FF0
FF00000FF0
FF00000FF0
FF00000FF0
FF00000FF0
FF00000FF0
FFFF800FF0
FFFFF00FF0
FFFFF80FF0
FFFFFE0FF0
FFFFFF0FF0
FFFFFF0FF0
FF01FF8FF0
FF00FF8FF0
FF007FCFF0
FF007FCFF0
FF003FCFF0
FF007FCFF0
FF007FCFF0
FF007F8FF0
FF00FF8FF0
FF01FF8FF0
FFFFFF0FF0
FFFFFE0FF0
FFFFFE0FF0
FFFFF80FF0
FFFFE00FF0
FFFF800FF0
ENDCHAR
STARTCHAR uni042C
ENCODING 1068
SWIDTH 623 0
DWIDTH 30 0
BBX 26 34 3 0
BITMAP
FF000000
FF000000
FF000000
FF000000
FF000000
FF000000
FF000000
FF000000
FF000000
FF000000
FF000000
FF000000
FFFF8000
FFFFF000
FFFFF800
FFFFFE00
FFFFFF00
FFFFFF00
FF01FF80
FF00FF80
FF007FC0
FF007FC0
FF003FC0
FF003FC0
FF007FC0
FF007F80
FF00FF80
FF01FF80
FFFFFF00
FFFFFF00
FFFFFE00
FFFFF800
FFFFE000
FFFF8000
ENDCHAR
STARTCHAR uni042D
ENCODING 1069
SWIDTH 635 0
DWIDTH 31 0
BBX 28 34 1 0
BITMAP
007FC000
03FFF800
07FFFC00
1FFFFE00
3FFFFF00
3FFFFF80
7FE0FFC0
7F803FC0
FF801FE0
FF001FE0
FF001FF0
FF000FF0
00000FF0
001FFFF0
001FFFF0
001FFFF0
001FFFF0
001FFFF0
001FFFF0
00000FF0
00000FF0
00000FF0
FF001FF0
FF001FF0
FF001FE0
FF803FE0
7F803FC0
7FE0FFC0
3FFFFF80
3FFFFF80
1FFFFF00
07FFFC00
03FFF800
007FC000
ENDCHAR
STARTCHAR uni042E
ENCODING 1070
SWIDTH 972 0
DWIDTH 47 0
BBX 41 34 3 0
BITMAP
FF0003FE0000
FF001FFF8000
FF003FFFE000
FF00FFFFF000
FF01FFFFF800
FF01FFFFFC00
FF03FF07FE00
FF07FC03FE00
FF07FC01FF00
FF0FF800FF00
FF0FF800FF80
FF0FF0007F80
FF0FF0007F80
FF0FF0007F80
FFFFF0007F80
FFFFF0007F80
FFFFF0007F80
FFFFF0007F80
FFFFF0007F80
FFFFF0007F80
FF0FF0007F80
FF0FF0007F80
FF0FF0007F80
FF07F800FF80
FF07F800FF00
FF07FC01FF00
FF03FE03FE00
FF03FF07FE00
FF01FFFFFC00
FF00FFFFF800
FF007FFFF000
FF003FFFE000
FF000FFF8000
FF0003FE0000
ENDCHAR
STARTCHAR uni042F
ENCODING 1071
SWIDTH 572 0
DWIDTH 27 0
BBX 27 34 -2 0
BITMAP
003FFFE0
01FFFFE0
03FFFFE0
07FFFFE0
0FFFFFE0
1FFFFFE0
1FF01FE0
3FE01FE0
3FE01FE0
3FC01FE0
3FC01FE0
3FC01FE0
3FC01FE0
3FE01FE0
1FE01FE0
1FF01FE0
0FFFFFE0
07FFFFE0
03FFFFE0
03FFFFE0
03FFFFE0
03FFFFE0
07FC1FE0
07FC1FE0
0FF81FE0
0FF81FE0
1FF01FE0
1FF01FE0
3FE01FE0
3FE01FE0
7FC01FE0
7FC01FE0
FF801FE0
FF801FE0
ENDCHAR
STARTCHAR uni0430
ENCODING 1072
SWIDTH 530 0
DWIDTH 25 0
BBX 23 26 1 0
BITMAP
00FF00
07FFC0
1FFFF0
3FFFF8
3FFFF8
7FC7FC
7F83FC
7F83FC
0003FC
0003FC
01FFFC
0FFFFC
1FFFFC
3FFFFC
7FFFFC
FFC3FC
FF83FC
FF03FC
FF03FC
FF03FC
FF87FC
7FFFFC
7FFFFC
3FFFFE
1FFDFE
07F1FE
ENDCHAR
STARTCHAR uni0431
ENCODING 1073
SWIDTH 577 0
DWIDTH 28 0
BBX 24 37 2 0
BITMAP
0000FC
0001FC
0007FC
003FFC
01FFF8
03FFF0
07FFE0
0FFFC0
1FFC00
1FE000
3F8000
3F0000
7E0000
7E3F80
7EFFF0
7DFFF8
FFFFFC
FFFFFE
FFFFFE
FFC3FF
FF80FF
FF00FF
FF00FF
FF007F
FF007F
FF007F
FF007F
FF00FF
7F00FF
7F80FF
7FC3FE
3FFFFE
3FFFFC
1FFFFC
0FFFF0
03FFE0
00FF00
ENDCHAR
STARTCHAR uni0432
ENCODING 1074
SWIDTH 561 0
DWIDTH 27 0
BBX 23 26 3 0
BITMAP
FFFE00
FFFFC0
FFFFF0
FFFFF0
FFFFF8
FFFFF8
FF07F8
FF07F8
FF07F8
FF07F8
FFFFF0
FFFFE0
FFFFC0
FFFFF0
FFFFF8
FF03FC
FF01FE
FF01FE
FF01FE
FF03FE
FFFFFE
FFFFFC
FFFFFC
FFFFF8
FFFFE0
FFFF80
ENDCHAR
STARTCHAR uni0433
ENCODING 1075
SWIDTH 418 0
DWIDTH 20 0
BBX 18 26 2 0
BITMAP
FFFFC0
FFFFC0
FFFFC0
FFFFC0
FFFFC0
FFFFC0
FF0000
FF0000
FF0000
FF0000
FF0000
FF0000
FF0000
FF0000
FF0000
FF0000
FF0000
FF0000
FF0000
FF0000
FF0000
FF0000
FF0000
FF0000
FF0000
FF0000
ENDCHAR
STARTCHAR uni0434
ENCODING 1076
SWIDTH 643 0
DWIDTH 31 0
BBX 29 34 1 -8
BITMAP
03FFFFC0
03FFFFC0
03FFFFC0
03FFFFC0
03FFFFC0
03FFFFC0
03FC3FC0
03FC3FC0
03FC3FC0
03FC3FC0
03FC3FC0
03F83FC0
03F83FC0
07F83FC0
07F83FC0
07F83FC0
0FF03FC0
0FF03FC0
1FF03FC0
3FE03FC0
FFFFFFF8
FFFFFFF8
FFFFFFF8
FFFFFFF8
FFFFFFF8
FFFFFFF8
FF0003F8
FF0003F8
FF0003F8
FF0003F8
FF0003F8
FF0003F8
FF0003F8
FF0003F8
ENDCHAR
STARTCHAR uni0435
ENCODING 1077
SWIDTH 544 0
DWIDTH 26 0
BBX 24 26 1 0
BITMAP
007F00
03FFE0
07FFF0
0FFFF8
1FFFFC
3FFFFE
3FE1FE
7FC0FE
7F80FF
7F80FF
7F80FF
FFFFFF
FFFFFF
FFFFFF
FFFFFF
7FFFFF
7F8000
7F8000
7FC018
3FE078
3FFFFC
1FFFFE
0FFFFF
07FFFC
01FFF0
007FC0
ENDCHAR
STARTCHAR uni0436
ENCODING 1078
SWIDTH 901 0
DWIDTH 43 0
BBX 42 26 1 0
BITMAP
FFC07F81FFC0
7FC07F81FF80
7FE07F83FF00
3FE07F83FE00
1FF07F87FE00
1FF87F87FC00
0FF87F8FF800
07FC7F8FF800
03FC7F9FF000
03FFFFFFE000
01FFFFFFC000
00FFFFFFC000
01FFFFFFE000
01FFFFFFE000
03FFFFFFF000
03FFFFFFF000
07FC7F8FF800
0FF87F8FF800
0FF87F87FC00
1FF07F87FC00
1FF07F83FE00
3FE07F83FE00
3FE07F83FF00
7FE07F81FF00
7FC07F81FF80
FFC07F80FFC0
ENDCHAR
STARTCHAR uni0437
ENCODING 1079
SWIDTH 517 0
DWIDTH 25 0
BBX 23 26 1 0
BITMAP
01FF00
07FFE0
1FFFF0
3FFFF8
3FFFFC
7FC3FC
7F83FC
0003FC
0003FC
0007FC
00FFF8
00FFF0
00FFE0
00FFF8
00FFFC
0003FC
0001FE
0001FE
FF01FE
7F81FE
7FC3FC
7FFFFC
3FFFF8
1FFFF0
0FFFE0
01FF00
ENDCHAR
STARTCHAR uni0438
ENCODING 1080
SWIDTH 560 0
DWIDTH 27 0
BBX 23 26 2 0
BITMAP
FF01FE
FF03FE
FF03FE
FF07FE
FF07FE
FF0FFE
FF0FFE
FF0FFE
FF1FFE
FF1FFE
FF3FFE
FF3FFE
FF7DFE
FF7DFE
FFF9FE
FFF9FE
FFF1FE
FFF1FE
FFE1FE
FFE1FE
FFE1FE
FFC1FE
FFC1FE
FF81FE
FF81FE
FF01FE
ENDCHAR
STARTCHAR uni0439
ENCODING 1081
SWIDTH 560 0
DWIDTH 27 0
BBX 23 36 2 0
BITMAP
1F01F0
1F83F0
1FFFF0
0FFFE0
07FFE0
03FF80
00FE00
000000
000000
000000
FF01FE
FF03FE
FF03FE
FF07FE
FF07FE
FF0FFE
FF0FFE
FF0FFE
FF1FFE
FF1FFE
FF3FFE
FF3FFE
FF7DFE
FF7DFE
FFF9FE
FFF9FE
FFF1FE
FFF1FE
FFE1FE
FFE1FE
FFE1FE
FFC1FE
FFC1FE
FF81FE
FF81FE
FF01FE
ENDCHAR
STARTCHAR uni043A
ENCODING 1082
SWIDTH 573 0
DWIDTH 28 0
BBX 25 26 3 0
BITMAP
FF03FF00
FF03FE00
FF07FE00
FF07FC00
FF0FF800
FF0FF800
FF1FF000
FF1FE000
FF3FE000
FFFFC000
FFFFC000
FFFF8000
FFFFC000
FFFFC000
FFFFE000
FFFFE000
FF3FF000
FF1FF000
FF1FF800
FF0FF800
FF0FFC00
FF07FE00
FF07FE00
FF07FF00
FF03FF00
FF03FF80
ENDCHAR
STARTCHAR uni043B
ENCODING 1083
SWIDTH 561 0
DWIDTH 27 0
BBX 25 26 0 0
BITMAP
07FFFF80
07FFFF80
07FFFF80
07FFFF80
07FFFF80
07FFFF80
07F07F80
07F07F80
07F07F80
0FF07F80
0FF07F80
0FF07F80
0FF07F80
0FF07F80
0FF07F80
0FF07F80
0FF07F80
1FE07F80
1FE07F80
3FE07F80
FFE07F80
FFC07F80
FFC07F80
FF807F80
FF007F80
FC007F80
ENDCHAR
STARTCHAR uni043C
ENCODING 1084
SWIDTH 767 0
DWIDTH 37 0
BBX 31 26 3 0
BITMAP
FFC007FE
FFC00FFE
FFC00FFE
FFE00FFE
FFE01FFE
FFE01FFE
FFF01FFE
FFF03FFE
FFF03FFE
FFF83FFE
FFF87FFE
FFF87FFE
FFFC7FFE
FFFCFDFE
FFFCFDFE
FF7EF9FE
FF7FF9FE
FF7FF9FE
FF3FF1FE
FF3FF1FE
FF1FF1FE
FF1FE1FE
FF1FE1FE
FF0FE1FE
FF0FC1FE
FF0FC1FE
ENDCHAR
STARTCHAR uni043D
ENCODING 1085
SWIDTH 560 0
DWIDTH 27 0
BBX 23 26 2 0
BITMAP
FF01FE
FF01FE
FF01FE
FF01FE
FF01FE
FF01FE
FF01FE
FF01FE
FF01FE
FF01FE
FFFFFE
FFFFFE
FFFFFE
FFFFFE
FFFFFE
FFFFFE
FF01FE
FF01FE
FF01FE
FF01FE
FF01FE
FF01FE
FF01FE
FF01FE
FF01FE
FF01FE
ENDCHAR
STARTCHAR uni043E
ENCODING 1086
SWIDTH 561 0
DWIDTH 27 0
BBX 25 26 1 0
BITMAP
007F0000
03FFE000
07FFF000
1FFFF800
1FFFFC00
3FFFFE00
7FC3FE00
7F80FF00
7F80FF00
7F00FF00
FF007F80
FF007F80
FF007F80
FF007F80
FF007F80
FF007F80
7F00FF00
7F80FF00
7F80FF00
7FC1FE00
3FFFFE00
1FFFFC00
1FFFF800
07FFF000
03FFE000
00FF8000
ENDCHAR
STARTCHAR uni043F
ENCODING 1087
SWIDTH 560 0
DWIDTH 27 0
BBX 23 26 2 0
BITMAP
FFFFFE
FFFFFE
FFFFFE
FFFFFE
FFFFFE
FFFFFE
FF01FE
FF01FE
FF01FE
FF01FE
FF01FE
FF01FE
FF01FE
FF01FE
FF01FE
FF01FE
FF01FE
FF01FE
FF01FE
FF01FE
FF01FE
FF01FE
FF01FE
FF01FE
FF01FE
FF01FE
ENDCHAR
STARTCHAR uni0440
ENCODING 1088
SWIDTH 562 0
DWIDTH 27 0
BBX 24 36 2 -10
BITMAP
FF1F80
FF7FE0
FFFFF0
FFFFF8
FFFFFC
FFFFFC
FFC3FE
FF01FE
FF01FE
FF00FF
FF00FF
FF00FF
FF00FF
FF00FF
FF00FF
FF00FF
FF00FE
FF01FE
FF81FE
FFC3FE
FFFFFC
FFFFFC
FFFFF8
FFFFF0
FF7FE0
FF1F80
FF0000
FF0000
FF0000
FF0000
FF0000
FF0000
FF0000
FF0000
FF0000
FF0000
ENDCHAR
STARTCHAR uni0441
ENCODING 1089
SWIDTH 519 0
DWIDTH 25 0
BBX 23 26 1 0
BITMAP
00FF00
03FFC0
0FFFF0
1FFFF8
1FFFF8
3FFFFC
7FC3FC
7F81FE
7F81FE
7F01FE
FF0000
FF0000
FF0000
FF0000
FF0000
FF0000
7F0000
7F81FE
7F81FE
7FC3FC
3FFFFC
1FFFFC
1FFFF8
0FFFF0
03FFC0
00FF00
ENDCHAR
STARTCHAR uni0442
ENCODING 1090
SWIDTH 523 0
DWIDTH 25 0
BBX 23 26 1 0
BITMAP
FFFFFE
FFFFFE
FFFFFE
FFFFFE
FFFFFE
FFFFFE
01FE00
01FE00
01FE00
01FE00
01FE00
01FE00
01FE00
01FE00
01FE00
01FE00
01FE00
01FE00
01FE00
01FE00
01FE00
01FE00
01FE00
01FE00
01FE00
01FE00
ENDCHAR
STARTCHAR uni0443
ENCODING 1091
SWIDTH 518 0
DWIDTH 25 0
BBX 25 36 0 -10
BITMAP
FF80FF80
FF80FF80
7F80FF00
7F80FF00
7FC1FF00
3FC1FE00
3FC1FE00
3FC3FE00
1FE3FC00
1FE3FC00
0FE3F800
0FF7F800
0FF7F800
07F7F000
07FFF000
07FFF000
03FFE000
03FFE000
03FFE000
01FFC000
01FFC000
01FFC000
00FF8000
00FF8000
00FF8000
007F0000
007F0000
00FF0000
00FE0000
01FE0000
1FFE0000
1FFC0000
1FF80000
1FF80000
1FF00000
1FC00000
ENDCHAR
STARTCHAR uni0444
ENCODING 1092
SWIDTH 733 0
DWIDTH 35 0
BBX 33 46 1 -10
BITMAP
0007F00000
0007F00000
0007F00000
0007F00000
0007F00000
0007F00000
0007F00000
0007F00000
0007F00000
0007F00000
01F7F7C000
07FFFFF000
1FFFFFF800
1FFFFFFC00
3FFFFFFE00
3FFFFFFE00
7FC7F1FF00
7F87F0FF00
7F87F0FF00
FF07F07F80
FF07F07F80
FF07F07F80
FF07F07F80
FF07F07F80
FF07F07F80
FF07F07F80
FF07F07F80
FF87F0FF80
7F87F0FF00
7FC7F1FF00
7FFFFFFF00
3FFFFFFE00
1FFFFFFC00
1FFFFFFC00
07FFFFF800
03F7F7C000
0007F00000
0007F00000
0007F00000
0007F00000
0007F00000
0007F00000
0007F00000
0007F00000
0007F00000
0007F00000
ENDCHAR
STARTCHAR uni0445
ENCODING 1093
SWIDTH 514 0
DWIDTH 25 0
BBX 25 26 0 0
BITMAP
7F80FF00
7FC1FF00
3FC1FE00
3FE3FE00
1FE3FC00
0FF7F800
0FF7F800
07FFF000
07FFF000
03FFE000
03FFE000
01FFC000
01FFC000
01FFC000
03FFE000
03FFE000
07FFF000
07FFF000
0FF7F800
0FF7F800
1FE3FC00
1FE3FC00
3FC1FE00
3FC1FE00
7F80FF00
FF80FF80
ENDCHAR
STARTCHAR uni0446
ENCODING 1094
SWIDTH 615 0
DWIDTH 30 0
BBX 27 34 2 -8
BITMAP
FF01FE00
FF01FE00
FF01FE00
FF01FE00
FF01FE00
FF01FE00
FF01FE00
FF01FE00
FF01FE00
FF01FE00
FF01FE00
FF01FE00
FF01FE00
FF01FE00
FF01FE00
FF01FE00
FF01FE00
FF01FE00
FF01FE00
FF01FE00
FFFFFFE0
FFFFFFE0
FFFFFFE0
FFFFFFE0
FFFFFFE0
FFFFFFE0
00001FE0
00001FE0
00001FE0
00001FE0
00001FE0
00001FE0
00001FE0
00001FE0
ENDCHAR
STARTCHAR uni0447
ENCODING 1095
SWIDTH 557 0
DWIDTH 27 0
BBX 23 26 2 0
BITMAP
FF01FE
FF01FE
FF01FE
FF01FE
FF01FE
FF01FE
FF01FE
FF01FE
FF01FE
FF01FE
FF01FE
FF81FE
7FFFFE
7FFFFE
3FFFFE
1FFFFE
07FFFE
00FFFE
0001FE
0001FE
0001FE
0001FE
0001FE
0001FE
0001FE
0001FE
ENDCHAR
STARTCHAR uni0448
ENCODING 1096
SWIDTH 835 0
DWIDTH 40 0
BBX 36 26 2 0
BITMAP
FF03FC0FF0
FF03FC0FF0
FF03FC0FF0
FF03FC0FF0
FF03FC0FF0
FF03FC0FF0
FF03FC0FF0
FF03FC0FF0
FF03FC0FF0
FF03FC0FF0
FF03FC0FF0
FF03FC0FF0
FF03FC0FF0
FF03FC0FF0
FF03FC0FF0
FF03FC0FF0
FF03FC0FF0
FF03FC0FF0
FF03FC0FF0
FF03FC0FF0
FFFFFFFFF0
FFFFFFFFF0
FFFFFFFFF0
FFFFFFFFF0
FFFFFFFFF0
FFFFFFFFF0
ENDCHAR
STARTCHAR uni0449
ENCODING 1097
SWIDTH 936 0
DWIDTH 45 0
BBX 42 34 2 -8
BITMAP
FF03FC0FF000
FF03FC0FF000
FF03FC0FF000
FF03FC0FF000
FF03FC0FF000
FF03FC0FF000
FF03FC0FF000
FF03FC0FF000
FF03FC0FF000
FF03FC0FF000
FF03FC0FF000
FF03FC0FF000
FF03FC0FF000
FF03FC0FF000
FF03FC0FF000
FF03FC0FF000
FF03FC0FF000
FF03FC0FF000
FF03FC0FF000
FF03FC0FF000
FFFFFFFFFFC0
FFFFFFFFFF80
FFFFFFFFFF80
FFFFFFFFFF80
FFFFFFFFFF80
FFFFFFFFFF80
000000003F80
000000003F80
000000003F80
000000003F80
000000003F80
000000003F80
000000003F80
000000003F80
ENDCHAR
STARTCHAR uni044A
ENCODING 1098
SWIDTH 676 0
DWIDTH 32 0
BBX 30 26 1 0
BITMAP
FFFE0000
FFFE0000
FFFE0000
FFFE0000
FFFE0000
FFFE0000
01FE0000
01FFFE00
01FFFFC0
01FFFFE0
01FFFFF0
01FFFFF8
01FFFFFC
01FE07FC
01FE03FC
01FE03FC
01FE01FC
01FE03FC
01FE03FC
01FE07FC
01FFFFFC
01FFFFF8
01FFFFF0
01FFFFE0
01FFFFC0
01FFFE00
ENDCHAR
STARTCHAR uni044B
ENCODING 1099
SWIDTH 852 0
DWIDTH 41 0
BBX 35 26 3 0
BITMAP
FF00001FE0
FF00001FE0
FF00001FE0
FF00001FE0
FF00001FE0
FF00001FE0
FF00001FE0
FFFF001FE0
FFFFE01FE0
FFFFF01FE0
FFFFF81FE0
FFFFFC1FE0
FFFFFE1FE0
FF03FE1FE0
FF01FE1FE0
FF01FE1FE0
FF00FE1FE0
FF01FE1FE0
FF01FE1FE0
FF03FE1FE0
FFFFFE1FE0
FFFFFC1FE0
FFFFF81FE0
FFFFF01FE0
FFFFE01FE0
FFFF001FE0
ENDCHAR
STARTCHAR uni044C
ENCODING 1100
SWIDTH 564 0
DWIDTH 27 0
BBX 23 26 3 0
BITMAP
FF0000
FF0000
FF0000
FF0000
FF0000
FF0000
FF0000
FFFF00
FFFFE0
FFFFF0
FFFFF8
FFFFFC
FFFFFC
FF03FE
FF01FE
FF01FE
FF01FE
FF01FE
FF01FE
FF03FE
FFFFFE
FFFFFC
FFFFF8
FFFFF0
FFFFE0
FFFF00
ENDCHAR
STARTCHAR uni044D
ENCODING 1101
SWIDTH 509 0
DWIDTH 24 0
BBX 22 26 1 0
BITMAP
01FC00
0FFF80
1FFFC0
3FFFE0
7FFFF0
FFFFF8
FF07F8
FE03FC
FE03FC
0003FC
007FFC
007FFC
007FFC
007FFC
007FFC
0003FC
FE03FC
FE03FC
FF07FC
FF8FF8
7FFFF8
7FFFF0
3FFFE0
1FFFC0
0FFF80
01FC00
ENDCHAR
STARTCHAR uni044E
ENCODING 1102
SWIDTH 809 0
DWIDTH 39 0
BBX 35 26 3 0
BITMAP
FF003FC000
FF00FFF800
FF03FFFC00
FF07FFFE00
FF0FFFFF00
FF0FFFFF80
FF1FF0FF80
FF1FE07FC0
FF3FE03FC0
FFFFC03FC0
FFFFC01FC0
FFFFC01FE0
FFFFC01FE0
FFFFC01FE0
FFFFC01FE0
FF3FC01FC0
FF1FC03FC0
FF1FE03FC0
FF1FE07FC0
FF0FF0FF80
FF0FFFFF80
FF07FFFF00
FF03FFFE00
FF01FFFC00
FF00FFF800
FF001FC000
ENDCHAR
STARTCHAR uni044F
ENCODING 1103
SWIDTH 564 0
DWIDTH 27 0
BBX 23 26 1 0
BITMAP
00FFFE
07FFFE
1FFFFE
3FFFFE
3FFFFE
7FFFFE
7FC1FE
7F81FE
FF01FE
FF01FE
7F81FE
7FC1FE
7FFFFE
3FFFFE
1FFFFE
07FFFE
07FFFE
0FF1FE
0FF1FE
1FE1FE
1FE1FE
3FC1FE
3FC1FE
7F81FE
7F81FE
FF01FE
ENDCHAR
STARTCHAR uni0450
ENCODING 1104
SWIDTH 544 0
DWIDTH 26 0
BBX 24 36 1 0
BITMAP
3FE000
0FF000
07F000
03F800
03FC00
01FE00
00FE00
000000
000000
000000
007F00
03FFE0
07FFF0
0FFFF8
1FFFFC
3FFFFE
3FE1FE
7FC0FE
7F80FF
7F80FF
7F80FF
FFFFFF
FFFFFF
FFFFFF
FFFFFF
7FFFFF
7F8000
7F8000
7FC018
3FE078
3FFFFC
1FFFFE
0FFFFF
07FFFC
01FFF0
007FC0
ENDCHAR
STARTCHAR uni0451
ENCODING 1105
SWIDTH 544 0
DWIDTH 26 0
BBX 24 35 1 0
BITMAP
1E00F0
3F03F8
3F83F8
3F83F8
3F03F8
1E00F0
000000
000000
000000
007F00
03FFE0
07FFF0
0FFFF8
1FFFFC
3FFFFE
3FE1FE
7FC0FE
7F80FF
7F80FF
7F80FF
FFFFFF
FFFFFF
FFFFFF
FFFFFF
7FFFFF
7F8000
7F8000
7FC018
3FE078
3FFFFC
1FFFFE
0FFFFF
07FFFC
01FFF0
007FC0
ENDCHAR
STARTCHAR uni0452
ENCODING 1106
SWIDTH 564 0
DWIDTH 27 0
BBX 27 46 -2 -10
BITMAP
0FF00000
0FF00000
0FF00000
0FF00000
FFFFC000
FFFFC000
FFFFC000
FFFFC000
FFFFC000
0FF00000
0FF0FC00
0FF3FF00
0FFFFF80
0FFFFF80
0FFFFFC0
0FFFFFC0
0FF83FE0
0FF03FE0
0FF01FE0
0FF01FE0
0FF01FE0
0FF01FE0
0FF01FE0
0FF01FE0
0FF01FE0
0FF01FE0
0FF01FE0
0FF01FE0
0FF01FE0
0FF01FE0
0FF01FE0
0FF01FE0
0FF01FE0
0FF01FE0
0FF01FE0
0FF01FE0
00001FE0
00001FE0
00001FE0
00003FC0
0003FFC0
0003FFC0
0003FF80
0003FF00
0003FE00
0003F800
ENDCHAR
STARTCHAR uni0453
ENCODING 1107
SWIDTH 418 0
DWIDTH 20 0
BBX 18 36 2 0
BITMAP
007F80
00FF00
01FE00
03FC00
03F800
07F000
0FE000
000000
000000
000000
FFFFC0
FFFFC0
FFFFC0
FFFFC0
FFFFC0
FFFFC0
FF0000
FF0000
FF0000
FF0000
FF0000
FF0000
FF0000
FF0000
FF0000
FF0000
FF0000
FF0000
FF0000
FF0000
FF0000
FF0000
FF0000
FF0000
FF0000
FF0000
ENDCHAR
STARTCHAR uni0454
ENCODING 1108
SWIDTH 509 0
DWIDTH 24 0
BBX 22 26 1 0
BITMAP
00FF00
07FFC0
0FFFE0
1FFFF0
3FFFF8
7FFFFC
7FC7FC
7F83FC
FF01FC
FF01FC
FF0000
FFFC00
FFFC00
FFFC00
FFFC00
FFFC00
FF0000
FF01FC
7F81FC
7FC3FC
7FFFFC
3FFFF8
1FFFF0
0FFFE0
07FFC0
00FE00
ENDCHAR
STARTCHAR uni0455
ENCODING 1109
SWIDTH 512 0
DWIDTH 25 0
BBX 22 26 1 0
BITMAP
01FF00
07FFC0
1FFFF0
3FFFF8
3FFFF8
7F87FC
7F83FC
7F03FC
7F8000
7FC000
7FFC00
3FFF80
1FFFE0
0FFFF0
03FFF8
007FFC
0007FC
0003FC
FF01FC
FF01FC
7F83FC
7FFFF8
3FFFF8
1FFFF0
07FFC0
01FE00
ENDCHAR
STARTCHAR uni0456
ENCODING 1110
SWIDTH 274 0
DWIDTH 13 0
BBX 9 37 2 0
BITMAP
3E00
7F00
FF80
FF80
FF80
FF80
7F00
3E00
0000
0000
0000
FF00
FF00
FF00
FF00
FF00
FF00
FF00
FF00
FF00
FF00
FF00
FF00
FF00
FF00
FF00
FF00
FF00
FF00
FF00
FF00
FF00
FF00
FF00
FF00
FF00
FF00
ENDCHAR
STARTCHAR uni0457
ENCODING 1111
SWIDTH 285 0
DWIDTH 14 0
BBX 19 35 -3 0
BITMAP
3C03C0
7E07E0
FE0FE0
FE0FE0
7E07E0
3C03C0
000000
000000
000000
03FC00
03FC00
03FC00
03FC00
03FC00
03FC00
03FC00
03FC00
03FC00
03FC00
03FC00
03FC00
03FC00
03FC00
03FC00
03FC00
03FC00
03FC00
03FC00
03FC00
03FC00
03FC00
03FC00
03FC00
03FC00
03FC00
ENDCHAR
STARTCHAR uni0458
ENCODING 1112
SWIDTH 270 0
DWIDTH 13 0
BBX 14 47 -3 -10
BITMAP
01F0
03F8
07FC
07FC
07FC
07FC
03F8
01F0
0000
0000
0000
03FC
03FC
03FC
03FC
03FC
03FC
03FC
03FC
03FC
03FC
03FC
03FC
03FC
03FC
03FC
03FC
03FC
03FC
03FC
03FC
03FC
03FC
03FC
03FC
03FC
03FC
03FC
03FC
07FC
07F8
FFF8
FFF8
FFF0
FFE0
FFC0
FF00
ENDCHAR
STARTCHAR uni0459
ENCODING 1113
SWIDTH 865 0
DWIDTH 42 0
BBX 41 26 0 0
BITMAP
07FFFF800000
07FFFF800000
07FFFF800000
07FFFF800000
07FFFF800000
07FFFF800000
07F07F800000
07F07F800000
07F07FFFC000
07F07FFFF000
07F07FFFFC00
07F07FFFFE00
0FF07FFFFF00
0FF07FFFFF00
0FF07F80FF80
0FF07F807F80
0FF07F807F80
0FF07F807F80
1FE07F807F80
3FE07F80FF80
FFE07FFFFF00
FFC07FFFFF00
FFC07FFFFE00
FF807FFFFC00
7F007FFFF000
7C007FFF8000
ENDCHAR
STARTCHAR uni045A
ENCODING 1114
SWIDTH 861 0
DWIDTH 41 0
BBX 38 26 2 0
BITMAP
FF01FE0000
FF01FE0000
FF01FE0000
FF01FE0000
FF01FE0000
FF01FE0000
FF01FE0000
FF01FE0000
FF01FFFE00
FF01FFFFC0
FFFFFFFFE0
FFFFFFFFF0
FFFFFFFFF8
FFFFFFFFFC
FFFFFE07FC
FFFFFE03FC
FF01FE01FC
FF01FE01FC
FF01FE03FC
FF01FE07FC
FF01FFFFFC
FF01FFFFF8
FF01FFFFF0
FF01FFFFE0
FF01FFFFC0
FF01FFFE00
ENDCHAR
STARTCHAR uni045B
ENCODING 1115
SWIDTH 562 0
DWIDTH 27 0
BBX 26 36 -1 0
BITMAP
1FE00000
1FE00000
1FE00000
FFFF8000
FFFF8000
FFFF8000
FFFF8000
FFFF8000
1FE00000
1FE00000
1FE1F800
1FE7FE00
1FEFFF00
1FFFFF00
1FFFFF80
1FFFFF80
1FF07FC0
1FE07FC0
1FE03FC0
1FE03FC0
1FE03FC0
1FE03FC0
1FE03FC0
1FE03FC0
1FE03FC0
1FE03FC0
1FE03FC0
1FE03FC0
1FE03FC0
1FE03FC0
1FE03FC0
1FE03FC0
1FE03FC0
1FE03FC0
1FE03FC0
1FE03FC0
ENDCHAR
STARTCHAR uni045C
ENCODING 1116
SWIDTH 573 0
DWIDTH 28 0
BBX 25 36 3 0
BITMAP
000FF000
001FE000
003FC000
003F8000
007F0000
00FE0000
01FC0000
00000000
00000000
00000000
FF03FF00
FF03FE00
FF07FE00
FF07FC00
FF0FF800
FF0FF800
FF1FF000
FF1FE000
FF3FE000
FFFFC000
FFFFC000
FFFF8000
FFFFC000
FFFFC000
FFFFE000
FFFFE000
FF3FF000
FF1FF000
FF1FF800
FF0FF800
FF0FFC00
FF07FE00
FF07FE00
FF07FF00
FF03FF00
FF03FF80
ENDCHAR
STARTCHAR uni045D
ENCODING 1117
SWIDTH 560 0
DWIDTH 27 0
BBX 23 36 2 0
BITMAP
3FE000
0FF000
07F800
03F800
01FC00
00FE00
007E00
000000
000000
000000
FF01FE
FF03FE
FF03FE
FF07FE
FF07FE
FF0FFE
FF0FFE
FF0FFE
FF1FFE
FF1FFE
FF3FFE
FF3FFE
FF7DFE
FF7DFE
FFF9FE
FFF9FE
FFF1FE
FFF1FE
FFE1FE
FFE1FE
FFE1FE
FFC1FE
FFC1FE
FF81FE
FF81FE
FF01FE
ENDCHAR
STARTCHAR uni045E
ENCODING 1118
SWIDTH 518 0
DWIDTH 25 0
BBX 25 46 0 -10
BITMAP
0F80F800
0FC1F800
0FFFF800
07FFF000
07FFE000
01FFC000
007F0000
00000000
00000000
00000000
FF80FF80
FF80FF80
7F80FF00
7F80FF00
7FC1FF00
3FC1FE00
3FC1FE00
3FC3FE00
1FE3FC00
1FE3FC00
0FE3F800
0FF7F800
0FF7F800
07F7F000
07FFF000
07FFF000
03FFE000
03FFE000
03FFE000
01FFC000
01FFC000
01FFC000
00FF8000
00FF8000
00FF8000
007F0000
007F0000
00FF0000
00FE0000
01FE0000
1FFE0000
1FFC0000
1FF80000
1FF80000
1FF00000
1FC00000
ENDCHAR
STARTCHAR uni045F
ENCODING 1119
SWIDTH 560 0
DWIDTH 27 0
BBX 23 34 2 -8
BITMAP
FF01FE
FF01FE
FF01FE
FF01FE
FF01FE
FF01FE
FF01FE
FF01FE
FF01FE
FF01FE
FF01FE
FF01FE
FF01FE
FF01FE
FF01FE
FF01FE
FF01FE
FF01FE
FF01FE
FF01FE
FFFFFE
FFFFFE
FFFFFE
FFFFFE
FFFFFE
FFFFFE
01FE00
01FE00
01FE00
01FE00
01FE00
01FE00
01FE00
01FE00
ENDCHAR
STARTCHAR uni0460
ENCODING 1120
SWIDTH 984 0
DWIDTH 47 0
BBX 42 34 2 0
BITMAP
FF007F803FC0
FF007F803FC0
FF007F803FC0
FF007F803FC0
FF007F803FC0
FF007F803FC0
FF007F803FC0
FF007F803FC0
FF007F803FC0
FF007F803FC0
FF007F803FC0
FF007F803FC0
FF007F803FC0
FF007F803FC0
FF007F803FC0
FF007F803FC0
FF007F803FC0
FF007F803FC0
FF007F803FC0
FF007F803FC0
FF007F803FC0
FF007F803FC0
FF007F803FC0
FF807F803FC0
FF807FC03FC0
7F807FC03FC0
7FC0FFC07FC0
7FE1FFF0FF80
3FFFFFFFFF80
3FFFFFFFFF00
1FFFFFFFFE00
0FFFF3FFFC00
03FFE0FFF800
007F803FC000
ENDCHAR
STARTCHAR uni0461
ENCODING 1121
SWIDTH 853 0
DWIDTH 41 0
BBX 38 26 2 0
BITMAP
FF01FE03FC
FF01FE03FC
FF01FE03FC
FF01FE03FC
FF01FE03FC
FF01FE03FC
FF01FE03FC
FF01FE03FC
FF01FE03FC
FF01FE03FC
FF01FE03FC
FF01FE03FC
FF01FE03FC
FF01FE03FC
FF01FE03FC
FF01FE03F8
FF01FE07F8
FF01FE07F8
7F83FF07F8
7FC7FF8FF8
7FFFFFFFF0
3FFFFFFFF0
1FFFFFFFE0
0FFFCFFFC0
07FF87FF80
01FE01FC00
ENDCHAR
STARTCHAR uni0462
ENCODING 1122
SWIDTH 623 0
DWIDTH 30 0
BBX 30 34 -1 0
BITMAP
0FF00000
0FF00000
0FF00000
0FF00000
FFFF8000
FFFF8000
FFFF8000
FFFF8000
FFFF8000
0FF00000
0FF00000
0FF00000
0FFFF800
0FFFFF00
0FFFFF80
0FFFFFE0
0FFFFFF0
0FFFFFF0
0FF01FF8
0FF00FF8
0FF007FC
0FF007FC
0FF003FC
0FF003FC
0FF007FC
0FF007F8
0FF00FF8
0FF01FF8
0FFFFFF0
0FFFFFF0
0FFFFFE0
0FFFFF80
0FFFFE00
0FFFF800
ENDCHAR
STARTCHAR uni0463
ENCODING 1123
SWIDTH 564 0
DWIDTH 27 0
BBX 27 37 -1 0
BITMAP
0FF00000
0FF00000
0FF00000
0FF00000
0FF00000
0FF00000
0FF00000
FFFF8000
FFFF8000
FFFF8000
FFFF8000
FFFF8000
0FF00000
0FF00000
0FF00000
0FF00000
0FF00000
0FF00000
0FFFF000
0FFFFE00
0FFFFF00
0FFFFF80
0FFFFFC0
0FFFFFE0
0FF03FE0
0FF01FE0
0FF01FE0
0FF01FE0
0FF01FE0
0FF01FE0
0FF03FE0
0FFFFFE0
0FFFFFC0
0FFFFF80
0FFFFF00
0FFFFE00
0FFFF000
ENDCHAR
STARTCHAR uni0464
ENCODING 1124
SWIDTH 890 0
DWIDTH 43 0
BBX 41 34 2 0
BITMAP
FF8001FE0000
FF800FFFC000
FF803FFFF000
FF807FFFF800
FF80FFFFFC00
FF80FFFFFE00
FF81FF03FF00
FF83FE01FF00
FF83FC00FF00
FF87FC007F80
FF87F8007F80
FF87F8007F80
FF87F8000000
FF87F8000000
FFFFFFF80000
FFFFFFF80000
FFFFFFF80000
FFFFFFF80000
FFFFFFF80000
FFFFFFF80000
FF87F8000000
FF87F8000000
FF87F8007F80
FF87F8007F80
FF87FC00FF80
FF83FC00FF80
FF83FE01FF00
FF81FF03FF00
FF81FFFFFE00
FF80FFFFFC00
FF807FFFF800
FF803FFFF000
FF800FFFC000
FF8003FF0000
ENDCHAR
STARTCHAR uni0465
ENCODING 1125
SWIDTH 758 0
DWIDTH 36 0
BBX 33 26 2 0
BITMAP
FF003FC000
FF00FFF800
FF03FFFC00
FF07FFFE00
FF07FFFF00
FF0FFFFF00
FF1FF0FF80
FF1FE07F80
FF1FE03F80
FF1FE00000
FFFFFF8000
FFFFFF8000
FFFFFF8000
FFFFFF8000
FFFFFF8000
FF1FE00000
FF1FE03F80
FF1FE03F80
FF1FE07F80
FF0FF0FF80
FF0FFFFF00
FF07FFFF00
FF03FFFE00
FF01FFFC00
FF00FFF800
FF001FC000
ENDCHAR
STARTCHAR uni0466
ENCODING 1126
SWIDTH 691 0
DWIDTH 33 0
BBX 33 34 0 0
BITMAP
000FF80000
001FF80000
001FFC0000
001FFC0000
003FFC0000
003FFE0000
003FFE0000
007FFE0000
007FFF0000
00FFFF0000
00FFFF0000
00FF7F8000
01FF7F8000
01FE7FC000
01FE3FC000
03FE3FC000
03FC3FE000
03FC1FE000
07FC1FE000
07FFFFF000
07FFFFF000
0FFFFFF000
0FFFFFF800
0FFFFFF800
1FF7E7F800
1FE7E7FC00
1FE7E3FC00
3FE7E3FC00
3FC7E3FE00
7FC7E1FE00
7FC7E1FE00
7F87E1FF00
FF87E0FF00
FF87E0FF80
ENDCHAR
STARTCHAR uni0467
ENCODING 1127
SWIDTH 571 0
DWIDTH 27 0
BBX 27 26 0 0
BITMAP
007FC000
007FC000
00FFE000
00FFE000
00FFE000
01FFF000
01FFF000
01FBF000
03FBF800
03FBF800
03FBFC00
07F9FC00
07F1FC00
0FF1FE00
0FF1FE00
0FFFFE00
1FFFFF00
1FFFFF00
1FFFFF00
3FFFFF80
3FDF7F80
3FDF3F80
7F9F3FC0
7F9F3FC0
7F9F3FC0
FF1F1FE0
ENDCHAR
STARTCHAR uni0468
ENCODING 1128
SWIDTH 964 0
DWIDTH 46 0
BBX 43 34 3 0
BITMAP
FF0003FE0000
FF0007FE0000
FF0007FF0000
FF000FFF0000
FF000FFF0000
FF000FFF8000
FF001FFF8000
FF001FFF8000
FF001FFFC000
FF003FFFC000
FF003FFFC000
FF003FDFE000
FF007F9FE000
FF007F9FE000
FF007F8FF000
FF00FF0FF000
FF00FF0FF000
FF00FF07F800
FF01FE07F800
FFFFFFFFFC00
FFFFFFFFFC00
FFFFFFFFFC00
FFFFFFFFFE00
FFFFFFFFFE00
FF07F9F9FE00
FF07F9F9FF00
FF0FF9F8FF00
FF0FF9F8FF00
FF0FF1F8FF80
FF1FF1F87F80
FF1FF1F87F80
FF1FE1F87FC0
FF3FE1F87FC0
FF3FE1F83FE0
ENDCHAR
STARTCHAR uni0469
ENCODING 1129
SWIDTH 820 0
DWIDTH 39 0
BBX 37 26 2 0
BITMAP
FF001FF000
FF001FF000
FF003FF800
FF003FF800
FF003FF800
FF007FFC00
FF007FFC00
FF007EFC00
FF00FEFE00
FF00FEFE00
FF00FEFF00
FF01FC7F00
FF01FC7F00
FF03FC7F80
FF03FC7F80
FFFFFFFF80
FFFFFFFFC0
FFFFFFFFC0
FFFFFFFFC0
FFFFFFFFE0
FF0FF7DFE0
FF0FF7CFE0
FF1FE7CFF0
FF1FE7CFF0
FF1FE7CFF0
FF3FC7C7F8
ENDCHAR
STARTCHAR uni046A
ENCODING 1130
SWIDTH 877 0
DWIDTH 42 0
BBX 38 34 2 0
BITMAP
0FFFFFFFE0
07FFFFFFC0
07FFFFFFC0
03FFFFFF80
01FFFFFF80
01FFFFFF00
00FF01FE00
00FF83FE00
007F83FC00
007FC7FC00
003FC7F800
001FE7F000
001FEFF000
000FEFE000
000FFFE000
00FFFFFC00
07FFFFFF80
0FFFFFFFC0
1FFFFFFFE0
3FFFFFFFF0
7FFFFFFFF8
7FC1FF0FF8
FF81FF07F8
FF81FF07FC
FF01FF03FC
FF01FF03FC
FF01FF03FC
FF01FF03FC
FF01FF03FC
FF01FF03FC
FF01FF03FC
FF01FF03FC
FF01FF03FC
FF01FF03FC
ENDCHAR
STARTCHAR uni046B
ENCODING 1131
SWIDTH 729 0
DWIDTH 35 0
BBX 31 26 2 0
BITMAP
1FFFFFF8
1FFFFFF0
0FFFFFE0
07FFFFE0
07FFFFC0
03F83FC0
03FC7F80
01FC7F00
00FEFF00
00FEFE00
007FFE00
01FFFF00
0FFFFFE0
1FFFFFF0
3FFFFFF8
7FFFFFFC
7FCFF7FC
7F8FF3FC
FF0FF1FE
FF0FF1FE
FF0FF1FE
FF0FF1FE
FF0FF1FE
FF0FF1FE
FF0FF1FE
FF0FF1FE
ENDCHAR
STARTCHAR uni046C
ENCODING 1132
SWIDTH 1175 0
DWIDTH 56 0
BBX 51 34 3 0
BITMAP
FF007FFFFFFF00
FF003FFFFFFE00
FF001FFFFFFE00
FF001FFFFFFC00
FF000FFFFFFC00
FF000FFFFFF800
FF0007F80FF800
FF0007FC0FF000
FF0003FC1FE000
FF0001FE1FE000
FF0001FE3FC000
FF0000FF3FC000
FF0000FF7F8000
FF00007FFF8000
FF00007FFF0000
FFFFFFFFFFE000
FFFFFFFFFFFC00
FFFFFFFFFFFE00
FFFFFFFFFFFF80
FFFFFFFFFFFF80
FFFFFFFFFFFFC0
FF03FF87F9FFC0
FF03FE07F83FE0
FF07FC07F83FE0
FF07FC07F81FE0
FF07F807F81FE0
FF07F807F81FE0
FF07F807F81FE0
FF07F807F81FE0
FF07F807F81FE0
FF07F807F81FE0
FF07F807F81FE0
FF07F807F81FE0
FF07F807F81FE0
ENDCHAR
STARTCHAR uni046D
ENCODING 1133
SWIDTH 1015 0
DWIDTH 49 0
BBX 44 26 3 0
BITMAP
FF01FFFFFFC0
FF00FFFFFF80
FF007FFFFF00
FF007FFFFF00
FF003FFFFE00
FF001FC1FC00
FF001FE3FC00
FF000FE3F800
FF000FF7F800
FF0007F7F000
FF0007FFF000
FFFFFFFFF800
FFFFFFFFFE00
FFFFFFFFFF80
FFFFFFFFFFC0
FFFFFFFFFFC0
FF07FC7F3FE0
FF07FC7F1FE0
FF07F87F0FE0
FF07F87F0FF0
FF07F87F0FF0
FF07F87F0FF0
FF07F87F0FF0
FF07F87F0FF0
FF07F87F0FF0
FF07F87F0FF0
ENDCHAR
STARTCHAR uni046E
ENCODING 1134
SWIDTH 511 0
DWIDTH 25 0
BBX 23 56 0 -11
BITMAP
7F03F8
3F87F0
1FCFE0
07FFC0
03FF80
01FE00
00FC00
000000
000000
000000
000000
1FFC00
1FFF80
1FFFE0
1FFFF0
1FFFF0
1FFFF8
000FF8
0007F8
0007F8
0007F8
0007F8
0007F8
000FF0
07FFF0
07FFE0
07FF80
07FF80
07FFE0
07FFF8
000FF8
0007FC
0003FC
0003FE
0001FE
0001FE
0003FE
0003FC
000FFC
0FFFFC
3FFFF8
7FFFF0
FFFFE0
FFFFC0
FFFE00
FE0000
FE0000
FE0000
FE0000
FF0000
FF8000
7FC000
7F8000
3F8000
0F8000
030000
ENDCHAR
STARTCHAR uni046F
ENCODING 1135
SWIDTH 515 0
DWIDTH 25 0
BBX 22 46 0 -10
BITMAP
7F03F8
3F87F0
0FEFE0
07FFC0
03FF80
01FF00
00FC00
000000
000000
000000
1FFC00
1FFF80
1FFFE0
1FFFF0
1FFFF0
001FF8
0007F8
0007F8
0007F8
000FF0
07FFE0
07FFC0
07FF80
07FFE0
07FFF8
000FF8
0003FC
0003FC
0003FC
0003FC
000FFC
0FFFF8
3FFFF8
7FFFF0
7FFFC0
FFFE00
FF0000
FE0000
FE0000
7E0000
7F0000
7F8000
3FC000
1F8000
0F0000
030000
ENDCHAR
STARTCHAR uni0470
ENCODING 1136
SWIDTH 745 0
DWIDTH 36 0
BBX 34 34 1 0
BITMAP
FF07F83FC0
FF07F83FC0
FF07F83FC0
FF07F83FC0
FF07F83FC0
FF07F83FC0
FF07F83FC0
FF07F83FC0
FF07F83FC0
FF07F83FC0
FF07F83FC0
FF07F83FC0
FF07F83FC0
FF87F83FC0
FF87F87FC0
7F87F87F80
7FC7F8FF80
3FF7F9FF00
3FFFFFFF00
1FFFFFFE00
0FFFFFFC00
07FFFFF800
01FFFFE000
003FFF0000
0007F80000
0007F80000
0007F80000
0007F80000
0007F80000
0007F80000
0007F80000
0007F80000
0007F80000
0007F80000
ENDCHAR
ENDFONT
